<mxfile modified="2021-07-29T10:54:21.429Z" host="app.diagrams.net" agent="5.0 (Windows NT 10.0; Win64; x64) AppleWebKit/537.36 (KHTML, like Gecko) Chrome/92.0.4515.107 Safari/537.36 Edg/92.0.902.55" etag="xbbb1L4YPcc05noUdOBY" version="14.9.0" type="github" pages="2">
  <diagram id="WI9T0HZ2pTsCkuznbFz-" name="Proposal 1">
    <mxGraphModel dx="2291" dy="794" grid="1" gridSize="10" guides="1" tooltips="1" connect="1" arrows="1" fold="1" page="1" pageScale="1" pageWidth="1169" pageHeight="827" math="0" shadow="0">
      <root>
        <mxCell id="0" />
        <mxCell id="1" parent="0" />
        <mxCell id="tH2_FQWBTG0Nom0rh45U-56" value="" style="aspect=fixed;perimeter=ellipsePerimeter;html=1;align=center;shadow=0;dashed=0;spacingTop=3;image;image=img/lib/active_directory/internet_cloud.svg;fontSize=10;fillColor=none;" parent="1" vertex="1">
          <mxGeometry x="-50" y="71" width="122.06" height="76.9" as="geometry" />
        </mxCell>
        <mxCell id="tH2_FQWBTG0Nom0rh45U-5" value="" style="whiteSpace=wrap;html=1;fillColor=none;dashed=1;" parent="1" vertex="1">
          <mxGeometry x="530" y="50" width="261" height="150" as="geometry" />
        </mxCell>
        <mxCell id="tH2_FQWBTG0Nom0rh45U-9" value="" style="whiteSpace=wrap;html=1;dashed=1;fillColor=none;" parent="1" vertex="1">
          <mxGeometry x="600" y="60" width="160" height="130" as="geometry" />
        </mxCell>
        <mxCell id="tH2_FQWBTG0Nom0rh45U-4" value="" style="whiteSpace=wrap;html=1;fillColor=none;dashed=1;" parent="1" vertex="1">
          <mxGeometry x="170" y="50" width="360" height="150" as="geometry" />
        </mxCell>
        <mxCell id="tH2_FQWBTG0Nom0rh45U-11" style="edgeStyle=orthogonalEdgeStyle;rounded=0;orthogonalLoop=1;jettySize=auto;html=1;entryX=0.125;entryY=0.572;entryDx=0;entryDy=0;entryPerimeter=0;startArrow=none;" parent="1" source="tH2_FQWBTG0Nom0rh45U-58" target="tH2_FQWBTG0Nom0rh45U-10" edge="1">
          <mxGeometry relative="1" as="geometry" />
        </mxCell>
        <mxCell id="tH2_FQWBTG0Nom0rh45U-2" value="" style="shape=image;verticalLabelPosition=bottom;labelBackgroundColor=#ffffff;verticalAlign=top;aspect=fixed;imageAspect=0;image=data:image/svg+xml,PHN2ZyB4bWxuczpjYz0iaHR0cDovL2NyZWF0aXZlY29tbW9ucy5vcmcvbnMjIiB4bWxuczpkYz0iaHR0cDovL3B1cmwub3JnL2RjL2VsZW1lbnRzLzEuMS8iIHhtbG5zOmlua3NjYXBlPSJodHRwOi8vd3d3Lmlua3NjYXBlLm9yZy9uYW1lc3BhY2VzL2lua3NjYXBlIiB4bWxuczpyZGY9Imh0dHA6Ly93d3cudzMub3JnLzE5OTkvMDIvMjItcmRmLXN5bnRheC1ucyMiIHhtbG5zOnNvZGlwb2RpPSJodHRwOi8vc29kaXBvZGkuc291cmNlZm9yZ2UubmV0L0RURC9zb2RpcG9kaS0wLmR0ZCIgeG1sbnM6c3ZnPSJodHRwOi8vd3d3LnczLm9yZy8yMDAwL3N2ZyIgeG1sbnM9Imh0dHA6Ly93d3cudzMub3JnLzIwMDAvc3ZnIiB4bWxuczp4bGluaz0iaHR0cDovL3d3dy53My5vcmcvMTk5OS94bGluayIgdmVyc2lvbj0iMS4xIiBpZD0ic3ZnMjMwMzIiIHg9IjBweCIgeT0iMHB4IiB2aWV3Qm94PSIwIDAgMzkuNjIgMjciIHN0eWxlPSJlbmFibGUtYmFja2dyb3VuZDpuZXcgMCAwIDM5LjYyIDI3OyIgeG1sOnNwYWNlPSJwcmVzZXJ2ZSI+JiN4YTs8c29kaXBvZGk6bmFtZWR2aWV3IGJvcmRlcmNvbG9yPSIjNjY2NjY2IiBib3JkZXJvcGFjaXR5PSIxIiBmaXQtbWFyZ2luLWJvdHRvbT0iMCIgZml0LW1hcmdpbi1sZWZ0PSIwIiBmaXQtbWFyZ2luLXJpZ2h0PSIwIiBmaXQtbWFyZ2luLXRvcD0iMCIgZ3JpZHRvbGVyYW5jZT0iMTAiIGd1aWRldG9sZXJhbmNlPSIxMCIgaWQ9Im5hbWVkdmlldzIzMDM0IiBpbmtzY2FwZTpjdXJyZW50LWxheWVyPSJzdmcyMzAzMiIgaW5rc2NhcGU6Y3g9IjIyLjcyMjYzOSIgaW5rc2NhcGU6Y3k9IjE0LjMyNzAwNiIgaW5rc2NhcGU6cGFnZW9wYWNpdHk9IjAiIGlua3NjYXBlOnBhZ2VzaGFkb3c9IjIiIGlua3NjYXBlOndpbmRvdy1oZWlnaHQ9IjEwMTciIGlua3NjYXBlOndpbmRvdy1tYXhpbWl6ZWQ9IjEiIGlua3NjYXBlOndpbmRvdy13aWR0aD0iMTkyMCIgaW5rc2NhcGU6d2luZG93LXg9Ii04IiBpbmtzY2FwZTp3aW5kb3cteT0iLTgiIGlua3NjYXBlOnpvb209IjE2LjEzMzIxNCIgb2JqZWN0dG9sZXJhbmNlPSIxMCIgcGFnZWNvbG9yPSIjZmZmZmZmIiBzaG93Z3JpZD0iZmFsc2UiPiYjeGE7CTwvc29kaXBvZGk6bmFtZWR2aWV3PiYjeGE7PGcgaWQ9ImcyMzAzMCIgdHJhbnNmb3JtPSJ0cmFuc2xhdGUoMC4zMTA2MzExMSwtMC43NSkiPiYjeGE7CTx0aXRsZSBpZD0idGl0bGUyMjk5NyI+UGFnZS0xPC90aXRsZT4mI3hhOwk8ZyBpZD0iZ3JvdXAxODEyLTEiIHRyYW5zZm9ybT0idHJhbnNsYXRlKDEuNSwtMS41KSI+JiN4YTsJCTx0aXRsZSBpZD0idGl0bGUyMjk5OSI+QXBwbGljYXRpb248L3RpdGxlPiYjeGE7CQk8ZyBpZD0ic2hhcGUxODEzLTIiIHRyYW5zZm9ybT0idHJhbnNsYXRlKDIuMjUsLTIuMjUpIj4mI3hhOwkJCTx0aXRsZSBpZD0idGl0bGUyMzAwMSI+cGF0aDM4MjIuMjc1OTY8L3RpdGxlPiYjeGE7CQkJJiN4YTsJCQkJPHBhdGggaWQ9InBhdGgyMzAwMyIgaW5rc2NhcGU6Y29ubmVjdG9yLWN1cnZhdHVyZT0iMCIgc3R5bGU9ImZpbGwtcnVsZTpldmVub2RkO2NsaXAtcnVsZTpldmVub2RkO2ZpbGw6I0ZGRkZGRjtzdHJva2U6IzY3NzQ4NztzdHJva2Utd2lkdGg6MS41O3N0cm9rZS1taXRlcmxpbWl0OjM7IiBkPSIgICAgIE0zMCw1LjI1SDEuNUMwLjY3LDUuMjUsMCw1LjkyLDAsNi43NVYyOC41aDMxLjVWNi43NUMzMS41LDUuOTIsMzAuODMsNS4yNSwzMCw1LjI1eiIvPiYjeGE7CQk8L2c+JiN4YTsJCTxnIGlkPSJzaGFwZTE4MTQtNCI+JiN4YTsJCQk8dGl0bGUgaWQ9InRpdGxlMjMwMDYiPnBvbHlnb24zODI0LjI3NTk3PC90aXRsZT4mI3hhOwkJCSYjeGE7CQkJCTxwYXRoIGlkPSJwYXRoMjMwMDgiIGlua3NjYXBlOmNvbm5lY3Rvci1jdXJ2YXR1cmU9IjAiIHN0eWxlPSJmaWxsLXJ1bGU6ZXZlbm9kZDtjbGlwLXJ1bGU6ZXZlbm9kZDtmaWxsOiNGRkZGRkY7c3Ryb2tlOiM2Nzc0ODc7c3Ryb2tlLXdpZHRoOjEuNTtzdHJva2UtbWl0ZXJsaW1pdDozOyIgZD0iICAgICBNMzMsMjUuNWwzLDNIMGwzLTNIMzN6Ii8+JiN4YTsJCTwvZz4mI3hhOwkJPGcgaWQ9Imdyb3VwMTgxNS02IiB0cmFuc2Zvcm09InRyYW5zbGF0ZSgxMC4zOTksLTUuMjUpIj4mI3hhOwkJCTx0aXRsZSBpZD0idGl0bGUyMzAxMSI+ZzM4MzIuMjc1OTg8L3RpdGxlPiYjeGE7CQkJPGcgaWQ9InNoYXBlMTgxNi03IiB0cmFuc2Zvcm09InRyYW5zbGF0ZSgwLC04Ljk5MjUpIj4mI3hhOwkJCQk8dGl0bGUgaWQ9InRpdGxlMjMwMTMiPnBvbHlnb24zODI2PC90aXRsZT4mI3hhOwkJCQk8cGF0aCBpZD0icGF0aDIzMDE1IiBpbmtzY2FwZTpjb25uZWN0b3ItY3VydmF0dXJlPSIwIiBzdHlsZT0iZmlsbC1ydWxlOmV2ZW5vZGQ7Y2xpcC1ydWxlOmV2ZW5vZGQ7ZmlsbDojMkJDN0Y0OyIgZD0iICAgICAgTTcuMTIsMjEuMzZMMCwyNC43NGw3LjEyLDMuNzZsNy4xMy0zLjc2TDcuMTIsMjEuMzZ6Ii8+JiN4YTsJCQk8L2c+JiN4YTsJCQk8ZyBpZD0ic2hhcGUxODE3LTkiPiYjeGE7CQkJCTx0aXRsZSBpZD0idGl0bGUyMzAxOCI+cG9seWdvbjM4Mjg8L3RpdGxlPiYjeGE7CQkJCTxwYXRoIGlkPSJwYXRoMjMwMjAiIGlua3NjYXBlOmNvbm5lY3Rvci1jdXJ2YXR1cmU9IjAiIHN0eWxlPSJmaWxsLXJ1bGU6ZXZlbm9kZDtjbGlwLXJ1bGU6ZXZlbm9kZDtmaWxsOiMyQkM3RjQ7IiBkPSJNMCwyNC42NCAgICAgIGw2Ljc1LDMuODZ2LTguMjdMMCwxNi41NlYyNC42NHoiLz4mI3hhOwkJCTwvZz4mI3hhOwkJCTxnIGlkPSJzaGFwZTE4MTgtMTEiIHRyYW5zZm9ybT0idHJhbnNsYXRlKDcuNSkiPiYjeGE7CQkJCTx0aXRsZSBpZD0idGl0bGUyMzAyMyI+cG9seWdvbjM4MzA8L3RpdGxlPiYjeGE7CQkJCTxwYXRoIGlkPSJwYXRoMjMwMjUiIGlua3NjYXBlOmNvbm5lY3Rvci1jdXJ2YXR1cmU9IjAiIHN0eWxlPSJmaWxsLXJ1bGU6ZXZlbm9kZDtjbGlwLXJ1bGU6ZXZlbm9kZDtmaWxsOiMyQkM3RjQ7IiBkPSIgICAgICBNNi43NSwyNC42NEwwLDI4LjV2LTguMjdsNi43NS0zLjY3VjI0LjY0eiIvPiYjeGE7CQkJPC9nPiYjeGE7CQk8L2c+JiN4YTsJPC9nPiYjeGE7PC9nPiYjeGE7PC9zdmc+;" parent="1" vertex="1">
          <mxGeometry x="-14.450000000000003" y="93.29999999999998" width="44.45" height="30" as="geometry" />
        </mxCell>
        <mxCell id="tH2_FQWBTG0Nom0rh45U-40" style="edgeStyle=orthogonalEdgeStyle;rounded=0;orthogonalLoop=1;jettySize=auto;html=1;entryX=0;entryY=0.5;entryDx=0;entryDy=0;" parent="1" source="tH2_FQWBTG0Nom0rh45U-3" target="tH2_FQWBTG0Nom0rh45U-38" edge="1">
          <mxGeometry relative="1" as="geometry" />
        </mxCell>
        <mxCell id="tH2_FQWBTG0Nom0rh45U-3" value="" style="shape=image;verticalLabelPosition=bottom;labelBackgroundColor=#ffffff;verticalAlign=top;aspect=fixed;imageAspect=0;image=data:image/svg+xml,PHN2ZyB4bWxuczpjYz0iaHR0cDovL2NyZWF0aXZlY29tbW9ucy5vcmcvbnMjIiB4bWxuczpkYz0iaHR0cDovL3B1cmwub3JnL2RjL2VsZW1lbnRzLzEuMS8iIHhtbG5zOmlua3NjYXBlPSJodHRwOi8vd3d3Lmlua3NjYXBlLm9yZy9uYW1lc3BhY2VzL2lua3NjYXBlIiB4bWxuczpyZGY9Imh0dHA6Ly93d3cudzMub3JnLzE5OTkvMDIvMjItcmRmLXN5bnRheC1ucyMiIHhtbG5zOnNvZGlwb2RpPSJodHRwOi8vc29kaXBvZGkuc291cmNlZm9yZ2UubmV0L0RURC9zb2RpcG9kaS0wLmR0ZCIgeG1sbnM6c3ZnPSJodHRwOi8vd3d3LnczLm9yZy8yMDAwL3N2ZyIgeG1sbnM9Imh0dHA6Ly93d3cudzMub3JnLzIwMDAvc3ZnIiB4bWxuczp4bGluaz0iaHR0cDovL3d3dy53My5vcmcvMTk5OS94bGluayIgdmVyc2lvbj0iMS4xIiBpZD0ic3ZnNTk4ODkiIGlua3NjYXBlOnZlcnNpb249IjAuOTIuMyAoMjQwNTU0NiwgMjAxOC0wMy0xMSkiIHNvZGlwb2RpOmRvY25hbWU9ImF6dXJlX3BvcnRhbF9hcGlfbWFuYWdlbWVudF9zZXJ2aWNlcy5zdmciIHg9IjBweCIgeT0iMHB4IiB2aWV3Qm94PSIwIDAgMzAuOTcgMjUuNDEiIHN0eWxlPSJlbmFibGUtYmFja2dyb3VuZDpuZXcgMCAwIDMwLjk3IDI1LjQxOyIgeG1sOnNwYWNlPSJwcmVzZXJ2ZSI+JiN4YTs8c29kaXBvZGk6bmFtZWR2aWV3IGJvcmRlcmNvbG9yPSIjNjY2NjY2IiBib3JkZXJvcGFjaXR5PSIxIiBmaXQtbWFyZ2luLWJvdHRvbT0iMCIgZml0LW1hcmdpbi1sZWZ0PSIwIiBmaXQtbWFyZ2luLXJpZ2h0PSIwIiBmaXQtbWFyZ2luLXRvcD0iMCIgZ3JpZHRvbGVyYW5jZT0iMTAiIGd1aWRldG9sZXJhbmNlPSIxMCIgaWQ9Im5hbWVkdmlldzU5ODkxIiBpbmtzY2FwZTpjdXJyZW50LWxheWVyPSJzdmc1OTg4OSIgaW5rc2NhcGU6Y3g9IjI5LjQ3MTgyNyIgaW5rc2NhcGU6Y3k9IjE2LjEyMDc3NSIgaW5rc2NhcGU6cGFnZW9wYWNpdHk9IjAiIGlua3NjYXBlOnBhZ2VzaGFkb3c9IjIiIGlua3NjYXBlOndpbmRvdy1oZWlnaHQ9IjEwMTciIGlua3NjYXBlOndpbmRvdy1tYXhpbWl6ZWQ9IjEiIGlua3NjYXBlOndpbmRvdy13aWR0aD0iMTkyMCIgaW5rc2NhcGU6d2luZG93LXg9Ii04IiBpbmtzY2FwZTp3aW5kb3cteT0iLTgiIGlua3NjYXBlOnpvb209IjE4LjA5MzIyNiIgb2JqZWN0dG9sZXJhbmNlPSIxMCIgcGFnZWNvbG9yPSIjZmZmZmZmIiBzaG93Z3JpZD0iZmFsc2UiPiYjeGE7CTwvc29kaXBvZGk6bmFtZWR2aWV3PiYjeGE7PGcgaWQ9Imc1OTg4NyI+JiN4YTsJPHRpdGxlIGlkPSJ0aXRsZTU5ODcyIj5QYWdlLTE8L3RpdGxlPiYjeGE7CTxnIGlkPSJncm91cDQ0MzMtMSI+JiN4YTsJCTx0aXRsZSBpZD0idGl0bGU1OTg3NCI+QXp1cmUgUG9ydGFsIC0gQVBJIE1hbmFnZW1lbnQgU2VydmljZXM8L3RpdGxlPiYjeGE7CQk8ZyBpZD0ic2hhcGU0NDM0LTIiPiYjeGE7CQkJPHRpdGxlIGlkPSJ0aXRsZTU5ODc2Ij5BUEkgTWFuYWdlbWVudDwvdGl0bGU+JiN4YTsJCQk8cGF0aCBpZD0icGF0aDU5ODc4IiBpbmtzY2FwZTpjb25uZWN0b3ItY3VydmF0dXJlPSIwIiBzdHlsZT0iZmlsbDojNTlCNEQ5OyIgZD0iTTI3LjExLDEwLjY1YzAuMS0wLjM5LDAuMS0wLjU4LDAuMS0xLjE1ICAgICBjMC01LjM4LTQuNDQtOS41LTkuODUtOS41Yy0zLjg1LDAtNy40MywyLjAxLTguODcsNS41N2MtMC40OSwwLTAuODYtMC4yLTEuNDUtMC4yYy0zLjg2LDAtNy4wNCwzLjA3LTcuMDQsNyAgICAgYzAsMy44NCwzLjE4LDYuOSw3LjA0LDYuOWgzLjU4YzAuMDksMC40OSwwLjM3LDAuOTgsMC44NiwxLjM1YzEuMjYsMS4zNSwzLjM4LDEuMjUsNC42MywwczEuMjUtMy4zNiwwLTQuNiAgICAgYy0xLjI1LTEuMzQtMy4zNy0xLjM0LTQuNjMsMGMtMC4yOSwwLjI4LTAuNDksMC44Ny0wLjY3LDEuMjRsLTMuNjcsMC4xYy0yLjcsMC00LjkyLTIuMi00LjkyLTQuOTljMC0yLjc4LDIuMTItNC45OCw0LjkyLTQuOTggICAgIGMwLjQ5LDAsMS4wNiwwLjA5LDEuNjUsMC4xOWwxLjA0LDAuMjlsMC4zLTEuMDVjMS4wNi0zLjE3LDMuOTUtNS4yOCw3LjQzLTUuMjhjNC4yNCwwLDcuNzEsMy40NSw3LjcxLDcuNjcgICAgIGMwLDAuNjgtMC4wOSwxLjM0LTAuMjgsMi4wMWwtMC4zOSwxLjU0bDEuNjMtMC4xOWgwLjNjMS4yNSwwLDIuMjIsMS4wNSwyLjIyLDIuMmMwLDEuMTYtMC44NywyLjAyLTEuOTMsMi4yMWgtNS41ICAgICBjLTAuMi0xLjU0LTAuOTctMi44Ny0yLjAzLTMuOTNjLTEuMzQtMS4zNC0zLjE4LTIuMTEtNS4xMS0yLjExYy0xLjM0LDAtMi43LDAuMzgtMy43NiwxLjA2bDEuMTYsMS44MiAgICAgYzAuODctMC40OSwxLjczLTAuNjgsMi43LTAuNjhjMS4zNSwwLDIuNywwLjQ4LDMuNTcsMS41NGMwLjk2LDAuOTYsMS41NCwyLjIxLDEuNTQsMy41NGMwLDEuMzUtMC40OCwyLjY5LTEuNTQsMy41NSAgICAgYy0wLjk2LDEuMDYtMi4yMiwxLjU0LTMuNTcsMS41NGMtMC45NywwLTEuOTMtMC4yOS0yLjctMC44N2wtMS4xNiwxLjgzYzEuMTYsMC42NywyLjUsMS4xNCwzLjc2LDEuMTRjMS45MywwLDMuNzctMC42Niw1LjExLTIuMSAgICAgYzEuMTYtMS4xNSwxLjgzLTIuNTksMi4wMy00LjIyYzAuMjksMCw1LjYtMC4wOSw1LjYtMC4wOWgwLjA5YzIuMjMtMC4yLDMuOTYtMi4xMSwzLjk2LTQuNDIgICAgIEMzMC41OCwxMi43NiwyOS4xNCwxMS4wNCwyNy4xMSwxMC42NXoiLz4mI3hhOwkJPC9nPiYjeGE7CQk8ZyBpZD0ic2hhcGU0NDM1LTQiIHRyYW5zZm9ybT0idHJhbnNsYXRlKDEwLjI5ODMsLTMuNTYwNikiPiYjeGE7CQkJPHRpdGxlIGlkPSJ0aXRsZTU5ODgxIj5TaGVldC40NDM1PC90aXRsZT4mI3hhOwkJCTxwYXRoIGlkPSJwYXRoNTk4ODMiIGlua3NjYXBlOmNvbm5lY3Rvci1jdXJ2YXR1cmU9IjAiIHN0eWxlPSJmaWxsOiM2ODIxN0E7IiBkPSJNMCwyMS45NmMwLTEuOTEsMS41NS0zLjQ2LDMuNDUtMy40NiAgICAgYzEuOTMsMCwzLjQ2LDEuNTUsMy40NiwzLjQ2YzAsMS45Mi0xLjUzLDMuNDUtMy40NiwzLjQ1QzEuNTUsMjUuNDEsMCwyMy44OCwwLDIxLjk2eiIvPiYjeGE7CQk8L2c+JiN4YTsJPC9nPiYjeGE7PC9nPiYjeGE7PC9zdmc+;" parent="1" vertex="1">
          <mxGeometry x="339.5000000000001" y="92" width="31" height="25" as="geometry" />
        </mxCell>
        <mxCell id="tH2_FQWBTG0Nom0rh45U-6" value="Public Tier" style="text;html=1;resizable=0;autosize=1;align=center;verticalAlign=middle;points=[];fillColor=none;strokeColor=none;rounded=0;dashed=1;" parent="1" vertex="1">
          <mxGeometry x="170" y="30" width="70" height="20" as="geometry" />
        </mxCell>
        <mxCell id="tH2_FQWBTG0Nom0rh45U-7" value="Enterprise Tier" style="text;html=1;resizable=0;autosize=1;align=center;verticalAlign=middle;points=[];fillColor=none;strokeColor=none;rounded=0;dashed=1;" parent="1" vertex="1">
          <mxGeometry x="560" y="30" width="90" height="20" as="geometry" />
        </mxCell>
        <mxCell id="tH2_FQWBTG0Nom0rh45U-8" value="" style="aspect=fixed;html=1;points=[];align=center;image;fontSize=12;image=img/lib/azure2/containers/Kubernetes_Services.svg;dashed=1;fillColor=none;" parent="1" vertex="1">
          <mxGeometry x="610" y="70" width="28.33" height="25" as="geometry" />
        </mxCell>
        <mxCell id="tH2_FQWBTG0Nom0rh45U-12" style="edgeStyle=orthogonalEdgeStyle;rounded=0;orthogonalLoop=1;jettySize=auto;html=1;entryX=0;entryY=0.5;entryDx=0;entryDy=0;" parent="1" source="tH2_FQWBTG0Nom0rh45U-10" target="tH2_FQWBTG0Nom0rh45U-3" edge="1">
          <mxGeometry relative="1" as="geometry" />
        </mxCell>
        <mxCell id="tH2_FQWBTG0Nom0rh45U-44" style="edgeStyle=orthogonalEdgeStyle;rounded=0;orthogonalLoop=1;jettySize=auto;html=1;entryX=0.5;entryY=1;entryDx=0;entryDy=0;" parent="1" source="tH2_FQWBTG0Nom0rh45U-10" target="tH2_FQWBTG0Nom0rh45U-38" edge="1">
          <mxGeometry relative="1" as="geometry">
            <Array as="points">
              <mxPoint x="280" y="105" />
              <mxPoint x="280" y="160" />
              <mxPoint x="445" y="160" />
            </Array>
          </mxGeometry>
        </mxCell>
        <mxCell id="tH2_FQWBTG0Nom0rh45U-10" value="" style="aspect=fixed;html=1;points=[];align=center;image;fontSize=12;image=img/lib/mscae/Application_Gateway.svg;dashed=1;fillColor=none;" parent="1" vertex="1">
          <mxGeometry x="210" y="90" width="30" height="30" as="geometry" />
        </mxCell>
        <mxCell id="tH2_FQWBTG0Nom0rh45U-14" value="" style="html=1;dashed=0;whitespace=wrap;fillColor=#2875E2;strokeColor=#ffffff;points=[[0.005,0.63,0],[0.1,0.2,0],[0.9,0.2,0],[0.5,0,0],[0.995,0.63,0],[0.72,0.99,0],[0.5,1,0],[0.28,0.99,0]];shape=mxgraph.kubernetes.icon;prIcon=api" parent="1" vertex="1">
          <mxGeometry x="650" y="80" width="45" height="40" as="geometry" />
        </mxCell>
        <mxCell id="tH2_FQWBTG0Nom0rh45U-17" value="Client" style="text;html=1;resizable=0;autosize=1;align=center;verticalAlign=middle;points=[];fillColor=none;strokeColor=none;rounded=0;dashed=1;" parent="1" vertex="1">
          <mxGeometry y="121.29999999999998" width="50" height="20" as="geometry" />
        </mxCell>
        <mxCell id="tH2_FQWBTG0Nom0rh45U-18" value="App Gateway" style="text;html=1;resizable=0;autosize=1;align=center;verticalAlign=middle;points=[];fillColor=none;strokeColor=none;rounded=0;dashed=1;" parent="1" vertex="1">
          <mxGeometry x="180" y="122" width="90" height="20" as="geometry" />
        </mxCell>
        <mxCell id="tH2_FQWBTG0Nom0rh45U-19" value="APIM" style="text;html=1;resizable=0;autosize=1;align=center;verticalAlign=middle;points=[];fillColor=none;strokeColor=none;rounded=0;dashed=1;" parent="1" vertex="1">
          <mxGeometry x="330" y="117" width="50" height="20" as="geometry" />
        </mxCell>
        <mxCell id="tH2_FQWBTG0Nom0rh45U-20" value="Java (Websocket API)" style="text;html=1;resizable=0;autosize=1;align=center;verticalAlign=middle;points=[];fillColor=none;strokeColor=none;rounded=0;dashed=1;" parent="1" vertex="1">
          <mxGeometry x="615" y="122" width="130" height="20" as="geometry" />
        </mxCell>
        <mxCell id="tH2_FQWBTG0Nom0rh45U-21" value="" style="whiteSpace=wrap;html=1;fillColor=none;dashed=1;" parent="1" vertex="1">
          <mxGeometry x="406" y="410" width="219" height="150" as="geometry" />
        </mxCell>
        <mxCell id="tH2_FQWBTG0Nom0rh45U-22" value="" style="whiteSpace=wrap;html=1;dashed=1;fillColor=none;" parent="1" vertex="1">
          <mxGeometry x="435" y="420" width="160" height="130" as="geometry" />
        </mxCell>
        <mxCell id="tH2_FQWBTG0Nom0rh45U-23" value="" style="whiteSpace=wrap;html=1;fillColor=none;dashed=1;" parent="1" vertex="1">
          <mxGeometry x="165" y="410" width="240" height="150" as="geometry" />
        </mxCell>
        <mxCell id="tH2_FQWBTG0Nom0rh45U-26" style="edgeStyle=orthogonalEdgeStyle;rounded=0;orthogonalLoop=1;jettySize=auto;html=1;entryX=0.005;entryY=0.63;entryDx=0;entryDy=0;entryPerimeter=0;" parent="1" source="tH2_FQWBTG0Nom0rh45U-27" target="tH2_FQWBTG0Nom0rh45U-33" edge="1">
          <mxGeometry relative="1" as="geometry" />
        </mxCell>
        <mxCell id="tH2_FQWBTG0Nom0rh45U-27" value="" style="shape=image;verticalLabelPosition=bottom;labelBackgroundColor=#ffffff;verticalAlign=top;aspect=fixed;imageAspect=0;image=data:image/svg+xml,PHN2ZyB4bWxuczpjYz0iaHR0cDovL2NyZWF0aXZlY29tbW9ucy5vcmcvbnMjIiB4bWxuczpkYz0iaHR0cDovL3B1cmwub3JnL2RjL2VsZW1lbnRzLzEuMS8iIHhtbG5zOmlua3NjYXBlPSJodHRwOi8vd3d3Lmlua3NjYXBlLm9yZy9uYW1lc3BhY2VzL2lua3NjYXBlIiB4bWxuczpyZGY9Imh0dHA6Ly93d3cudzMub3JnLzE5OTkvMDIvMjItcmRmLXN5bnRheC1ucyMiIHhtbG5zOnNvZGlwb2RpPSJodHRwOi8vc29kaXBvZGkuc291cmNlZm9yZ2UubmV0L0RURC9zb2RpcG9kaS0wLmR0ZCIgeG1sbnM6c3ZnPSJodHRwOi8vd3d3LnczLm9yZy8yMDAwL3N2ZyIgeG1sbnM9Imh0dHA6Ly93d3cudzMub3JnLzIwMDAvc3ZnIiB4bWxuczp4bGluaz0iaHR0cDovL3d3dy53My5vcmcvMTk5OS94bGluayIgdmVyc2lvbj0iMS4xIiBpZD0ic3ZnNTk4ODkiIGlua3NjYXBlOnZlcnNpb249IjAuOTIuMyAoMjQwNTU0NiwgMjAxOC0wMy0xMSkiIHNvZGlwb2RpOmRvY25hbWU9ImF6dXJlX3BvcnRhbF9hcGlfbWFuYWdlbWVudF9zZXJ2aWNlcy5zdmciIHg9IjBweCIgeT0iMHB4IiB2aWV3Qm94PSIwIDAgMzAuOTcgMjUuNDEiIHN0eWxlPSJlbmFibGUtYmFja2dyb3VuZDpuZXcgMCAwIDMwLjk3IDI1LjQxOyIgeG1sOnNwYWNlPSJwcmVzZXJ2ZSI+JiN4YTs8c29kaXBvZGk6bmFtZWR2aWV3IGJvcmRlcmNvbG9yPSIjNjY2NjY2IiBib3JkZXJvcGFjaXR5PSIxIiBmaXQtbWFyZ2luLWJvdHRvbT0iMCIgZml0LW1hcmdpbi1sZWZ0PSIwIiBmaXQtbWFyZ2luLXJpZ2h0PSIwIiBmaXQtbWFyZ2luLXRvcD0iMCIgZ3JpZHRvbGVyYW5jZT0iMTAiIGd1aWRldG9sZXJhbmNlPSIxMCIgaWQ9Im5hbWVkdmlldzU5ODkxIiBpbmtzY2FwZTpjdXJyZW50LWxheWVyPSJzdmc1OTg4OSIgaW5rc2NhcGU6Y3g9IjI5LjQ3MTgyNyIgaW5rc2NhcGU6Y3k9IjE2LjEyMDc3NSIgaW5rc2NhcGU6cGFnZW9wYWNpdHk9IjAiIGlua3NjYXBlOnBhZ2VzaGFkb3c9IjIiIGlua3NjYXBlOndpbmRvdy1oZWlnaHQ9IjEwMTciIGlua3NjYXBlOndpbmRvdy1tYXhpbWl6ZWQ9IjEiIGlua3NjYXBlOndpbmRvdy13aWR0aD0iMTkyMCIgaW5rc2NhcGU6d2luZG93LXg9Ii04IiBpbmtzY2FwZTp3aW5kb3cteT0iLTgiIGlua3NjYXBlOnpvb209IjE4LjA5MzIyNiIgb2JqZWN0dG9sZXJhbmNlPSIxMCIgcGFnZWNvbG9yPSIjZmZmZmZmIiBzaG93Z3JpZD0iZmFsc2UiPiYjeGE7CTwvc29kaXBvZGk6bmFtZWR2aWV3PiYjeGE7PGcgaWQ9Imc1OTg4NyI+JiN4YTsJPHRpdGxlIGlkPSJ0aXRsZTU5ODcyIj5QYWdlLTE8L3RpdGxlPiYjeGE7CTxnIGlkPSJncm91cDQ0MzMtMSI+JiN4YTsJCTx0aXRsZSBpZD0idGl0bGU1OTg3NCI+QXp1cmUgUG9ydGFsIC0gQVBJIE1hbmFnZW1lbnQgU2VydmljZXM8L3RpdGxlPiYjeGE7CQk8ZyBpZD0ic2hhcGU0NDM0LTIiPiYjeGE7CQkJPHRpdGxlIGlkPSJ0aXRsZTU5ODc2Ij5BUEkgTWFuYWdlbWVudDwvdGl0bGU+JiN4YTsJCQk8cGF0aCBpZD0icGF0aDU5ODc4IiBpbmtzY2FwZTpjb25uZWN0b3ItY3VydmF0dXJlPSIwIiBzdHlsZT0iZmlsbDojNTlCNEQ5OyIgZD0iTTI3LjExLDEwLjY1YzAuMS0wLjM5LDAuMS0wLjU4LDAuMS0xLjE1ICAgICBjMC01LjM4LTQuNDQtOS41LTkuODUtOS41Yy0zLjg1LDAtNy40MywyLjAxLTguODcsNS41N2MtMC40OSwwLTAuODYtMC4yLTEuNDUtMC4yYy0zLjg2LDAtNy4wNCwzLjA3LTcuMDQsNyAgICAgYzAsMy44NCwzLjE4LDYuOSw3LjA0LDYuOWgzLjU4YzAuMDksMC40OSwwLjM3LDAuOTgsMC44NiwxLjM1YzEuMjYsMS4zNSwzLjM4LDEuMjUsNC42MywwczEuMjUtMy4zNiwwLTQuNiAgICAgYy0xLjI1LTEuMzQtMy4zNy0xLjM0LTQuNjMsMGMtMC4yOSwwLjI4LTAuNDksMC44Ny0wLjY3LDEuMjRsLTMuNjcsMC4xYy0yLjcsMC00LjkyLTIuMi00LjkyLTQuOTljMC0yLjc4LDIuMTItNC45OCw0LjkyLTQuOTggICAgIGMwLjQ5LDAsMS4wNiwwLjA5LDEuNjUsMC4xOWwxLjA0LDAuMjlsMC4zLTEuMDVjMS4wNi0zLjE3LDMuOTUtNS4yOCw3LjQzLTUuMjhjNC4yNCwwLDcuNzEsMy40NSw3LjcxLDcuNjcgICAgIGMwLDAuNjgtMC4wOSwxLjM0LTAuMjgsMi4wMWwtMC4zOSwxLjU0bDEuNjMtMC4xOWgwLjNjMS4yNSwwLDIuMjIsMS4wNSwyLjIyLDIuMmMwLDEuMTYtMC44NywyLjAyLTEuOTMsMi4yMWgtNS41ICAgICBjLTAuMi0xLjU0LTAuOTctMi44Ny0yLjAzLTMuOTNjLTEuMzQtMS4zNC0zLjE4LTIuMTEtNS4xMS0yLjExYy0xLjM0LDAtMi43LDAuMzgtMy43NiwxLjA2bDEuMTYsMS44MiAgICAgYzAuODctMC40OSwxLjczLTAuNjgsMi43LTAuNjhjMS4zNSwwLDIuNywwLjQ4LDMuNTcsMS41NGMwLjk2LDAuOTYsMS41NCwyLjIxLDEuNTQsMy41NGMwLDEuMzUtMC40OCwyLjY5LTEuNTQsMy41NSAgICAgYy0wLjk2LDEuMDYtMi4yMiwxLjU0LTMuNTcsMS41NGMtMC45NywwLTEuOTMtMC4yOS0yLjctMC44N2wtMS4xNiwxLjgzYzEuMTYsMC42NywyLjUsMS4xNCwzLjc2LDEuMTRjMS45MywwLDMuNzctMC42Niw1LjExLTIuMSAgICAgYzEuMTYtMS4xNSwxLjgzLTIuNTksMi4wMy00LjIyYzAuMjksMCw1LjYtMC4wOSw1LjYtMC4wOWgwLjA5YzIuMjMtMC4yLDMuOTYtMi4xMSwzLjk2LTQuNDIgICAgIEMzMC41OCwxMi43NiwyOS4xNCwxMS4wNCwyNy4xMSwxMC42NXoiLz4mI3hhOwkJPC9nPiYjeGE7CQk8ZyBpZD0ic2hhcGU0NDM1LTQiIHRyYW5zZm9ybT0idHJhbnNsYXRlKDEwLjI5ODMsLTMuNTYwNikiPiYjeGE7CQkJPHRpdGxlIGlkPSJ0aXRsZTU5ODgxIj5TaGVldC40NDM1PC90aXRsZT4mI3hhOwkJCTxwYXRoIGlkPSJwYXRoNTk4ODMiIGlua3NjYXBlOmNvbm5lY3Rvci1jdXJ2YXR1cmU9IjAiIHN0eWxlPSJmaWxsOiM2ODIxN0E7IiBkPSJNMCwyMS45NmMwLTEuOTEsMS41NS0zLjQ2LDMuNDUtMy40NiAgICAgYzEuOTMsMCwzLjQ2LDEuNTUsMy40NiwzLjQ2YzAsMS45Mi0xLjUzLDMuNDUtMy40NiwzLjQ1QzEuNTUsMjUuNDEsMCwyMy44OCwwLDIxLjk2eiIvPiYjeGE7CQk8L2c+JiN4YTsJPC9nPiYjeGE7PC9nPiYjeGE7PC9zdmc+;" parent="1" vertex="1">
          <mxGeometry x="325.0000000000001" y="480" width="31" height="25" as="geometry" />
        </mxCell>
        <mxCell id="tH2_FQWBTG0Nom0rh45U-28" value="Public Tier" style="text;html=1;resizable=0;autosize=1;align=center;verticalAlign=middle;points=[];fillColor=none;strokeColor=none;rounded=0;dashed=1;" parent="1" vertex="1">
          <mxGeometry x="165" y="390" width="70" height="20" as="geometry" />
        </mxCell>
        <mxCell id="tH2_FQWBTG0Nom0rh45U-29" value="Enterprise Tier" style="text;html=1;resizable=0;autosize=1;align=center;verticalAlign=middle;points=[];fillColor=none;strokeColor=none;rounded=0;dashed=1;" parent="1" vertex="1">
          <mxGeometry x="395" y="390" width="90" height="20" as="geometry" />
        </mxCell>
        <mxCell id="tH2_FQWBTG0Nom0rh45U-30" value="" style="aspect=fixed;html=1;points=[];align=center;image;fontSize=12;image=img/lib/azure2/containers/Kubernetes_Services.svg;dashed=1;fillColor=none;" parent="1" vertex="1">
          <mxGeometry x="445" y="430" width="28.33" height="25" as="geometry" />
        </mxCell>
        <mxCell id="tH2_FQWBTG0Nom0rh45U-31" style="edgeStyle=orthogonalEdgeStyle;rounded=0;orthogonalLoop=1;jettySize=auto;html=1;entryX=0;entryY=0.5;entryDx=0;entryDy=0;" parent="1" source="tH2_FQWBTG0Nom0rh45U-32" target="tH2_FQWBTG0Nom0rh45U-27" edge="1">
          <mxGeometry relative="1" as="geometry" />
        </mxCell>
        <mxCell id="tH2_FQWBTG0Nom0rh45U-32" value="" style="aspect=fixed;html=1;points=[];align=center;image;fontSize=12;image=img/lib/mscae/Application_Gateway.svg;dashed=1;fillColor=none;" parent="1" vertex="1">
          <mxGeometry x="205" y="478" width="30" height="30" as="geometry" />
        </mxCell>
        <mxCell id="tH2_FQWBTG0Nom0rh45U-33" value="" style="html=1;dashed=0;whitespace=wrap;fillColor=#2875E2;strokeColor=#ffffff;points=[[0.005,0.63,0],[0.1,0.2,0],[0.9,0.2,0],[0.5,0,0],[0.995,0.63,0],[0.72,0.99,0],[0.5,1,0],[0.28,0.99,0]];shape=mxgraph.kubernetes.icon;prIcon=api" parent="1" vertex="1">
          <mxGeometry x="485" y="468" width="45" height="40" as="geometry" />
        </mxCell>
        <mxCell id="tH2_FQWBTG0Nom0rh45U-35" value="App Gateway" style="text;html=1;resizable=0;autosize=1;align=center;verticalAlign=middle;points=[];fillColor=none;strokeColor=none;rounded=0;dashed=1;" parent="1" vertex="1">
          <mxGeometry x="175" y="510" width="90" height="20" as="geometry" />
        </mxCell>
        <mxCell id="tH2_FQWBTG0Nom0rh45U-36" value="APIM" style="text;html=1;resizable=0;autosize=1;align=center;verticalAlign=middle;points=[];fillColor=none;strokeColor=none;rounded=0;dashed=1;" parent="1" vertex="1">
          <mxGeometry x="315.5" y="508" width="50" height="20" as="geometry" />
        </mxCell>
        <mxCell id="tH2_FQWBTG0Nom0rh45U-37" value="Java (Websocket API)" style="text;html=1;resizable=0;autosize=1;align=center;verticalAlign=middle;points=[];fillColor=none;strokeColor=none;rounded=0;dashed=1;" parent="1" vertex="1">
          <mxGeometry x="450" y="510" width="130" height="20" as="geometry" />
        </mxCell>
        <mxCell id="tH2_FQWBTG0Nom0rh45U-41" style="edgeStyle=orthogonalEdgeStyle;rounded=0;orthogonalLoop=1;jettySize=auto;html=1;entryX=0.005;entryY=0.63;entryDx=0;entryDy=0;entryPerimeter=0;" parent="1" source="tH2_FQWBTG0Nom0rh45U-38" target="tH2_FQWBTG0Nom0rh45U-14" edge="1">
          <mxGeometry relative="1" as="geometry" />
        </mxCell>
        <mxCell id="tH2_FQWBTG0Nom0rh45U-38" value="" style="whiteSpace=wrap;html=1;dashed=1;fillColor=none;" parent="1" vertex="1">
          <mxGeometry x="427.08000000000004" y="92.5" width="35.83" height="25" as="geometry" />
        </mxCell>
        <mxCell id="tH2_FQWBTG0Nom0rh45U-39" value="WSS Auth Gateway" style="text;html=1;resizable=0;autosize=1;align=center;verticalAlign=middle;points=[];fillColor=none;strokeColor=none;rounded=0;dashed=1;" parent="1" vertex="1">
          <mxGeometry x="410.00000000000006" y="67" width="120" height="20" as="geometry" />
        </mxCell>
        <mxCell id="tH2_FQWBTG0Nom0rh45U-42" value="&lt;u&gt;WSS Auth Gateway:&lt;/u&gt;&lt;br&gt;&lt;div style=&quot;text-align: left&quot;&gt;&lt;span&gt;1&amp;nbsp; . Custom .NetCore/Java app&lt;/span&gt;&lt;/div&gt;&lt;div style=&quot;text-align: left&quot;&gt;&lt;span&gt;&amp;nbsp; &amp;nbsp; &amp;nbsp;Hosting:&lt;/span&gt;&lt;/div&gt;&lt;div style=&quot;text-align: left&quot;&gt;&lt;span&gt;&amp;nbsp; &amp;nbsp; &amp;nbsp; &amp;nbsp;- App Service&lt;/span&gt;&lt;/div&gt;&lt;div style=&quot;text-align: left&quot;&gt;&lt;span&gt;&amp;nbsp; &amp;nbsp; &amp;nbsp; &amp;nbsp;- Azure Container Instance&lt;/span&gt;&lt;/div&gt;&lt;div style=&quot;text-align: left&quot;&gt;&lt;span&gt;&amp;nbsp; &amp;nbsp; &amp;nbsp; &amp;nbsp;- AKS (but Enteprise Layer)&lt;/span&gt;&lt;/div&gt;&lt;div style=&quot;text-align: left&quot;&gt;&lt;span&gt;&amp;nbsp; &amp;nbsp; &amp;nbsp; &amp;nbsp; - VM&lt;/span&gt;&lt;/div&gt;&lt;div style=&quot;text-align: left&quot;&gt;&lt;span&gt;2 . NGINX Plus&lt;/span&gt;&lt;/div&gt;&lt;div style=&quot;text-align: left&quot;&gt;&lt;span&gt;&amp;nbsp; &amp;nbsp; &amp;nbsp;Hosting: AKS (Enteprise Layer), VM (public tier)&lt;/span&gt;&lt;/div&gt;" style="text;html=1;resizable=0;autosize=1;align=center;verticalAlign=middle;points=[];fillColor=none;strokeColor=none;rounded=0;dashed=1;" parent="1" vertex="1">
          <mxGeometry x="310.00000000000006" y="210" width="290" height="130" as="geometry" />
        </mxCell>
        <mxCell id="tH2_FQWBTG0Nom0rh45U-45" value="https" style="text;html=1;resizable=0;autosize=1;align=center;verticalAlign=middle;points=[];fillColor=none;strokeColor=none;rounded=0;dashed=1;fontSize=10;" parent="1" vertex="1">
          <mxGeometry x="289" y="87" width="40" height="20" as="geometry" />
        </mxCell>
        <mxCell id="tH2_FQWBTG0Nom0rh45U-46" value="wss" style="text;html=1;resizable=0;autosize=1;align=center;verticalAlign=middle;points=[];fillColor=none;strokeColor=none;rounded=0;dashed=1;fontSize=10;" parent="1" vertex="1">
          <mxGeometry x="331" y="142" width="30" height="20" as="geometry" />
        </mxCell>
        <mxCell id="tH2_FQWBTG0Nom0rh45U-47" value="https" style="text;html=1;resizable=0;autosize=1;align=center;verticalAlign=middle;points=[];fillColor=none;strokeColor=none;rounded=0;dashed=1;fontSize=10;" parent="1" vertex="1">
          <mxGeometry x="370" y="89" width="40" height="20" as="geometry" />
        </mxCell>
        <mxCell id="tH2_FQWBTG0Nom0rh45U-49" value="wss" style="text;html=1;resizable=0;autosize=1;align=center;verticalAlign=middle;points=[];fillColor=none;strokeColor=none;rounded=0;dashed=1;fontSize=10;" parent="1" vertex="1">
          <mxGeometry x="365.5" y="475" width="30" height="20" as="geometry" />
        </mxCell>
        <mxCell id="tH2_FQWBTG0Nom0rh45U-50" value="wss" style="text;html=1;resizable=0;autosize=1;align=center;verticalAlign=middle;points=[];fillColor=none;strokeColor=none;rounded=0;dashed=1;fontSize=10;" parent="1" vertex="1">
          <mxGeometry x="535" y="87" width="30" height="20" as="geometry" />
        </mxCell>
        <mxCell id="tH2_FQWBTG0Nom0rh45U-52" value="https + wss" style="text;html=1;resizable=0;autosize=1;align=center;verticalAlign=middle;points=[];fillColor=none;strokeColor=none;rounded=0;dashed=1;fontSize=10;" parent="1" vertex="1">
          <mxGeometry x="134.45" y="87" width="70" height="20" as="geometry" />
        </mxCell>
        <mxCell id="tH2_FQWBTG0Nom0rh45U-54" value="https + wss" style="text;html=1;resizable=0;autosize=1;align=center;verticalAlign=middle;points=[];fillColor=none;strokeColor=none;rounded=0;dashed=1;fontSize=10;" parent="1" vertex="1">
          <mxGeometry x="235" y="475" width="70" height="20" as="geometry" />
        </mxCell>
        <mxCell id="tH2_FQWBTG0Nom0rh45U-57" value="Internet" style="text;html=1;resizable=0;autosize=1;align=center;verticalAlign=middle;points=[];fillColor=none;strokeColor=none;rounded=0;dashed=1;" parent="1" vertex="1">
          <mxGeometry x="-45" y="60" width="60" height="20" as="geometry" />
        </mxCell>
        <mxCell id="tH2_FQWBTG0Nom0rh45U-58" value="" style="aspect=fixed;html=1;points=[];align=center;image;fontSize=12;image=img/lib/azure2/networking/Public_IP_Addresses.svg;dashed=1;fillColor=none;" parent="1" vertex="1">
          <mxGeometry x="90" y="97" width="25" height="20" as="geometry" />
        </mxCell>
        <mxCell id="tH2_FQWBTG0Nom0rh45U-59" value="" style="edgeStyle=orthogonalEdgeStyle;rounded=0;orthogonalLoop=1;jettySize=auto;html=1;entryX=0.125;entryY=0.572;entryDx=0;entryDy=0;entryPerimeter=0;endArrow=none;" parent="1" source="tH2_FQWBTG0Nom0rh45U-2" target="tH2_FQWBTG0Nom0rh45U-58" edge="1">
          <mxGeometry relative="1" as="geometry">
            <mxPoint x="30.000000000000455" y="106.33333333333337" as="sourcePoint" />
            <mxPoint x="213.75" y="107.15999999999997" as="targetPoint" />
          </mxGeometry>
        </mxCell>
        <mxCell id="tH2_FQWBTG0Nom0rh45U-60" value="Public IP" style="text;html=1;resizable=0;autosize=1;align=center;verticalAlign=middle;points=[];fillColor=none;strokeColor=none;rounded=0;dashed=1;fontSize=9;" parent="1" vertex="1">
          <mxGeometry x="77.5" y="117" width="50" height="20" as="geometry" />
        </mxCell>
        <mxCell id="tH2_FQWBTG0Nom0rh45U-61" value="" style="aspect=fixed;perimeter=ellipsePerimeter;html=1;align=center;shadow=0;dashed=0;spacingTop=3;image;image=img/lib/active_directory/internet_cloud.svg;fontSize=10;fillColor=none;" parent="1" vertex="1">
          <mxGeometry x="-45" y="453.1" width="122.06" height="76.9" as="geometry" />
        </mxCell>
        <mxCell id="tH2_FQWBTG0Nom0rh45U-62" value="" style="shape=image;verticalLabelPosition=bottom;labelBackgroundColor=#ffffff;verticalAlign=top;aspect=fixed;imageAspect=0;image=data:image/svg+xml,PHN2ZyB4bWxuczpjYz0iaHR0cDovL2NyZWF0aXZlY29tbW9ucy5vcmcvbnMjIiB4bWxuczpkYz0iaHR0cDovL3B1cmwub3JnL2RjL2VsZW1lbnRzLzEuMS8iIHhtbG5zOmlua3NjYXBlPSJodHRwOi8vd3d3Lmlua3NjYXBlLm9yZy9uYW1lc3BhY2VzL2lua3NjYXBlIiB4bWxuczpyZGY9Imh0dHA6Ly93d3cudzMub3JnLzE5OTkvMDIvMjItcmRmLXN5bnRheC1ucyMiIHhtbG5zOnNvZGlwb2RpPSJodHRwOi8vc29kaXBvZGkuc291cmNlZm9yZ2UubmV0L0RURC9zb2RpcG9kaS0wLmR0ZCIgeG1sbnM6c3ZnPSJodHRwOi8vd3d3LnczLm9yZy8yMDAwL3N2ZyIgeG1sbnM9Imh0dHA6Ly93d3cudzMub3JnLzIwMDAvc3ZnIiB4bWxuczp4bGluaz0iaHR0cDovL3d3dy53My5vcmcvMTk5OS94bGluayIgdmVyc2lvbj0iMS4xIiBpZD0ic3ZnMjMwMzIiIHg9IjBweCIgeT0iMHB4IiB2aWV3Qm94PSIwIDAgMzkuNjIgMjciIHN0eWxlPSJlbmFibGUtYmFja2dyb3VuZDpuZXcgMCAwIDM5LjYyIDI3OyIgeG1sOnNwYWNlPSJwcmVzZXJ2ZSI+JiN4YTs8c29kaXBvZGk6bmFtZWR2aWV3IGJvcmRlcmNvbG9yPSIjNjY2NjY2IiBib3JkZXJvcGFjaXR5PSIxIiBmaXQtbWFyZ2luLWJvdHRvbT0iMCIgZml0LW1hcmdpbi1sZWZ0PSIwIiBmaXQtbWFyZ2luLXJpZ2h0PSIwIiBmaXQtbWFyZ2luLXRvcD0iMCIgZ3JpZHRvbGVyYW5jZT0iMTAiIGd1aWRldG9sZXJhbmNlPSIxMCIgaWQ9Im5hbWVkdmlldzIzMDM0IiBpbmtzY2FwZTpjdXJyZW50LWxheWVyPSJzdmcyMzAzMiIgaW5rc2NhcGU6Y3g9IjIyLjcyMjYzOSIgaW5rc2NhcGU6Y3k9IjE0LjMyNzAwNiIgaW5rc2NhcGU6cGFnZW9wYWNpdHk9IjAiIGlua3NjYXBlOnBhZ2VzaGFkb3c9IjIiIGlua3NjYXBlOndpbmRvdy1oZWlnaHQ9IjEwMTciIGlua3NjYXBlOndpbmRvdy1tYXhpbWl6ZWQ9IjEiIGlua3NjYXBlOndpbmRvdy13aWR0aD0iMTkyMCIgaW5rc2NhcGU6d2luZG93LXg9Ii04IiBpbmtzY2FwZTp3aW5kb3cteT0iLTgiIGlua3NjYXBlOnpvb209IjE2LjEzMzIxNCIgb2JqZWN0dG9sZXJhbmNlPSIxMCIgcGFnZWNvbG9yPSIjZmZmZmZmIiBzaG93Z3JpZD0iZmFsc2UiPiYjeGE7CTwvc29kaXBvZGk6bmFtZWR2aWV3PiYjeGE7PGcgaWQ9ImcyMzAzMCIgdHJhbnNmb3JtPSJ0cmFuc2xhdGUoMC4zMTA2MzExMSwtMC43NSkiPiYjeGE7CTx0aXRsZSBpZD0idGl0bGUyMjk5NyI+UGFnZS0xPC90aXRsZT4mI3hhOwk8ZyBpZD0iZ3JvdXAxODEyLTEiIHRyYW5zZm9ybT0idHJhbnNsYXRlKDEuNSwtMS41KSI+JiN4YTsJCTx0aXRsZSBpZD0idGl0bGUyMjk5OSI+QXBwbGljYXRpb248L3RpdGxlPiYjeGE7CQk8ZyBpZD0ic2hhcGUxODEzLTIiIHRyYW5zZm9ybT0idHJhbnNsYXRlKDIuMjUsLTIuMjUpIj4mI3hhOwkJCTx0aXRsZSBpZD0idGl0bGUyMzAwMSI+cGF0aDM4MjIuMjc1OTY8L3RpdGxlPiYjeGE7CQkJJiN4YTsJCQkJPHBhdGggaWQ9InBhdGgyMzAwMyIgaW5rc2NhcGU6Y29ubmVjdG9yLWN1cnZhdHVyZT0iMCIgc3R5bGU9ImZpbGwtcnVsZTpldmVub2RkO2NsaXAtcnVsZTpldmVub2RkO2ZpbGw6I0ZGRkZGRjtzdHJva2U6IzY3NzQ4NztzdHJva2Utd2lkdGg6MS41O3N0cm9rZS1taXRlcmxpbWl0OjM7IiBkPSIgICAgIE0zMCw1LjI1SDEuNUMwLjY3LDUuMjUsMCw1LjkyLDAsNi43NVYyOC41aDMxLjVWNi43NUMzMS41LDUuOTIsMzAuODMsNS4yNSwzMCw1LjI1eiIvPiYjeGE7CQk8L2c+JiN4YTsJCTxnIGlkPSJzaGFwZTE4MTQtNCI+JiN4YTsJCQk8dGl0bGUgaWQ9InRpdGxlMjMwMDYiPnBvbHlnb24zODI0LjI3NTk3PC90aXRsZT4mI3hhOwkJCSYjeGE7CQkJCTxwYXRoIGlkPSJwYXRoMjMwMDgiIGlua3NjYXBlOmNvbm5lY3Rvci1jdXJ2YXR1cmU9IjAiIHN0eWxlPSJmaWxsLXJ1bGU6ZXZlbm9kZDtjbGlwLXJ1bGU6ZXZlbm9kZDtmaWxsOiNGRkZGRkY7c3Ryb2tlOiM2Nzc0ODc7c3Ryb2tlLXdpZHRoOjEuNTtzdHJva2UtbWl0ZXJsaW1pdDozOyIgZD0iICAgICBNMzMsMjUuNWwzLDNIMGwzLTNIMzN6Ii8+JiN4YTsJCTwvZz4mI3hhOwkJPGcgaWQ9Imdyb3VwMTgxNS02IiB0cmFuc2Zvcm09InRyYW5zbGF0ZSgxMC4zOTksLTUuMjUpIj4mI3hhOwkJCTx0aXRsZSBpZD0idGl0bGUyMzAxMSI+ZzM4MzIuMjc1OTg8L3RpdGxlPiYjeGE7CQkJPGcgaWQ9InNoYXBlMTgxNi03IiB0cmFuc2Zvcm09InRyYW5zbGF0ZSgwLC04Ljk5MjUpIj4mI3hhOwkJCQk8dGl0bGUgaWQ9InRpdGxlMjMwMTMiPnBvbHlnb24zODI2PC90aXRsZT4mI3hhOwkJCQk8cGF0aCBpZD0icGF0aDIzMDE1IiBpbmtzY2FwZTpjb25uZWN0b3ItY3VydmF0dXJlPSIwIiBzdHlsZT0iZmlsbC1ydWxlOmV2ZW5vZGQ7Y2xpcC1ydWxlOmV2ZW5vZGQ7ZmlsbDojMkJDN0Y0OyIgZD0iICAgICAgTTcuMTIsMjEuMzZMMCwyNC43NGw3LjEyLDMuNzZsNy4xMy0zLjc2TDcuMTIsMjEuMzZ6Ii8+JiN4YTsJCQk8L2c+JiN4YTsJCQk8ZyBpZD0ic2hhcGUxODE3LTkiPiYjeGE7CQkJCTx0aXRsZSBpZD0idGl0bGUyMzAxOCI+cG9seWdvbjM4Mjg8L3RpdGxlPiYjeGE7CQkJCTxwYXRoIGlkPSJwYXRoMjMwMjAiIGlua3NjYXBlOmNvbm5lY3Rvci1jdXJ2YXR1cmU9IjAiIHN0eWxlPSJmaWxsLXJ1bGU6ZXZlbm9kZDtjbGlwLXJ1bGU6ZXZlbm9kZDtmaWxsOiMyQkM3RjQ7IiBkPSJNMCwyNC42NCAgICAgIGw2Ljc1LDMuODZ2LTguMjdMMCwxNi41NlYyNC42NHoiLz4mI3hhOwkJCTwvZz4mI3hhOwkJCTxnIGlkPSJzaGFwZTE4MTgtMTEiIHRyYW5zZm9ybT0idHJhbnNsYXRlKDcuNSkiPiYjeGE7CQkJCTx0aXRsZSBpZD0idGl0bGUyMzAyMyI+cG9seWdvbjM4MzA8L3RpdGxlPiYjeGE7CQkJCTxwYXRoIGlkPSJwYXRoMjMwMjUiIGlua3NjYXBlOmNvbm5lY3Rvci1jdXJ2YXR1cmU9IjAiIHN0eWxlPSJmaWxsLXJ1bGU6ZXZlbm9kZDtjbGlwLXJ1bGU6ZXZlbm9kZDtmaWxsOiMyQkM3RjQ7IiBkPSIgICAgICBNNi43NSwyNC42NEwwLDI4LjV2LTguMjdsNi43NS0zLjY3VjI0LjY0eiIvPiYjeGE7CQkJPC9nPiYjeGE7CQk8L2c+JiN4YTsJPC9nPiYjeGE7PC9nPiYjeGE7PC9zdmc+;" parent="1" vertex="1">
          <mxGeometry x="-9.450000000000003" y="478.4" width="44.45" height="30" as="geometry" />
        </mxCell>
        <mxCell id="tH2_FQWBTG0Nom0rh45U-63" value="Client" style="text;html=1;resizable=0;autosize=1;align=center;verticalAlign=middle;points=[];fillColor=none;strokeColor=none;rounded=0;dashed=1;" parent="1" vertex="1">
          <mxGeometry x="5" y="506.4" width="50" height="20" as="geometry" />
        </mxCell>
        <mxCell id="tH2_FQWBTG0Nom0rh45U-64" value="https + wss" style="text;html=1;resizable=0;autosize=1;align=center;verticalAlign=middle;points=[];fillColor=none;strokeColor=none;rounded=0;dashed=1;fontSize=10;" parent="1" vertex="1">
          <mxGeometry x="139.45" y="469.1" width="70" height="20" as="geometry" />
        </mxCell>
        <mxCell id="tH2_FQWBTG0Nom0rh45U-65" value="Internet" style="text;html=1;resizable=0;autosize=1;align=center;verticalAlign=middle;points=[];fillColor=none;strokeColor=none;rounded=0;dashed=1;" parent="1" vertex="1">
          <mxGeometry x="-40" y="445.1" width="60" height="20" as="geometry" />
        </mxCell>
        <mxCell id="tH2_FQWBTG0Nom0rh45U-70" style="edgeStyle=orthogonalEdgeStyle;rounded=0;orthogonalLoop=1;jettySize=auto;html=1;fontSize=9;" parent="1" source="tH2_FQWBTG0Nom0rh45U-66" target="tH2_FQWBTG0Nom0rh45U-32" edge="1">
          <mxGeometry relative="1" as="geometry" />
        </mxCell>
        <mxCell id="tH2_FQWBTG0Nom0rh45U-66" value="" style="aspect=fixed;html=1;points=[];align=center;image;fontSize=12;image=img/lib/azure2/networking/Public_IP_Addresses.svg;dashed=1;fillColor=none;" parent="1" vertex="1">
          <mxGeometry x="95" y="482.1" width="25" height="20" as="geometry" />
        </mxCell>
        <mxCell id="tH2_FQWBTG0Nom0rh45U-67" value="" style="edgeStyle=orthogonalEdgeStyle;rounded=0;orthogonalLoop=1;jettySize=auto;html=1;entryX=0.125;entryY=0.572;entryDx=0;entryDy=0;entryPerimeter=0;endArrow=none;" parent="1" source="tH2_FQWBTG0Nom0rh45U-62" target="tH2_FQWBTG0Nom0rh45U-66" edge="1">
          <mxGeometry relative="1" as="geometry">
            <mxPoint x="35.000000000000455" y="488.4333333333334" as="sourcePoint" />
            <mxPoint x="218.75" y="489.26" as="targetPoint" />
          </mxGeometry>
        </mxCell>
        <mxCell id="tH2_FQWBTG0Nom0rh45U-68" value="Public IP" style="text;html=1;resizable=0;autosize=1;align=center;verticalAlign=middle;points=[];fillColor=none;strokeColor=none;rounded=0;dashed=1;fontSize=9;" parent="1" vertex="1">
          <mxGeometry x="82.5" y="501.1" width="50" height="20" as="geometry" />
        </mxCell>
        <mxCell id="jYtibzoHNVVxmJJPwSUq-1" value="" style="shape=image;verticalLabelPosition=bottom;labelBackgroundColor=#ffffff;verticalAlign=top;aspect=fixed;imageAspect=0;image=data:image/svg+xml,PHN2ZyB4bWxuczpkYz0iaHR0cDovL3B1cmwub3JnL2RjL2VsZW1lbnRzLzEuMS8iIHhtbG5zOmNjPSJodHRwOi8vY3JlYXRpdmVjb21tb25zLm9yZy9ucyMiIHhtbG5zOnJkZj0iaHR0cDovL3d3dy53My5vcmcvMTk5OS8wMi8yMi1yZGYtc3ludGF4LW5zIyIgeG1sbnM6c3ZnPSJodHRwOi8vd3d3LnczLm9yZy8yMDAwL3N2ZyIgeG1sbnM9Imh0dHA6Ly93d3cudzMub3JnLzIwMDAvc3ZnIiB4bWxuczpzb2RpcG9kaT0iaHR0cDovL3NvZGlwb2RpLnNvdXJjZWZvcmdlLm5ldC9EVEQvc29kaXBvZGktMC5kdGQiIHhtbG5zOmlua3NjYXBlPSJodHRwOi8vd3d3Lmlua3NjYXBlLm9yZy9uYW1lc3BhY2VzL2lua3NjYXBlIiB2ZXJzaW9uPSIxLjEiIGlkPSJzdmc2MTMyMyIgaW5rc2NhcGU6dmVyc2lvbj0iMC45Mi4zICgyNDA1NTQ2LCAyMDE4LTAzLTExKSIgc29kaXBvZGk6ZG9jbmFtZT0iYXp1cmVfcG9ydGFsX3dlYl9hcHBzLnN2ZyIgeD0iMHB4IiB5PSIwcHgiIHZpZXdCb3g9IjAgMCA1MS4wMjkzMTcgNTEuMDIiIHhtbDpzcGFjZT0icHJlc2VydmUiIHdpZHRoPSI1MS4wMjkzMTYiIGhlaWdodD0iNTEuMDIiPjxtZXRhZGF0YSBpZD0ibWV0YWRhdGExMTY1NSI+PHJkZjpSREY+PGNjOldvcmsgcmRmOmFib3V0PSIiPjxkYzpmb3JtYXQ+aW1hZ2Uvc3ZnK3htbDwvZGM6Zm9ybWF0PjxkYzp0eXBlIHJkZjpyZXNvdXJjZT0iaHR0cDovL3B1cmwub3JnL2RjL2RjbWl0eXBlL1N0aWxsSW1hZ2UiLz48ZGM6dGl0bGUvPjwvY2M6V29yaz48L3JkZjpSREY+PC9tZXRhZGF0YT48ZGVmcyBpZD0iZGVmczExNjUzIi8+JiN4YTs8ZmlsdGVyIGlkPSJmaWx0ZXJfMiI+JiN4YTsJPGZlR2F1c3NpYW5CbHVyIGlkPSJmZUdhdXNzaWFuQmx1cjYxMjk2IiBzdGREZXZpYXRpb249IjIiLz4mI3hhOzwvZmlsdGVyPiYjeGE7PHNvZGlwb2RpOm5hbWVkdmlldyBib3JkZXJjb2xvcj0iIzY2NjY2NiIgYm9yZGVyb3BhY2l0eT0iMSIgZml0LW1hcmdpbi1ib3R0b209IjAiIGZpdC1tYXJnaW4tbGVmdD0iMCIgZml0LW1hcmdpbi1yaWdodD0iMCIgZml0LW1hcmdpbi10b3A9IjAiIGdyaWR0b2xlcmFuY2U9IjEwIiBndWlkZXRvbGVyYW5jZT0iMTAiIGlkPSJuYW1lZHZpZXc2MTMyNSIgaW5rc2NhcGU6Y3VycmVudC1sYXllcj0ic3ZnNjEzMjMiIGlua3NjYXBlOmN4PSItNDUuMDA0ODE4IiBpbmtzY2FwZTpjeT0iMzkuNDkwNjM4IiBpbmtzY2FwZTpwYWdlb3BhY2l0eT0iMCIgaW5rc2NhcGU6cGFnZXNoYWRvdz0iMiIgaW5rc2NhcGU6d2luZG93LWhlaWdodD0iMTAxNyIgaW5rc2NhcGU6d2luZG93LW1heGltaXplZD0iMSIgaW5rc2NhcGU6d2luZG93LXdpZHRoPSIxOTIwIiBpbmtzY2FwZTp3aW5kb3cteD0iLTgiIGlua3NjYXBlOndpbmRvdy15PSItOCIgaW5rc2NhcGU6em9vbT0iNC4zMDY1ODM0IiBvYmplY3R0b2xlcmFuY2U9IjEwIiBwYWdlY29sb3I9IiNmZmZmZmYiIHNob3dncmlkPSJmYWxzZSI+JiN4YTsJPC9zb2RpcG9kaTpuYW1lZHZpZXc+JiN4YTsmI3hhOzxwYXRoIGlkPSJwYXRoNjEzMDkiIGlua3NjYXBlOmNvbm5lY3Rvci1jdXJ2YXR1cmU9IjAiIHN0eWxlPSJmaWxsOiM1OWI0ZDkiIGQ9Im0gNDEuMDE0NTI2LDQ1Ljc2IGMgLTQuNjIsMy41MyAtMTAuMDcsNS4yNiAtMTUuNDcsNS4yNiAtNy42OCwwIC0xNS4yNywtMy40NSAtMjAuMjc5OTk5OSwtMTAuMDEgLTguNTcsLTExLjE5IC02LjQ2LC0yNy4xOCA0Ljc0OTk5OTksLTM1Ljc2IDQuNjIsLTMuNTUgMTAuMDgsLTUuMjUgMTUuNDgsLTUuMjUgNy42NywwIDE1LjI2LDMuNDUgMjAuMjgsMTAuMDEgOC41NywxMS4xOCA2LjQzLDI3LjE5IC00Ljc2LDM1Ljc1IHoiLz4mI3hhOyYjeGE7PHBhdGggaWQ9InBhdGg2MTMxNyIgaW5rc2NhcGU6Y29ubmVjdG9yLWN1cnZhdHVyZT0iMCIgc3R5bGU9ImZpbGw6I2ZmZmZmZiIgZD0ibSAzNi4zMzQ1MjYsMjkuOTggYyAxLjg1LDIuNDEgNS4yOSwyLjg1IDcuNywxLjAyIDAuMTIsLTAuMDkgMC4yMiwtMC4yMSAwLjMzLC0wLjMxIDIuNDYsMS43MyA0LjE3LDIuODcgNS4xMywzLjUzIDAuMjgsLTAuNzQgMC40OCwtMS40NSAwLjY4LC0yLjE5IC0xLjAxLC0wLjc2IC0yLjM5LC0xLjgxIC00LjM3LC0zLjQyIDAuNjUsLTEuNzIgMC40NCwtMy43MiAtMC43NSwtNS4yOCAtMS43LC0yLjIxIC00LjcyLC0yLjc3IC03LjA4LC0xLjQxIC0yLjYsLTIuMzMgLTUuNDUsLTUgLTguNDYsLTcuOTkgOS4zNSwtNS4wMyAxNiwtNC4yOSAxNiwtNC4yOSAtMS4xMSwtMS40MiAtMi4zNiwtMi42NiAtMy42OCwtMy43OCAtMy45NSwtMC42MSAtMTAuMDcsLTAuNTQgLTE3LjA3LDMuMTkgbCAtMC4wMSwtMC4wMSB2IDAgYyAtMi4zMywtMi40NCAtNC43MSwtNS4wNiAtNy4xMiwtNy44NyAtMS4xNiwwLjM3IC0yLjI5LDAuODMgLTMuMzgsMS4zOCAxLjc4LDIuOTIgNC4xOCw1Ljg3IDYuODksOC43NCAwLDAuMDEgMC4wMSwwLjAxIDAuMDIsMC4wMiAtMi4yNiwxLjU3IC00Ljc3LDMuNjggLTcuMDksNi4xMyAtMC4zLDAuMzIgLTAuNTgsMC42NCAtMC44NiwwLjk1IC0xLjM4LC0wLjI5IC0yLjg0LC0wLjIgLTQuMTk5OTk5OSwwLjI5IC0yLjMxLC00Ljk4IC0yLjEzLC04Ljk5IC0xLjc2LC0xMS4wNSAtMSwxLjA1IC0xLjk0LDIuMTUgLTIuNzUsMy4zMyAtMC42LDIuNDcgLTAuNzcsNi4wMiAxLjAxLDEwLjMgLTIuMDYsMi43IC0yLjE2LDYuNTIgLTAuMDEsOS4zNSAwLjE4LDAuMjMgMC4zNywwLjQ1IDAuNTcsMC42NSAtMC45NCwzLjIgLTEuMzYsNi4yOSAtMS40OSw4Ljk0IDAuMjQsMC4zMyAwLjI0LDAuNiAwLjQ4LDAuOTIgMS4yMywxLjU3IDIuNzYsMi44OSA0LjI1LDQuMDkgLTAuMTgsLTIuODEgMC4wMSwtNi45NSAxLjc0OTk5OTksLTExLjYxIDEuMiwwLjA5IDIuNDEsLTAuMDkgMy41NSwtMC41NyAwLjY2LDAuNTcgMS4zNCwxLjE1IDIuMDcsMS43NCAyLjUsMS45OCA1LDMuNTMgNy40Myw0Ljc0IC0wLjEyLDEuMjQgMC4xOSwyLjUyIDAuOTksMy41OSAxLjcyLDIuMjIgNC45MSwyLjY0IDcuMTMsMC45NCAwLjQ2LC0wLjM2IDAuODMsLTAuNzggMS4xMywtMS4yNCAzLjk3LDAuODggNy40NCwxLjA0IDEwLjAxLDEuMDQgMC4zOSwwIDIuMjIsLTIuNDkgMy4yNiwtNC4wMyAtMS41NiwwLjMzIC02LjIsMC45NyAtMTIuNTUsLTAuODYgLTAuMTUsLTAuNzEgLTAuNDQsLTEuNCAtMC45MSwtMi4wMiAtMS42MiwtMi4xMSAtNC41NiwtMi41NyAtNi43NiwtMS4xNSAtMi4yLC0xLjIgLTQuNTEsLTIuNyAtNi44OSwtNC41OSAtMC40OCwtMC4zOCAtMC45NSwtMC43NiAtMS4zOSwtMS4xNCAxLjQ1LC0yLjI5IDEuNjEsLTUuMjMgMC4zMiwtNy43IDAuMywtMC4yOSAwLjU4LC0wLjU5IDAuODksLTAuODggMi4zNiwtMi4yIDQuNTgsLTMuOTYgNi42NiwtNS4zOCAtMC4wOSwtMC4wOCAtMC4xNiwtMC4xNiAtMC4yNSwtMC4yNCAwLjA5LDAuMDggMC4xNiwwLjE2IDAuMjUsMC4yNCB2IDAgYyAzLjE4LDIuOTQgNi41Niw1LjczIDkuNzYsOC4yMyAtMC44NSwxLjc5IC0wLjcyLDMuOTggMC41Nyw1LjY2IHoiLz4mI3hhOzwvc3ZnPg==;" parent="1" vertex="1">
          <mxGeometry x="428.49" y="89" width="33" height="33" as="geometry" />
        </mxCell>
        <mxCell id="jYtibzoHNVVxmJJPwSUq-2" value="" style="shape=image;verticalLabelPosition=bottom;labelBackgroundColor=#ffffff;verticalAlign=top;aspect=fixed;imageAspect=0;image=data:image/svg+xml,PHN2ZyB4bWxuczpjYz0iaHR0cDovL2NyZWF0aXZlY29tbW9ucy5vcmcvbnMjIiB4bWxuczpkYz0iaHR0cDovL3B1cmwub3JnL2RjL2VsZW1lbnRzLzEuMS8iIHhtbG5zOmlua3NjYXBlPSJodHRwOi8vd3d3Lmlua3NjYXBlLm9yZy9uYW1lc3BhY2VzL2lua3NjYXBlIiB4bWxuczpyZGY9Imh0dHA6Ly93d3cudzMub3JnLzE5OTkvMDIvMjItcmRmLXN5bnRheC1ucyMiIHhtbG5zOnNvZGlwb2RpPSJodHRwOi8vc29kaXBvZGkuc291cmNlZm9yZ2UubmV0L0RURC9zb2RpcG9kaS0wLmR0ZCIgeG1sbnM6c3ZnPSJodHRwOi8vd3d3LnczLm9yZy8yMDAwL3N2ZyIgeG1sbnM9Imh0dHA6Ly93d3cudzMub3JnLzIwMDAvc3ZnIiB4bWxuczp4bGluaz0iaHR0cDovL3d3dy53My5vcmcvMTk5OS94bGluayIgdmVyc2lvbj0iMS4xIiBpZD0ic3ZnOTMyMDEiIGlua3NjYXBlOnZlcnNpb249IjAuOTIuMyAoMjQwNTU0NiwgMjAxOC0wMy0xMSkiIHNvZGlwb2RpOmRvY25hbWU9InJlZGlzX2NhY2hlXzEuc3ZnIiB4PSIwcHgiIHk9IjBweCIgdmlld0JveD0iMCAwIDM3LjUxIDMxLjYiIHN0eWxlPSJlbmFibGUtYmFja2dyb3VuZDpuZXcgMCAwIDM3LjUxIDMxLjY7IiB4bWw6c3BhY2U9InByZXNlcnZlIj4mI3hhOzxzb2RpcG9kaTpuYW1lZHZpZXcgYm9yZGVyY29sb3I9IiM2NjY2NjYiIGJvcmRlcm9wYWNpdHk9IjEiIGZpdC1tYXJnaW4tYm90dG9tPSIwIiBmaXQtbWFyZ2luLWxlZnQ9IjAiIGZpdC1tYXJnaW4tcmlnaHQ9IjAiIGZpdC1tYXJnaW4tdG9wPSIwIiBncmlkdG9sZXJhbmNlPSIxMCIgZ3VpZGV0b2xlcmFuY2U9IjEwIiBpZD0ibmFtZWR2aWV3OTMyMDMiIGlua3NjYXBlOmN1cnJlbnQtbGF5ZXI9InN2ZzkzMjAxIiBpbmtzY2FwZTpjeD0iMzMuNTI0MjM1IiBpbmtzY2FwZTpjeT0iMTkuNzUxMjkxIiBpbmtzY2FwZTpwYWdlb3BhY2l0eT0iMCIgaW5rc2NhcGU6cGFnZXNoYWRvdz0iMiIgaW5rc2NhcGU6d2luZG93LWhlaWdodD0iMTAxNyIgaW5rc2NhcGU6d2luZG93LW1heGltaXplZD0iMSIgaW5rc2NhcGU6d2luZG93LXdpZHRoPSIxOTIwIiBpbmtzY2FwZTp3aW5kb3cteD0iLTgiIGlua3NjYXBlOndpbmRvdy15PSItOCIgaW5rc2NhcGU6em9vbT0iMTMuODg5MzQ4IiBvYmplY3R0b2xlcmFuY2U9IjEwIiBwYWdlY29sb3I9IiNmZmZmZmYiIHNob3dncmlkPSJmYWxzZSI+JiN4YTsJPC9zb2RpcG9kaTpuYW1lZHZpZXc+JiN4YTs8ZyBpZD0iZzkzMTk5IiB0cmFuc2Zvcm09InRyYW5zbGF0ZSgtMC43NDY3NjM4LC0wLjc1MTYyNSkiPiYjeGE7CTx0aXRsZSBpZD0idGl0bGU5MzExNSI+UGFnZS0xPC90aXRsZT4mI3hhOwk8ZyBpZD0iZ3JvdXA0OTc3LTEiIHRyYW5zZm9ybT0idHJhbnNsYXRlKDAuNDA3MjksLTAuNjA5Mzc1KSI+JiN4YTsJCTx0aXRsZSBpZD0idGl0bGU5MzExNyI+UmVkaXMgQ2FjaGUgIzE8L3RpdGxlPiYjeGE7CQk8ZyBpZD0iZ3JvdXA0OTc4LTIiPiYjeGE7CQkJPHRpdGxlIGlkPSJ0aXRsZTkzMTE5Ij5TaGVldC40OTc4PC90aXRsZT4mI3hhOwkJCTxnIGlkPSJzaGFwZTQ5NzktMyIgdHJhbnNmb3JtPSJ0cmFuc2xhdGUoMC4yMzcpIj4mI3hhOwkJCQk8dGl0bGUgaWQ9InRpdGxlOTMxMjEiPlNoZWV0LjQ5Nzk8L3RpdGxlPiYjeGE7CQkJCTxwYXRoIGlkPSJwYXRoOTMxMjMiIGlua3NjYXBlOmNvbm5lY3Rvci1jdXJ2YXR1cmU9IjAiIHN0eWxlPSJmaWxsOiNCQTE0MUE7IiBkPSJNMC4xMSwyNS4xOWMtMC4wNiwwLjQsMC4yOCwwLjgsMS4wMiwxLjExICAgICAgbDE1LjI0LDYuMjRjMS4zNywwLjU2LDMuNiwwLjU2LDQuOTcsMGwxNS4yNC02LjI0YzAuNzQtMC4zMSwxLjA4LTAuNzEsMS4wMi0xLjExdi0zLjU4YzAuMDUsMC4zOS0wLjI5LDAuNzktMS4wMiwxLjA5ICAgICAgbC0xNS4yNCw2LjI0Yy0xLjM3LDAuNTYtMy42LDAuNTYtNC45NywwTDEuMTMsMjIuN2MtMC44LTAuMzMtMS4xMy0wLjc4LTEtMS4yTDAuMTEsMjUuMTl6Ii8+JiN4YTsJCQk8L2c+JiN4YTsJCQk8ZyBpZD0ic2hhcGU0OTgwLTUiIHRyYW5zZm9ybT0idHJhbnNsYXRlKDAsLTMuNikiPiYjeGE7CQkJCTx0aXRsZSBpZD0idGl0bGU5MzEyNiI+U2hlZXQuNDk4MDwvdGl0bGU+JiN4YTsJCQkJPHBhdGggaWQ9InBhdGg5MzEyOCIgaW5rc2NhcGU6Y29ubmVjdG9yLWN1cnZhdHVyZT0iMCIgc3R5bGU9ImZpbGw6I0JBMTQxQTsiIGQ9Ik0zNi44MSwyNC4yNmMxLjM4LDAuNTcsMS4zOCwxLjQ4LDAsMi4wNCAgICAgIGwtMTUuMjMsNi4yNGMtMS4zNywwLjU2LTMuNiwwLjU2LTQuOTcsMEwxLjM3LDI2LjNDMCwyNS43NCwwLDI0LjgyLDEuMzcsMjQuMjZsMTUuMjQtNi4yNGMxLjM3LTAuNTYsMy42LTAuNTYsNC45NywwICAgICAgTDM2LjgxLDI0LjI2eiIvPiYjeGE7CQkJPC9nPiYjeGE7CQk8L2c+JiN4YTsJCTxnIGlkPSJncm91cDQ5ODEtNyIgdHJhbnNmb3JtPSJ0cmFuc2xhdGUoMCwtNi4zMTk1KSI+JiN4YTsJCQk8dGl0bGUgaWQ9InRpdGxlOTMxMzIiPlNoZWV0LjQ5ODE8L3RpdGxlPiYjeGE7CQkJPGcgaWQ9InNoYXBlNDk4Mi04IiB0cmFuc2Zvcm09InRyYW5zbGF0ZSgwLjIzNykiPiYjeGE7CQkJCTx0aXRsZSBpZD0idGl0bGU5MzEzNCI+U2hlZXQuNDk4MjwvdGl0bGU+JiN4YTsJCQkJPHBhdGggaWQ9InBhdGg5MzEzNiIgaW5rc2NhcGU6Y29ubmVjdG9yLWN1cnZhdHVyZT0iMCIgc3R5bGU9ImZpbGw6I0JBMTQxQTsiIGQ9Ik0wLjExLDI1LjE5Yy0wLjA2LDAuNCwwLjI4LDAuOCwxLjAyLDEuMTEgICAgICBsMTUuMjQsNi4yNGMxLjM3LDAuNTYsMy42LDAuNTYsNC45NywwbDE1LjI0LTYuMjRjMC43NC0wLjMxLDEuMDgtMC43MSwxLjAyLTEuMTF2LTMuNThjMC4wNSwwLjM5LTAuMjksMC43OS0xLjAyLDEuMDkgICAgICBsLTE1LjI0LDYuMjRjLTEuMzcsMC41Ni0zLjYsMC41Ni00Ljk3LDBMMS4xMywyMi43Yy0wLjgtMC4zMy0xLjEzLTAuNzgtMS0xLjJMMC4xMSwyNS4xOXoiLz4mI3hhOwkJCTwvZz4mI3hhOwkJCTxnIGlkPSJzaGFwZTQ5ODMtMTAiIHRyYW5zZm9ybT0idHJhbnNsYXRlKDAsLTMuNikiPiYjeGE7CQkJCTx0aXRsZSBpZD0idGl0bGU5MzEzOSI+U2hlZXQuNDk4MzwvdGl0bGU+JiN4YTsJCQkJPHBhdGggaWQ9InBhdGg5MzE0MSIgaW5rc2NhcGU6Y29ubmVjdG9yLWN1cnZhdHVyZT0iMCIgc3R5bGU9ImZpbGw6I0JBMTQxQTsiIGQ9Ik0zNi44MSwyNC4yNmMxLjM4LDAuNTcsMS4zOCwxLjQ4LDAsMi4wNCAgICAgIGwtMTUuMjMsNi4yNGMtMS4zNywwLjU2LTMuNiwwLjU2LTQuOTcsMEwxLjM3LDI2LjNDMCwyNS43NCwwLDI0LjgyLDEuMzcsMjQuMjZsMTUuMjQtNi4yNGMxLjM3LTAuNTYsMy42LTAuNTYsNC45NywwICAgICAgTDM2LjgxLDI0LjI2eiIvPiYjeGE7CQkJPC9nPiYjeGE7CQk8L2c+JiN4YTsJCTxnIGlkPSJncm91cDQ5ODQtMTIiPiYjeGE7CQkJPHRpdGxlIGlkPSJ0aXRsZTkzMTQ1Ij5TaGVldC40OTg0PC90aXRsZT4mI3hhOwkJCTxnIGlkPSJzaGFwZTQ5ODUtMTMiIHRyYW5zZm9ybT0idHJhbnNsYXRlKDAuMjM3LC0xMi42MzkpIj4mI3hhOwkJCQk8dGl0bGUgaWQ9InRpdGxlOTMxNDciPlNoZWV0LjQ5ODU8L3RpdGxlPiYjeGE7CQkJCTxwYXRoIGlkPSJwYXRoOTMxNDkiIGlua3NjYXBlOmNvbm5lY3Rvci1jdXJ2YXR1cmU9IjAiIHN0eWxlPSJmaWxsOiNCQTE0MUE7IiBkPSJNMC4xMSwyNS4xOWMtMC4wNiwwLjQsMC4yOCwwLjgsMS4wMiwxLjExICAgICAgbDE1LjI0LDYuMjRjMS4zNywwLjU2LDMuNiwwLjU2LDQuOTcsMGwxNS4yNC02LjI0YzAuNzQtMC4zMSwxLjA4LTAuNzEsMS4wMi0xLjExdi0zLjU4YzAuMDUsMC4zOS0wLjI5LDAuNzktMS4wMiwxLjA5ICAgICAgbC0xNS4yNCw2LjI0Yy0xLjM3LDAuNTYtMy42LDAuNTYtNC45NywwTDEuMTMsMjIuN2MtMC44LTAuMzMtMS4xMy0wLjc4LTEtMS4yTDAuMTEsMjUuMTl6Ii8+JiN4YTsJCQk8L2c+JiN4YTsJCQk8ZyBpZD0ic2hhcGU0OTg2LTE1IiB0cmFuc2Zvcm09InRyYW5zbGF0ZSgwLjIzNykiPiYjeGE7CQkJCTx0aXRsZSBpZD0idGl0bGU5MzE1MiI+U2hlZXQuNDk4NjwvdGl0bGU+JiN4YTsJCQkJPHBhdGggaWQ9InBhdGg5MzE1NCIgaW5rc2NhcGU6Y29ubmVjdG9yLWN1cnZhdHVyZT0iMCIgc3R5bGU9ImZpbGw6IzFFMUUxRTtmaWxsLW9wYWNpdHk6MC4yNTsiIGQ9Ik0wLjExLDI1LjE5ICAgICAgYy0wLjA2LDAuNCwwLjI4LDAuOCwxLjAyLDEuMTFsMTUuMjQsNi4yNGMxLjM3LDAuNTYsMy42LDAuNTYsNC45NywwbDE1LjI0LTYuMjRjMC43NC0wLjMxLDEuMDgtMC43MSwxLjAyLTEuMTF2LTMuNTggICAgICBjMC4wNSwwLjM5LTAuMjksMC43OS0xLjAyLDEuMDlsLTE1LjI0LDYuMjRjLTEuMzcsMC41Ni0zLjYsMC41Ni00Ljk3LDBMMS4xMywyMi43Yy0wLjgtMC4zMy0xLjEzLTAuNzgtMS0xLjJMMC4xMSwyNS4xOXoiLz4mI3hhOwkJCTwvZz4mI3hhOwkJCTxnIGlkPSJzaGFwZTQ5ODctMTciIHRyYW5zZm9ybT0idHJhbnNsYXRlKDAuMjM3LC02LjMxOTUpIj4mI3hhOwkJCQk8dGl0bGUgaWQ9InRpdGxlOTMxNTciPlNoZWV0LjQ5ODc8L3RpdGxlPiYjeGE7CQkJCTxwYXRoIGlkPSJwYXRoOTMxNTkiIGlua3NjYXBlOmNvbm5lY3Rvci1jdXJ2YXR1cmU9IjAiIHN0eWxlPSJmaWxsOiMxRTFFMUU7ZmlsbC1vcGFjaXR5OjAuMjU7IiBkPSJNMC4xMSwyNS4xOSAgICAgIGMtMC4wNiwwLjQsMC4yOCwwLjgsMS4wMiwxLjExbDE1LjI0LDYuMjRjMS4zNywwLjU2LDMuNiwwLjU2LDQuOTcsMGwxNS4yNC02LjI0YzAuNzQtMC4zMSwxLjA4LTAuNzEsMS4wMi0xLjExdi0zLjU4ICAgICAgYzAuMDUsMC4zOS0wLjI5LDAuNzktMS4wMiwxLjA5bC0xNS4yNCw2LjI0Yy0xLjM3LDAuNTYtMy42LDAuNTYtNC45NywwTDEuMTMsMjIuN2MtMC44LTAuMzMtMS4xMy0wLjc4LTEtMS4yTDAuMTEsMjUuMTl6Ii8+JiN4YTsJCQk8L2c+JiN4YTsJCQk8ZyBpZD0ic2hhcGU0OTg4LTE5IiB0cmFuc2Zvcm09InRyYW5zbGF0ZSgwLjIzNywtMTIuNjM5KSI+JiN4YTsJCQkJPHRpdGxlIGlkPSJ0aXRsZTkzMTYyIj5TaGVldC40OTg4PC90aXRsZT4mI3hhOwkJCQk8cGF0aCBpZD0icGF0aDkzMTY0IiBpbmtzY2FwZTpjb25uZWN0b3ItY3VydmF0dXJlPSIwIiBzdHlsZT0iZmlsbDojMUUxRTFFO2ZpbGwtb3BhY2l0eTowLjI1OyIgZD0iTTAuMTEsMjUuMTkgICAgICBjLTAuMDYsMC40LDAuMjgsMC44LDEuMDIsMS4xMWwxNS4yNCw2LjI0YzEuMzcsMC41NiwzLjYsMC41Niw0Ljk3LDBsMTUuMjQtNi4yNGMwLjc0LTAuMzEsMS4wOC0wLjcxLDEuMDItMS4xMXYtMy41OCAgICAgIGMwLjA1LDAuMzktMC4yOSwwLjc5LTEuMDIsMS4wOWwtMTUuMjQsNi4yNGMtMS4zNywwLjU2LTMuNiwwLjU2LTQuOTcsMEwxLjEzLDIyLjdjLTAuOC0wLjMzLTEuMTMtMC43OC0xLTEuMkwwLjExLDI1LjE5eiIvPiYjeGE7CQkJPC9nPiYjeGE7CQkJPGcgaWQ9InNoYXBlNDk4OS0yMSIgdHJhbnNmb3JtPSJ0cmFuc2xhdGUoMCwtMTYuMjM5KSI+JiN4YTsJCQkJPHRpdGxlIGlkPSJ0aXRsZTkzMTY3Ij5TaGVldC40OTg5PC90aXRsZT4mI3hhOwkJCQk8cGF0aCBpZD0icGF0aDkzMTY5IiBpbmtzY2FwZTpjb25uZWN0b3ItY3VydmF0dXJlPSIwIiBzdHlsZT0iZmlsbDojQkExNDFBOyIgZD0iTTM2LjgxLDI0LjI2YzEuMzgsMC41NywxLjM4LDEuNDgsMCwyLjA0ICAgICAgbC0xNS4yMyw2LjI0Yy0xLjM3LDAuNTYtMy42LDAuNTYtNC45NywwTDEuMzcsMjYuM0MwLDI1Ljc0LDAsMjQuODIsMS4zNywyNC4yNmwxNS4yNC02LjI0YzEuMzctMC41NiwzLjYtMC41Niw0Ljk3LDAgICAgICBMMzYuODEsMjQuMjZ6Ii8+JiN4YTsJCQk8L2c+JiN4YTsJCTwvZz4mI3hhOwkJPGcgaWQ9InNoYXBlNDk5MC0yMyIgdHJhbnNmb3JtPSJ0cmFuc2xhdGUoNi4zNjE1LC0yMi4xMTIzKSI+JiN4YTsJCQk8dGl0bGUgaWQ9InRpdGxlOTMxNzMiPlNoZWV0LjQ5OTA8L3RpdGxlPiYjeGE7CQkJPHBhdGggaWQ9InBhdGg5MzE3NSIgaW5rc2NhcGU6Y29ubmVjdG9yLWN1cnZhdHVyZT0iMCIgc3R5bGU9ImZpbGw6I0ZGRkZGRjsiIGQ9Ik04LjA0LDMyLjMzYy0xLjc0LDAuNzctNC41NiwwLjc3LTYuMywwICAgICBDMCwzMS41NiwwLDMwLjMsMS43NCwyOS41M2MxLjc0LTAuNzcsNC41Ni0wLjc3LDYuMywwQzkuNzcsMzAuMyw5Ljc4LDMxLjU2LDguMDQsMzIuMzN6Ii8+JiN4YTsJCTwvZz4mI3hhOwkJPGcgaWQ9InNoYXBlNDk5MS0yNSIgdHJhbnNmb3JtPSJ0cmFuc2xhdGUoMTMuMjE4LC0xNy45ODgpIj4mI3hhOwkJCTx0aXRsZSBpZD0idGl0bGU5MzE3OCI+U2hlZXQuNDk5MTwvdGl0bGU+JiN4YTsJCQk8cGF0aCBpZD0icGF0aDkzMTgwIiBpbmtzY2FwZTpjb25uZWN0b3ItY3VydmF0dXJlPSIwIiBzdHlsZT0iZmlsbDojRkZGRkZGOyIgZD0iTTAsMzAuMmw4LjkyLTEuMDZMNi41MywzMy4xTDAsMzAuMnoiLz4mI3hhOwkJPC9nPiYjeGE7CQk8ZyBpZD0ic2hhcGU0OTkyLTI3IiB0cmFuc2Zvcm09InRyYW5zbGF0ZSgyMS44NjQsLTIxLjg5MSkiPiYjeGE7CQkJPHRpdGxlIGlkPSJ0aXRsZTkzMTgzIj5TaGVldC40OTkyPC90aXRsZT4mI3hhOwkJCTxwYXRoIGlkPSJwYXRoOTMxODUiIGlua3NjYXBlOmNvbm5lY3Rvci1jdXJ2YXR1cmU9IjAiIHN0eWxlPSJmaWxsOiMxRTFFMUU7ZmlsbC1vcGFjaXR5OjAuMjU7IiBkPSJNNS4zNCwzMy4xTDAsMzAuNzNsNS4zNC0yLjM3ICAgICBsNS4zMywyLjM3TDUuMzQsMzMuMXoiLz4mI3hhOwkJPC9nPiYjeGE7CQk8ZyBpZD0ic2hhcGU0OTkzLTI5IiB0cmFuc2Zvcm09InRyYW5zbGF0ZSgyMS44NjQsLTIxLjg5MSkiPiYjeGE7CQkJPHRpdGxlIGlkPSJ0aXRsZTkzMTg4Ij5TaGVldC40OTkzPC90aXRsZT4mI3hhOwkJCTxwYXRoIGlkPSJwYXRoOTMxOTAiIGlua3NjYXBlOmNvbm5lY3Rvci1jdXJ2YXR1cmU9IjAiIHN0eWxlPSJmaWxsOiMxRTFFMUU7ZmlsbC1vcGFjaXR5OjAuMjU7IiBkPSJNNS4zNCwzMy4xTDAsMzAuNzNsNS4zNC0yLjM3ICAgICBWMzMuMXoiLz4mI3hhOwkJPC9nPiYjeGE7CQk8ZyBpZD0ic2hhcGU0OTk0LTMxIiB0cmFuc2Zvcm09InRyYW5zbGF0ZSgxMy44OTY3LC0yNS42MTU1KSI+JiN4YTsJCQk8dGl0bGUgaWQ9InRpdGxlOTMxOTMiPlNoZWV0LjQ5OTQ8L3RpdGxlPiYjeGE7CQkJPHBhdGggaWQ9InBhdGg5MzE5NSIgaW5rc2NhcGU6Y29ubmVjdG9yLWN1cnZhdHVyZT0iMCIgc3R5bGU9ImZpbGw6I0ZGRkZGRjsiIGQ9Ik0zLjQ4LDMxLjU1TDAsMzEuMjRsMy4wOS0wLjc4bC0wLjQtMS41NyAgICAgbDIuNjIsMS4wN2wzLjI0LTAuNjZsLTEuNDgsMS40NGwyLjQxLDEuMTdsLTMuNTQtMC4xOEw0LjE5LDMzLjFMMy40OCwzMS41NXoiLz4mI3hhOwkJPC9nPiYjeGE7CTwvZz4mI3hhOzwvZz4mI3hhOzwvc3ZnPg==;" parent="1" vertex="1">
          <mxGeometry x="463" y="130" width="38" height="32" as="geometry" />
        </mxCell>
      </root>
    </mxGraphModel>
  </diagram>
  <diagram id="LDreUfMnJmVGkj-JQfcM" name="Page-2">
    <mxGraphModel dx="1601" dy="548" grid="1" gridSize="10" guides="1" tooltips="1" connect="1" arrows="1" fold="1" page="1" pageScale="1" pageWidth="827" pageHeight="1169" math="0" shadow="0">
      <root>
        <mxCell id="BhFgCoEos3Yp7x98W-Is-0" />
        <mxCell id="BhFgCoEos3Yp7x98W-Is-1" parent="BhFgCoEos3Yp7x98W-Is-0" />
        <mxCell id="BhFgCoEos3Yp7x98W-Is-61" value="" style="whiteSpace=wrap;html=1;fillColor=#e1d5e7;strokeColor=#E5CCFF;" vertex="1" parent="BhFgCoEos3Yp7x98W-Is-1">
          <mxGeometry x="350.5" y="494" width="349.5" height="266" as="geometry" />
        </mxCell>
        <mxCell id="BhFgCoEos3Yp7x98W-Is-56" value="" style="whiteSpace=wrap;html=1;dashed=1;fillColor=none;" vertex="1" parent="BhFgCoEos3Yp7x98W-Is-1">
          <mxGeometry x="484.5" y="665.3" width="180" height="60" as="geometry" />
        </mxCell>
        <mxCell id="BhFgCoEos3Yp7x98W-Is-2" value="" style="aspect=fixed;perimeter=ellipsePerimeter;html=1;align=center;shadow=0;dashed=0;spacingTop=3;image;image=img/lib/active_directory/internet_cloud.svg;fontSize=10;fillColor=none;" vertex="1" parent="BhFgCoEos3Yp7x98W-Is-1">
          <mxGeometry x="-50" y="71" width="122.06" height="76.9" as="geometry" />
        </mxCell>
        <mxCell id="BhFgCoEos3Yp7x98W-Is-3" value="" style="whiteSpace=wrap;html=1;fillColor=none;dashed=1;" vertex="1" parent="BhFgCoEos3Yp7x98W-Is-1">
          <mxGeometry x="530" y="50" width="261" height="150" as="geometry" />
        </mxCell>
        <mxCell id="BhFgCoEos3Yp7x98W-Is-4" value="" style="whiteSpace=wrap;html=1;dashed=1;fillColor=none;" vertex="1" parent="BhFgCoEos3Yp7x98W-Is-1">
          <mxGeometry x="600" y="60" width="160" height="130" as="geometry" />
        </mxCell>
        <mxCell id="BhFgCoEos3Yp7x98W-Is-5" value="" style="whiteSpace=wrap;html=1;fillColor=none;dashed=1;" vertex="1" parent="BhFgCoEos3Yp7x98W-Is-1">
          <mxGeometry x="170" y="50" width="360" height="150" as="geometry" />
        </mxCell>
        <mxCell id="BhFgCoEos3Yp7x98W-Is-6" style="edgeStyle=orthogonalEdgeStyle;rounded=0;orthogonalLoop=1;jettySize=auto;html=1;entryX=0.125;entryY=0.572;entryDx=0;entryDy=0;entryPerimeter=0;startArrow=none;" edge="1" parent="BhFgCoEos3Yp7x98W-Is-1" source="BhFgCoEos3Yp7x98W-Is-30" target="BhFgCoEos3Yp7x98W-Is-15">
          <mxGeometry relative="1" as="geometry" />
        </mxCell>
        <mxCell id="BhFgCoEos3Yp7x98W-Is-7" value="" style="shape=image;verticalLabelPosition=bottom;labelBackgroundColor=#ffffff;verticalAlign=top;aspect=fixed;imageAspect=0;image=data:image/svg+xml,PHN2ZyB4bWxuczpjYz0iaHR0cDovL2NyZWF0aXZlY29tbW9ucy5vcmcvbnMjIiB4bWxuczpkYz0iaHR0cDovL3B1cmwub3JnL2RjL2VsZW1lbnRzLzEuMS8iIHhtbG5zOmlua3NjYXBlPSJodHRwOi8vd3d3Lmlua3NjYXBlLm9yZy9uYW1lc3BhY2VzL2lua3NjYXBlIiB4bWxuczpyZGY9Imh0dHA6Ly93d3cudzMub3JnLzE5OTkvMDIvMjItcmRmLXN5bnRheC1ucyMiIHhtbG5zOnNvZGlwb2RpPSJodHRwOi8vc29kaXBvZGkuc291cmNlZm9yZ2UubmV0L0RURC9zb2RpcG9kaS0wLmR0ZCIgeG1sbnM6c3ZnPSJodHRwOi8vd3d3LnczLm9yZy8yMDAwL3N2ZyIgeG1sbnM9Imh0dHA6Ly93d3cudzMub3JnLzIwMDAvc3ZnIiB4bWxuczp4bGluaz0iaHR0cDovL3d3dy53My5vcmcvMTk5OS94bGluayIgdmVyc2lvbj0iMS4xIiBpZD0ic3ZnMjMwMzIiIHg9IjBweCIgeT0iMHB4IiB2aWV3Qm94PSIwIDAgMzkuNjIgMjciIHN0eWxlPSJlbmFibGUtYmFja2dyb3VuZDpuZXcgMCAwIDM5LjYyIDI3OyIgeG1sOnNwYWNlPSJwcmVzZXJ2ZSI+JiN4YTs8c29kaXBvZGk6bmFtZWR2aWV3IGJvcmRlcmNvbG9yPSIjNjY2NjY2IiBib3JkZXJvcGFjaXR5PSIxIiBmaXQtbWFyZ2luLWJvdHRvbT0iMCIgZml0LW1hcmdpbi1sZWZ0PSIwIiBmaXQtbWFyZ2luLXJpZ2h0PSIwIiBmaXQtbWFyZ2luLXRvcD0iMCIgZ3JpZHRvbGVyYW5jZT0iMTAiIGd1aWRldG9sZXJhbmNlPSIxMCIgaWQ9Im5hbWVkdmlldzIzMDM0IiBpbmtzY2FwZTpjdXJyZW50LWxheWVyPSJzdmcyMzAzMiIgaW5rc2NhcGU6Y3g9IjIyLjcyMjYzOSIgaW5rc2NhcGU6Y3k9IjE0LjMyNzAwNiIgaW5rc2NhcGU6cGFnZW9wYWNpdHk9IjAiIGlua3NjYXBlOnBhZ2VzaGFkb3c9IjIiIGlua3NjYXBlOndpbmRvdy1oZWlnaHQ9IjEwMTciIGlua3NjYXBlOndpbmRvdy1tYXhpbWl6ZWQ9IjEiIGlua3NjYXBlOndpbmRvdy13aWR0aD0iMTkyMCIgaW5rc2NhcGU6d2luZG93LXg9Ii04IiBpbmtzY2FwZTp3aW5kb3cteT0iLTgiIGlua3NjYXBlOnpvb209IjE2LjEzMzIxNCIgb2JqZWN0dG9sZXJhbmNlPSIxMCIgcGFnZWNvbG9yPSIjZmZmZmZmIiBzaG93Z3JpZD0iZmFsc2UiPiYjeGE7CTwvc29kaXBvZGk6bmFtZWR2aWV3PiYjeGE7PGcgaWQ9ImcyMzAzMCIgdHJhbnNmb3JtPSJ0cmFuc2xhdGUoMC4zMTA2MzExMSwtMC43NSkiPiYjeGE7CTx0aXRsZSBpZD0idGl0bGUyMjk5NyI+UGFnZS0xPC90aXRsZT4mI3hhOwk8ZyBpZD0iZ3JvdXAxODEyLTEiIHRyYW5zZm9ybT0idHJhbnNsYXRlKDEuNSwtMS41KSI+JiN4YTsJCTx0aXRsZSBpZD0idGl0bGUyMjk5OSI+QXBwbGljYXRpb248L3RpdGxlPiYjeGE7CQk8ZyBpZD0ic2hhcGUxODEzLTIiIHRyYW5zZm9ybT0idHJhbnNsYXRlKDIuMjUsLTIuMjUpIj4mI3hhOwkJCTx0aXRsZSBpZD0idGl0bGUyMzAwMSI+cGF0aDM4MjIuMjc1OTY8L3RpdGxlPiYjeGE7CQkJJiN4YTsJCQkJPHBhdGggaWQ9InBhdGgyMzAwMyIgaW5rc2NhcGU6Y29ubmVjdG9yLWN1cnZhdHVyZT0iMCIgc3R5bGU9ImZpbGwtcnVsZTpldmVub2RkO2NsaXAtcnVsZTpldmVub2RkO2ZpbGw6I0ZGRkZGRjtzdHJva2U6IzY3NzQ4NztzdHJva2Utd2lkdGg6MS41O3N0cm9rZS1taXRlcmxpbWl0OjM7IiBkPSIgICAgIE0zMCw1LjI1SDEuNUMwLjY3LDUuMjUsMCw1LjkyLDAsNi43NVYyOC41aDMxLjVWNi43NUMzMS41LDUuOTIsMzAuODMsNS4yNSwzMCw1LjI1eiIvPiYjeGE7CQk8L2c+JiN4YTsJCTxnIGlkPSJzaGFwZTE4MTQtNCI+JiN4YTsJCQk8dGl0bGUgaWQ9InRpdGxlMjMwMDYiPnBvbHlnb24zODI0LjI3NTk3PC90aXRsZT4mI3hhOwkJCSYjeGE7CQkJCTxwYXRoIGlkPSJwYXRoMjMwMDgiIGlua3NjYXBlOmNvbm5lY3Rvci1jdXJ2YXR1cmU9IjAiIHN0eWxlPSJmaWxsLXJ1bGU6ZXZlbm9kZDtjbGlwLXJ1bGU6ZXZlbm9kZDtmaWxsOiNGRkZGRkY7c3Ryb2tlOiM2Nzc0ODc7c3Ryb2tlLXdpZHRoOjEuNTtzdHJva2UtbWl0ZXJsaW1pdDozOyIgZD0iICAgICBNMzMsMjUuNWwzLDNIMGwzLTNIMzN6Ii8+JiN4YTsJCTwvZz4mI3hhOwkJPGcgaWQ9Imdyb3VwMTgxNS02IiB0cmFuc2Zvcm09InRyYW5zbGF0ZSgxMC4zOTksLTUuMjUpIj4mI3hhOwkJCTx0aXRsZSBpZD0idGl0bGUyMzAxMSI+ZzM4MzIuMjc1OTg8L3RpdGxlPiYjeGE7CQkJPGcgaWQ9InNoYXBlMTgxNi03IiB0cmFuc2Zvcm09InRyYW5zbGF0ZSgwLC04Ljk5MjUpIj4mI3hhOwkJCQk8dGl0bGUgaWQ9InRpdGxlMjMwMTMiPnBvbHlnb24zODI2PC90aXRsZT4mI3hhOwkJCQk8cGF0aCBpZD0icGF0aDIzMDE1IiBpbmtzY2FwZTpjb25uZWN0b3ItY3VydmF0dXJlPSIwIiBzdHlsZT0iZmlsbC1ydWxlOmV2ZW5vZGQ7Y2xpcC1ydWxlOmV2ZW5vZGQ7ZmlsbDojMkJDN0Y0OyIgZD0iICAgICAgTTcuMTIsMjEuMzZMMCwyNC43NGw3LjEyLDMuNzZsNy4xMy0zLjc2TDcuMTIsMjEuMzZ6Ii8+JiN4YTsJCQk8L2c+JiN4YTsJCQk8ZyBpZD0ic2hhcGUxODE3LTkiPiYjeGE7CQkJCTx0aXRsZSBpZD0idGl0bGUyMzAxOCI+cG9seWdvbjM4Mjg8L3RpdGxlPiYjeGE7CQkJCTxwYXRoIGlkPSJwYXRoMjMwMjAiIGlua3NjYXBlOmNvbm5lY3Rvci1jdXJ2YXR1cmU9IjAiIHN0eWxlPSJmaWxsLXJ1bGU6ZXZlbm9kZDtjbGlwLXJ1bGU6ZXZlbm9kZDtmaWxsOiMyQkM3RjQ7IiBkPSJNMCwyNC42NCAgICAgIGw2Ljc1LDMuODZ2LTguMjdMMCwxNi41NlYyNC42NHoiLz4mI3hhOwkJCTwvZz4mI3hhOwkJCTxnIGlkPSJzaGFwZTE4MTgtMTEiIHRyYW5zZm9ybT0idHJhbnNsYXRlKDcuNSkiPiYjeGE7CQkJCTx0aXRsZSBpZD0idGl0bGUyMzAyMyI+cG9seWdvbjM4MzA8L3RpdGxlPiYjeGE7CQkJCTxwYXRoIGlkPSJwYXRoMjMwMjUiIGlua3NjYXBlOmNvbm5lY3Rvci1jdXJ2YXR1cmU9IjAiIHN0eWxlPSJmaWxsLXJ1bGU6ZXZlbm9kZDtjbGlwLXJ1bGU6ZXZlbm9kZDtmaWxsOiMyQkM3RjQ7IiBkPSIgICAgICBNNi43NSwyNC42NEwwLDI4LjV2LTguMjdsNi43NS0zLjY3VjI0LjY0eiIvPiYjeGE7CQkJPC9nPiYjeGE7CQk8L2c+JiN4YTsJPC9nPiYjeGE7PC9nPiYjeGE7PC9zdmc+;" vertex="1" parent="BhFgCoEos3Yp7x98W-Is-1">
          <mxGeometry x="-14.450000000000003" y="93.29999999999998" width="44.45" height="30" as="geometry" />
        </mxCell>
        <mxCell id="BhFgCoEos3Yp7x98W-Is-8" style="edgeStyle=orthogonalEdgeStyle;rounded=0;orthogonalLoop=1;jettySize=auto;html=1;entryX=0;entryY=0.5;entryDx=0;entryDy=0;" edge="1" parent="BhFgCoEos3Yp7x98W-Is-1" source="BhFgCoEos3Yp7x98W-Is-9" target="BhFgCoEos3Yp7x98W-Is-22">
          <mxGeometry relative="1" as="geometry" />
        </mxCell>
        <mxCell id="BhFgCoEos3Yp7x98W-Is-9" value="" style="shape=image;verticalLabelPosition=bottom;labelBackgroundColor=#ffffff;verticalAlign=top;aspect=fixed;imageAspect=0;image=data:image/svg+xml,PHN2ZyB4bWxuczpjYz0iaHR0cDovL2NyZWF0aXZlY29tbW9ucy5vcmcvbnMjIiB4bWxuczpkYz0iaHR0cDovL3B1cmwub3JnL2RjL2VsZW1lbnRzLzEuMS8iIHhtbG5zOmlua3NjYXBlPSJodHRwOi8vd3d3Lmlua3NjYXBlLm9yZy9uYW1lc3BhY2VzL2lua3NjYXBlIiB4bWxuczpyZGY9Imh0dHA6Ly93d3cudzMub3JnLzE5OTkvMDIvMjItcmRmLXN5bnRheC1ucyMiIHhtbG5zOnNvZGlwb2RpPSJodHRwOi8vc29kaXBvZGkuc291cmNlZm9yZ2UubmV0L0RURC9zb2RpcG9kaS0wLmR0ZCIgeG1sbnM6c3ZnPSJodHRwOi8vd3d3LnczLm9yZy8yMDAwL3N2ZyIgeG1sbnM9Imh0dHA6Ly93d3cudzMub3JnLzIwMDAvc3ZnIiB4bWxuczp4bGluaz0iaHR0cDovL3d3dy53My5vcmcvMTk5OS94bGluayIgdmVyc2lvbj0iMS4xIiBpZD0ic3ZnNTk4ODkiIGlua3NjYXBlOnZlcnNpb249IjAuOTIuMyAoMjQwNTU0NiwgMjAxOC0wMy0xMSkiIHNvZGlwb2RpOmRvY25hbWU9ImF6dXJlX3BvcnRhbF9hcGlfbWFuYWdlbWVudF9zZXJ2aWNlcy5zdmciIHg9IjBweCIgeT0iMHB4IiB2aWV3Qm94PSIwIDAgMzAuOTcgMjUuNDEiIHN0eWxlPSJlbmFibGUtYmFja2dyb3VuZDpuZXcgMCAwIDMwLjk3IDI1LjQxOyIgeG1sOnNwYWNlPSJwcmVzZXJ2ZSI+JiN4YTs8c29kaXBvZGk6bmFtZWR2aWV3IGJvcmRlcmNvbG9yPSIjNjY2NjY2IiBib3JkZXJvcGFjaXR5PSIxIiBmaXQtbWFyZ2luLWJvdHRvbT0iMCIgZml0LW1hcmdpbi1sZWZ0PSIwIiBmaXQtbWFyZ2luLXJpZ2h0PSIwIiBmaXQtbWFyZ2luLXRvcD0iMCIgZ3JpZHRvbGVyYW5jZT0iMTAiIGd1aWRldG9sZXJhbmNlPSIxMCIgaWQ9Im5hbWVkdmlldzU5ODkxIiBpbmtzY2FwZTpjdXJyZW50LWxheWVyPSJzdmc1OTg4OSIgaW5rc2NhcGU6Y3g9IjI5LjQ3MTgyNyIgaW5rc2NhcGU6Y3k9IjE2LjEyMDc3NSIgaW5rc2NhcGU6cGFnZW9wYWNpdHk9IjAiIGlua3NjYXBlOnBhZ2VzaGFkb3c9IjIiIGlua3NjYXBlOndpbmRvdy1oZWlnaHQ9IjEwMTciIGlua3NjYXBlOndpbmRvdy1tYXhpbWl6ZWQ9IjEiIGlua3NjYXBlOndpbmRvdy13aWR0aD0iMTkyMCIgaW5rc2NhcGU6d2luZG93LXg9Ii04IiBpbmtzY2FwZTp3aW5kb3cteT0iLTgiIGlua3NjYXBlOnpvb209IjE4LjA5MzIyNiIgb2JqZWN0dG9sZXJhbmNlPSIxMCIgcGFnZWNvbG9yPSIjZmZmZmZmIiBzaG93Z3JpZD0iZmFsc2UiPiYjeGE7CTwvc29kaXBvZGk6bmFtZWR2aWV3PiYjeGE7PGcgaWQ9Imc1OTg4NyI+JiN4YTsJPHRpdGxlIGlkPSJ0aXRsZTU5ODcyIj5QYWdlLTE8L3RpdGxlPiYjeGE7CTxnIGlkPSJncm91cDQ0MzMtMSI+JiN4YTsJCTx0aXRsZSBpZD0idGl0bGU1OTg3NCI+QXp1cmUgUG9ydGFsIC0gQVBJIE1hbmFnZW1lbnQgU2VydmljZXM8L3RpdGxlPiYjeGE7CQk8ZyBpZD0ic2hhcGU0NDM0LTIiPiYjeGE7CQkJPHRpdGxlIGlkPSJ0aXRsZTU5ODc2Ij5BUEkgTWFuYWdlbWVudDwvdGl0bGU+JiN4YTsJCQk8cGF0aCBpZD0icGF0aDU5ODc4IiBpbmtzY2FwZTpjb25uZWN0b3ItY3VydmF0dXJlPSIwIiBzdHlsZT0iZmlsbDojNTlCNEQ5OyIgZD0iTTI3LjExLDEwLjY1YzAuMS0wLjM5LDAuMS0wLjU4LDAuMS0xLjE1ICAgICBjMC01LjM4LTQuNDQtOS41LTkuODUtOS41Yy0zLjg1LDAtNy40MywyLjAxLTguODcsNS41N2MtMC40OSwwLTAuODYtMC4yLTEuNDUtMC4yYy0zLjg2LDAtNy4wNCwzLjA3LTcuMDQsNyAgICAgYzAsMy44NCwzLjE4LDYuOSw3LjA0LDYuOWgzLjU4YzAuMDksMC40OSwwLjM3LDAuOTgsMC44NiwxLjM1YzEuMjYsMS4zNSwzLjM4LDEuMjUsNC42MywwczEuMjUtMy4zNiwwLTQuNiAgICAgYy0xLjI1LTEuMzQtMy4zNy0xLjM0LTQuNjMsMGMtMC4yOSwwLjI4LTAuNDksMC44Ny0wLjY3LDEuMjRsLTMuNjcsMC4xYy0yLjcsMC00LjkyLTIuMi00LjkyLTQuOTljMC0yLjc4LDIuMTItNC45OCw0LjkyLTQuOTggICAgIGMwLjQ5LDAsMS4wNiwwLjA5LDEuNjUsMC4xOWwxLjA0LDAuMjlsMC4zLTEuMDVjMS4wNi0zLjE3LDMuOTUtNS4yOCw3LjQzLTUuMjhjNC4yNCwwLDcuNzEsMy40NSw3LjcxLDcuNjcgICAgIGMwLDAuNjgtMC4wOSwxLjM0LTAuMjgsMi4wMWwtMC4zOSwxLjU0bDEuNjMtMC4xOWgwLjNjMS4yNSwwLDIuMjIsMS4wNSwyLjIyLDIuMmMwLDEuMTYtMC44NywyLjAyLTEuOTMsMi4yMWgtNS41ICAgICBjLTAuMi0xLjU0LTAuOTctMi44Ny0yLjAzLTMuOTNjLTEuMzQtMS4zNC0zLjE4LTIuMTEtNS4xMS0yLjExYy0xLjM0LDAtMi43LDAuMzgtMy43NiwxLjA2bDEuMTYsMS44MiAgICAgYzAuODctMC40OSwxLjczLTAuNjgsMi43LTAuNjhjMS4zNSwwLDIuNywwLjQ4LDMuNTcsMS41NGMwLjk2LDAuOTYsMS41NCwyLjIxLDEuNTQsMy41NGMwLDEuMzUtMC40OCwyLjY5LTEuNTQsMy41NSAgICAgYy0wLjk2LDEuMDYtMi4yMiwxLjU0LTMuNTcsMS41NGMtMC45NywwLTEuOTMtMC4yOS0yLjctMC44N2wtMS4xNiwxLjgzYzEuMTYsMC42NywyLjUsMS4xNCwzLjc2LDEuMTRjMS45MywwLDMuNzctMC42Niw1LjExLTIuMSAgICAgYzEuMTYtMS4xNSwxLjgzLTIuNTksMi4wMy00LjIyYzAuMjksMCw1LjYtMC4wOSw1LjYtMC4wOWgwLjA5YzIuMjMtMC4yLDMuOTYtMi4xMSwzLjk2LTQuNDIgICAgIEMzMC41OCwxMi43NiwyOS4xNCwxMS4wNCwyNy4xMSwxMC42NXoiLz4mI3hhOwkJPC9nPiYjeGE7CQk8ZyBpZD0ic2hhcGU0NDM1LTQiIHRyYW5zZm9ybT0idHJhbnNsYXRlKDEwLjI5ODMsLTMuNTYwNikiPiYjeGE7CQkJPHRpdGxlIGlkPSJ0aXRsZTU5ODgxIj5TaGVldC40NDM1PC90aXRsZT4mI3hhOwkJCTxwYXRoIGlkPSJwYXRoNTk4ODMiIGlua3NjYXBlOmNvbm5lY3Rvci1jdXJ2YXR1cmU9IjAiIHN0eWxlPSJmaWxsOiM2ODIxN0E7IiBkPSJNMCwyMS45NmMwLTEuOTEsMS41NS0zLjQ2LDMuNDUtMy40NiAgICAgYzEuOTMsMCwzLjQ2LDEuNTUsMy40NiwzLjQ2YzAsMS45Mi0xLjUzLDMuNDUtMy40NiwzLjQ1QzEuNTUsMjUuNDEsMCwyMy44OCwwLDIxLjk2eiIvPiYjeGE7CQk8L2c+JiN4YTsJPC9nPiYjeGE7PC9nPiYjeGE7PC9zdmc+;" vertex="1" parent="BhFgCoEos3Yp7x98W-Is-1">
          <mxGeometry x="339.5000000000001" y="92" width="31" height="25" as="geometry" />
        </mxCell>
        <mxCell id="BhFgCoEos3Yp7x98W-Is-10" value="Public Tier" style="text;html=1;resizable=0;autosize=1;align=center;verticalAlign=middle;points=[];fillColor=none;strokeColor=none;rounded=0;dashed=1;" vertex="1" parent="BhFgCoEos3Yp7x98W-Is-1">
          <mxGeometry x="170" y="30" width="70" height="20" as="geometry" />
        </mxCell>
        <mxCell id="BhFgCoEos3Yp7x98W-Is-11" value="Enterprise Tier" style="text;html=1;resizable=0;autosize=1;align=center;verticalAlign=middle;points=[];fillColor=none;strokeColor=none;rounded=0;dashed=1;" vertex="1" parent="BhFgCoEos3Yp7x98W-Is-1">
          <mxGeometry x="560" y="30" width="90" height="20" as="geometry" />
        </mxCell>
        <mxCell id="BhFgCoEos3Yp7x98W-Is-12" value="" style="aspect=fixed;html=1;points=[];align=center;image;fontSize=12;image=img/lib/azure2/containers/Kubernetes_Services.svg;dashed=1;fillColor=none;" vertex="1" parent="BhFgCoEos3Yp7x98W-Is-1">
          <mxGeometry x="610" y="70" width="28.33" height="25" as="geometry" />
        </mxCell>
        <mxCell id="BhFgCoEos3Yp7x98W-Is-13" style="edgeStyle=orthogonalEdgeStyle;rounded=0;orthogonalLoop=1;jettySize=auto;html=1;entryX=0;entryY=0.5;entryDx=0;entryDy=0;" edge="1" parent="BhFgCoEos3Yp7x98W-Is-1" source="BhFgCoEos3Yp7x98W-Is-15" target="BhFgCoEos3Yp7x98W-Is-9">
          <mxGeometry relative="1" as="geometry" />
        </mxCell>
        <mxCell id="BhFgCoEos3Yp7x98W-Is-14" style="edgeStyle=orthogonalEdgeStyle;rounded=0;orthogonalLoop=1;jettySize=auto;html=1;entryX=0.5;entryY=1;entryDx=0;entryDy=0;" edge="1" parent="BhFgCoEos3Yp7x98W-Is-1" source="BhFgCoEos3Yp7x98W-Is-15" target="BhFgCoEos3Yp7x98W-Is-22">
          <mxGeometry relative="1" as="geometry">
            <Array as="points">
              <mxPoint x="280" y="105" />
              <mxPoint x="280" y="160" />
              <mxPoint x="445" y="160" />
            </Array>
          </mxGeometry>
        </mxCell>
        <mxCell id="BhFgCoEos3Yp7x98W-Is-15" value="" style="aspect=fixed;html=1;points=[];align=center;image;fontSize=12;image=img/lib/mscae/Application_Gateway.svg;dashed=1;fillColor=none;" vertex="1" parent="BhFgCoEos3Yp7x98W-Is-1">
          <mxGeometry x="210" y="90" width="30" height="30" as="geometry" />
        </mxCell>
        <mxCell id="BhFgCoEos3Yp7x98W-Is-16" value="" style="html=1;dashed=0;whitespace=wrap;fillColor=#2875E2;strokeColor=#ffffff;points=[[0.005,0.63,0],[0.1,0.2,0],[0.9,0.2,0],[0.5,0,0],[0.995,0.63,0],[0.72,0.99,0],[0.5,1,0],[0.28,0.99,0]];shape=mxgraph.kubernetes.icon;prIcon=api" vertex="1" parent="BhFgCoEos3Yp7x98W-Is-1">
          <mxGeometry x="650" y="80" width="45" height="40" as="geometry" />
        </mxCell>
        <mxCell id="BhFgCoEos3Yp7x98W-Is-17" value="Client" style="text;html=1;resizable=0;autosize=1;align=center;verticalAlign=middle;points=[];fillColor=none;strokeColor=none;rounded=0;dashed=1;" vertex="1" parent="BhFgCoEos3Yp7x98W-Is-1">
          <mxGeometry y="121.29999999999998" width="50" height="20" as="geometry" />
        </mxCell>
        <mxCell id="BhFgCoEos3Yp7x98W-Is-18" value="App Gateway" style="text;html=1;resizable=0;autosize=1;align=center;verticalAlign=middle;points=[];fillColor=none;strokeColor=none;rounded=0;dashed=1;" vertex="1" parent="BhFgCoEos3Yp7x98W-Is-1">
          <mxGeometry x="180" y="122" width="90" height="20" as="geometry" />
        </mxCell>
        <mxCell id="BhFgCoEos3Yp7x98W-Is-19" value="APIM" style="text;html=1;resizable=0;autosize=1;align=center;verticalAlign=middle;points=[];fillColor=none;strokeColor=none;rounded=0;dashed=1;" vertex="1" parent="BhFgCoEos3Yp7x98W-Is-1">
          <mxGeometry x="330" y="117" width="50" height="20" as="geometry" />
        </mxCell>
        <mxCell id="BhFgCoEos3Yp7x98W-Is-20" value="Java (Websocket API)" style="text;html=1;resizable=0;autosize=1;align=center;verticalAlign=middle;points=[];fillColor=none;strokeColor=none;rounded=0;dashed=1;" vertex="1" parent="BhFgCoEos3Yp7x98W-Is-1">
          <mxGeometry x="615" y="122" width="130" height="20" as="geometry" />
        </mxCell>
        <mxCell id="BhFgCoEos3Yp7x98W-Is-21" style="edgeStyle=orthogonalEdgeStyle;rounded=0;orthogonalLoop=1;jettySize=auto;html=1;entryX=0.005;entryY=0.63;entryDx=0;entryDy=0;entryPerimeter=0;" edge="1" parent="BhFgCoEos3Yp7x98W-Is-1" source="BhFgCoEos3Yp7x98W-Is-22" target="BhFgCoEos3Yp7x98W-Is-16">
          <mxGeometry relative="1" as="geometry" />
        </mxCell>
        <mxCell id="BhFgCoEos3Yp7x98W-Is-22" value="" style="whiteSpace=wrap;html=1;dashed=1;fillColor=none;" vertex="1" parent="BhFgCoEos3Yp7x98W-Is-1">
          <mxGeometry x="427.08000000000004" y="92.5" width="35.83" height="25" as="geometry" />
        </mxCell>
        <mxCell id="BhFgCoEos3Yp7x98W-Is-23" value="WSS Auth Gateway" style="text;html=1;resizable=0;autosize=1;align=center;verticalAlign=middle;points=[];fillColor=none;strokeColor=none;rounded=0;dashed=1;" vertex="1" parent="BhFgCoEos3Yp7x98W-Is-1">
          <mxGeometry x="410.00000000000006" y="67" width="120" height="20" as="geometry" />
        </mxCell>
        <mxCell id="BhFgCoEos3Yp7x98W-Is-24" value="https" style="text;html=1;resizable=0;autosize=1;align=center;verticalAlign=middle;points=[];fillColor=none;strokeColor=none;rounded=0;dashed=1;fontSize=10;" vertex="1" parent="BhFgCoEos3Yp7x98W-Is-1">
          <mxGeometry x="289" y="87" width="40" height="20" as="geometry" />
        </mxCell>
        <mxCell id="BhFgCoEos3Yp7x98W-Is-25" value="wss" style="text;html=1;resizable=0;autosize=1;align=center;verticalAlign=middle;points=[];fillColor=none;strokeColor=none;rounded=0;dashed=1;fontSize=10;" vertex="1" parent="BhFgCoEos3Yp7x98W-Is-1">
          <mxGeometry x="331" y="142" width="30" height="20" as="geometry" />
        </mxCell>
        <mxCell id="BhFgCoEos3Yp7x98W-Is-26" value="https" style="text;html=1;resizable=0;autosize=1;align=center;verticalAlign=middle;points=[];fillColor=none;strokeColor=none;rounded=0;dashed=1;fontSize=10;" vertex="1" parent="BhFgCoEos3Yp7x98W-Is-1">
          <mxGeometry x="370" y="89" width="40" height="20" as="geometry" />
        </mxCell>
        <mxCell id="BhFgCoEos3Yp7x98W-Is-27" value="wss" style="text;html=1;resizable=0;autosize=1;align=center;verticalAlign=middle;points=[];fillColor=none;strokeColor=none;rounded=0;dashed=1;fontSize=10;" vertex="1" parent="BhFgCoEos3Yp7x98W-Is-1">
          <mxGeometry x="535" y="87" width="30" height="20" as="geometry" />
        </mxCell>
        <mxCell id="BhFgCoEos3Yp7x98W-Is-28" value="https + wss" style="text;html=1;resizable=0;autosize=1;align=center;verticalAlign=middle;points=[];fillColor=none;strokeColor=none;rounded=0;dashed=1;fontSize=10;" vertex="1" parent="BhFgCoEos3Yp7x98W-Is-1">
          <mxGeometry x="134.45" y="87" width="70" height="20" as="geometry" />
        </mxCell>
        <mxCell id="BhFgCoEos3Yp7x98W-Is-29" value="Internet" style="text;html=1;resizable=0;autosize=1;align=center;verticalAlign=middle;points=[];fillColor=none;strokeColor=none;rounded=0;dashed=1;" vertex="1" parent="BhFgCoEos3Yp7x98W-Is-1">
          <mxGeometry x="-45" y="60" width="60" height="20" as="geometry" />
        </mxCell>
        <mxCell id="BhFgCoEos3Yp7x98W-Is-30" value="" style="aspect=fixed;html=1;points=[];align=center;image;fontSize=12;image=img/lib/azure2/networking/Public_IP_Addresses.svg;dashed=1;fillColor=none;" vertex="1" parent="BhFgCoEos3Yp7x98W-Is-1">
          <mxGeometry x="90" y="97" width="25" height="20" as="geometry" />
        </mxCell>
        <mxCell id="BhFgCoEos3Yp7x98W-Is-31" value="" style="edgeStyle=orthogonalEdgeStyle;rounded=0;orthogonalLoop=1;jettySize=auto;html=1;entryX=0.125;entryY=0.572;entryDx=0;entryDy=0;entryPerimeter=0;endArrow=none;" edge="1" parent="BhFgCoEos3Yp7x98W-Is-1" source="BhFgCoEos3Yp7x98W-Is-7" target="BhFgCoEos3Yp7x98W-Is-30">
          <mxGeometry relative="1" as="geometry">
            <mxPoint x="30.000000000000455" y="106.33333333333337" as="sourcePoint" />
            <mxPoint x="213.75" y="107.15999999999997" as="targetPoint" />
          </mxGeometry>
        </mxCell>
        <mxCell id="BhFgCoEos3Yp7x98W-Is-32" value="Public IP" style="text;html=1;resizable=0;autosize=1;align=center;verticalAlign=middle;points=[];fillColor=none;strokeColor=none;rounded=0;dashed=1;fontSize=9;" vertex="1" parent="BhFgCoEos3Yp7x98W-Is-1">
          <mxGeometry x="77.5" y="117" width="50" height="20" as="geometry" />
        </mxCell>
        <mxCell id="BhFgCoEos3Yp7x98W-Is-33" value="" style="shape=image;verticalLabelPosition=bottom;labelBackgroundColor=#ffffff;verticalAlign=top;aspect=fixed;imageAspect=0;image=data:image/svg+xml,PHN2ZyB4bWxuczpkYz0iaHR0cDovL3B1cmwub3JnL2RjL2VsZW1lbnRzLzEuMS8iIHhtbG5zOmNjPSJodHRwOi8vY3JlYXRpdmVjb21tb25zLm9yZy9ucyMiIHhtbG5zOnJkZj0iaHR0cDovL3d3dy53My5vcmcvMTk5OS8wMi8yMi1yZGYtc3ludGF4LW5zIyIgeG1sbnM6c3ZnPSJodHRwOi8vd3d3LnczLm9yZy8yMDAwL3N2ZyIgeG1sbnM9Imh0dHA6Ly93d3cudzMub3JnLzIwMDAvc3ZnIiB4bWxuczpzb2RpcG9kaT0iaHR0cDovL3NvZGlwb2RpLnNvdXJjZWZvcmdlLm5ldC9EVEQvc29kaXBvZGktMC5kdGQiIHhtbG5zOmlua3NjYXBlPSJodHRwOi8vd3d3Lmlua3NjYXBlLm9yZy9uYW1lc3BhY2VzL2lua3NjYXBlIiB2ZXJzaW9uPSIxLjEiIGlkPSJzdmc2MTMyMyIgaW5rc2NhcGU6dmVyc2lvbj0iMC45Mi4zICgyNDA1NTQ2LCAyMDE4LTAzLTExKSIgc29kaXBvZGk6ZG9jbmFtZT0iYXp1cmVfcG9ydGFsX3dlYl9hcHBzLnN2ZyIgeD0iMHB4IiB5PSIwcHgiIHZpZXdCb3g9IjAgMCA1MS4wMjkzMTcgNTEuMDIiIHhtbDpzcGFjZT0icHJlc2VydmUiIHdpZHRoPSI1MS4wMjkzMTYiIGhlaWdodD0iNTEuMDIiPjxtZXRhZGF0YSBpZD0ibWV0YWRhdGExMTY1NSI+PHJkZjpSREY+PGNjOldvcmsgcmRmOmFib3V0PSIiPjxkYzpmb3JtYXQ+aW1hZ2Uvc3ZnK3htbDwvZGM6Zm9ybWF0PjxkYzp0eXBlIHJkZjpyZXNvdXJjZT0iaHR0cDovL3B1cmwub3JnL2RjL2RjbWl0eXBlL1N0aWxsSW1hZ2UiLz48ZGM6dGl0bGUvPjwvY2M6V29yaz48L3JkZjpSREY+PC9tZXRhZGF0YT48ZGVmcyBpZD0iZGVmczExNjUzIi8+JiN4YTs8ZmlsdGVyIGlkPSJmaWx0ZXJfMiI+JiN4YTsJPGZlR2F1c3NpYW5CbHVyIGlkPSJmZUdhdXNzaWFuQmx1cjYxMjk2IiBzdGREZXZpYXRpb249IjIiLz4mI3hhOzwvZmlsdGVyPiYjeGE7PHNvZGlwb2RpOm5hbWVkdmlldyBib3JkZXJjb2xvcj0iIzY2NjY2NiIgYm9yZGVyb3BhY2l0eT0iMSIgZml0LW1hcmdpbi1ib3R0b209IjAiIGZpdC1tYXJnaW4tbGVmdD0iMCIgZml0LW1hcmdpbi1yaWdodD0iMCIgZml0LW1hcmdpbi10b3A9IjAiIGdyaWR0b2xlcmFuY2U9IjEwIiBndWlkZXRvbGVyYW5jZT0iMTAiIGlkPSJuYW1lZHZpZXc2MTMyNSIgaW5rc2NhcGU6Y3VycmVudC1sYXllcj0ic3ZnNjEzMjMiIGlua3NjYXBlOmN4PSItNDUuMDA0ODE4IiBpbmtzY2FwZTpjeT0iMzkuNDkwNjM4IiBpbmtzY2FwZTpwYWdlb3BhY2l0eT0iMCIgaW5rc2NhcGU6cGFnZXNoYWRvdz0iMiIgaW5rc2NhcGU6d2luZG93LWhlaWdodD0iMTAxNyIgaW5rc2NhcGU6d2luZG93LW1heGltaXplZD0iMSIgaW5rc2NhcGU6d2luZG93LXdpZHRoPSIxOTIwIiBpbmtzY2FwZTp3aW5kb3cteD0iLTgiIGlua3NjYXBlOndpbmRvdy15PSItOCIgaW5rc2NhcGU6em9vbT0iNC4zMDY1ODM0IiBvYmplY3R0b2xlcmFuY2U9IjEwIiBwYWdlY29sb3I9IiNmZmZmZmYiIHNob3dncmlkPSJmYWxzZSI+JiN4YTsJPC9zb2RpcG9kaTpuYW1lZHZpZXc+JiN4YTsmI3hhOzxwYXRoIGlkPSJwYXRoNjEzMDkiIGlua3NjYXBlOmNvbm5lY3Rvci1jdXJ2YXR1cmU9IjAiIHN0eWxlPSJmaWxsOiM1OWI0ZDkiIGQ9Im0gNDEuMDE0NTI2LDQ1Ljc2IGMgLTQuNjIsMy41MyAtMTAuMDcsNS4yNiAtMTUuNDcsNS4yNiAtNy42OCwwIC0xNS4yNywtMy40NSAtMjAuMjc5OTk5OSwtMTAuMDEgLTguNTcsLTExLjE5IC02LjQ2LC0yNy4xOCA0Ljc0OTk5OTksLTM1Ljc2IDQuNjIsLTMuNTUgMTAuMDgsLTUuMjUgMTUuNDgsLTUuMjUgNy42NywwIDE1LjI2LDMuNDUgMjAuMjgsMTAuMDEgOC41NywxMS4xOCA2LjQzLDI3LjE5IC00Ljc2LDM1Ljc1IHoiLz4mI3hhOyYjeGE7PHBhdGggaWQ9InBhdGg2MTMxNyIgaW5rc2NhcGU6Y29ubmVjdG9yLWN1cnZhdHVyZT0iMCIgc3R5bGU9ImZpbGw6I2ZmZmZmZiIgZD0ibSAzNi4zMzQ1MjYsMjkuOTggYyAxLjg1LDIuNDEgNS4yOSwyLjg1IDcuNywxLjAyIDAuMTIsLTAuMDkgMC4yMiwtMC4yMSAwLjMzLC0wLjMxIDIuNDYsMS43MyA0LjE3LDIuODcgNS4xMywzLjUzIDAuMjgsLTAuNzQgMC40OCwtMS40NSAwLjY4LC0yLjE5IC0xLjAxLC0wLjc2IC0yLjM5LC0xLjgxIC00LjM3LC0zLjQyIDAuNjUsLTEuNzIgMC40NCwtMy43MiAtMC43NSwtNS4yOCAtMS43LC0yLjIxIC00LjcyLC0yLjc3IC03LjA4LC0xLjQxIC0yLjYsLTIuMzMgLTUuNDUsLTUgLTguNDYsLTcuOTkgOS4zNSwtNS4wMyAxNiwtNC4yOSAxNiwtNC4yOSAtMS4xMSwtMS40MiAtMi4zNiwtMi42NiAtMy42OCwtMy43OCAtMy45NSwtMC42MSAtMTAuMDcsLTAuNTQgLTE3LjA3LDMuMTkgbCAtMC4wMSwtMC4wMSB2IDAgYyAtMi4zMywtMi40NCAtNC43MSwtNS4wNiAtNy4xMiwtNy44NyAtMS4xNiwwLjM3IC0yLjI5LDAuODMgLTMuMzgsMS4zOCAxLjc4LDIuOTIgNC4xOCw1Ljg3IDYuODksOC43NCAwLDAuMDEgMC4wMSwwLjAxIDAuMDIsMC4wMiAtMi4yNiwxLjU3IC00Ljc3LDMuNjggLTcuMDksNi4xMyAtMC4zLDAuMzIgLTAuNTgsMC42NCAtMC44NiwwLjk1IC0xLjM4LC0wLjI5IC0yLjg0LC0wLjIgLTQuMTk5OTk5OSwwLjI5IC0yLjMxLC00Ljk4IC0yLjEzLC04Ljk5IC0xLjc2LC0xMS4wNSAtMSwxLjA1IC0xLjk0LDIuMTUgLTIuNzUsMy4zMyAtMC42LDIuNDcgLTAuNzcsNi4wMiAxLjAxLDEwLjMgLTIuMDYsMi43IC0yLjE2LDYuNTIgLTAuMDEsOS4zNSAwLjE4LDAuMjMgMC4zNywwLjQ1IDAuNTcsMC42NSAtMC45NCwzLjIgLTEuMzYsNi4yOSAtMS40OSw4Ljk0IDAuMjQsMC4zMyAwLjI0LDAuNiAwLjQ4LDAuOTIgMS4yMywxLjU3IDIuNzYsMi44OSA0LjI1LDQuMDkgLTAuMTgsLTIuODEgMC4wMSwtNi45NSAxLjc0OTk5OTksLTExLjYxIDEuMiwwLjA5IDIuNDEsLTAuMDkgMy41NSwtMC41NyAwLjY2LDAuNTcgMS4zNCwxLjE1IDIuMDcsMS43NCAyLjUsMS45OCA1LDMuNTMgNy40Myw0Ljc0IC0wLjEyLDEuMjQgMC4xOSwyLjUyIDAuOTksMy41OSAxLjcyLDIuMjIgNC45MSwyLjY0IDcuMTMsMC45NCAwLjQ2LC0wLjM2IDAuODMsLTAuNzggMS4xMywtMS4yNCAzLjk3LDAuODggNy40NCwxLjA0IDEwLjAxLDEuMDQgMC4zOSwwIDIuMjIsLTIuNDkgMy4yNiwtNC4wMyAtMS41NiwwLjMzIC02LjIsMC45NyAtMTIuNTUsLTAuODYgLTAuMTUsLTAuNzEgLTAuNDQsLTEuNCAtMC45MSwtMi4wMiAtMS42MiwtMi4xMSAtNC41NiwtMi41NyAtNi43NiwtMS4xNSAtMi4yLC0xLjIgLTQuNTEsLTIuNyAtNi44OSwtNC41OSAtMC40OCwtMC4zOCAtMC45NSwtMC43NiAtMS4zOSwtMS4xNCAxLjQ1LC0yLjI5IDEuNjEsLTUuMjMgMC4zMiwtNy43IDAuMywtMC4yOSAwLjU4LC0wLjU5IDAuODksLTAuODggMi4zNiwtMi4yIDQuNTgsLTMuOTYgNi42NiwtNS4zOCAtMC4wOSwtMC4wOCAtMC4xNiwtMC4xNiAtMC4yNSwtMC4yNCAwLjA5LDAuMDggMC4xNiwwLjE2IDAuMjUsMC4yNCB2IDAgYyAzLjE4LDIuOTQgNi41Niw1LjczIDkuNzYsOC4yMyAtMC44NSwxLjc5IC0wLjcyLDMuOTggMC41Nyw1LjY2IHoiLz4mI3hhOzwvc3ZnPg==;" vertex="1" parent="BhFgCoEos3Yp7x98W-Is-1">
          <mxGeometry x="428.49" y="89" width="33" height="33" as="geometry" />
        </mxCell>
        <mxCell id="BhFgCoEos3Yp7x98W-Is-34" value="" style="shape=image;verticalLabelPosition=bottom;labelBackgroundColor=#ffffff;verticalAlign=top;aspect=fixed;imageAspect=0;image=data:image/svg+xml,PHN2ZyB4bWxuczpjYz0iaHR0cDovL2NyZWF0aXZlY29tbW9ucy5vcmcvbnMjIiB4bWxuczpkYz0iaHR0cDovL3B1cmwub3JnL2RjL2VsZW1lbnRzLzEuMS8iIHhtbG5zOmlua3NjYXBlPSJodHRwOi8vd3d3Lmlua3NjYXBlLm9yZy9uYW1lc3BhY2VzL2lua3NjYXBlIiB4bWxuczpyZGY9Imh0dHA6Ly93d3cudzMub3JnLzE5OTkvMDIvMjItcmRmLXN5bnRheC1ucyMiIHhtbG5zOnNvZGlwb2RpPSJodHRwOi8vc29kaXBvZGkuc291cmNlZm9yZ2UubmV0L0RURC9zb2RpcG9kaS0wLmR0ZCIgeG1sbnM6c3ZnPSJodHRwOi8vd3d3LnczLm9yZy8yMDAwL3N2ZyIgeG1sbnM9Imh0dHA6Ly93d3cudzMub3JnLzIwMDAvc3ZnIiB4bWxuczp4bGluaz0iaHR0cDovL3d3dy53My5vcmcvMTk5OS94bGluayIgdmVyc2lvbj0iMS4xIiBpZD0ic3ZnOTMyMDEiIGlua3NjYXBlOnZlcnNpb249IjAuOTIuMyAoMjQwNTU0NiwgMjAxOC0wMy0xMSkiIHNvZGlwb2RpOmRvY25hbWU9InJlZGlzX2NhY2hlXzEuc3ZnIiB4PSIwcHgiIHk9IjBweCIgdmlld0JveD0iMCAwIDM3LjUxIDMxLjYiIHN0eWxlPSJlbmFibGUtYmFja2dyb3VuZDpuZXcgMCAwIDM3LjUxIDMxLjY7IiB4bWw6c3BhY2U9InByZXNlcnZlIj4mI3hhOzxzb2RpcG9kaTpuYW1lZHZpZXcgYm9yZGVyY29sb3I9IiM2NjY2NjYiIGJvcmRlcm9wYWNpdHk9IjEiIGZpdC1tYXJnaW4tYm90dG9tPSIwIiBmaXQtbWFyZ2luLWxlZnQ9IjAiIGZpdC1tYXJnaW4tcmlnaHQ9IjAiIGZpdC1tYXJnaW4tdG9wPSIwIiBncmlkdG9sZXJhbmNlPSIxMCIgZ3VpZGV0b2xlcmFuY2U9IjEwIiBpZD0ibmFtZWR2aWV3OTMyMDMiIGlua3NjYXBlOmN1cnJlbnQtbGF5ZXI9InN2ZzkzMjAxIiBpbmtzY2FwZTpjeD0iMzMuNTI0MjM1IiBpbmtzY2FwZTpjeT0iMTkuNzUxMjkxIiBpbmtzY2FwZTpwYWdlb3BhY2l0eT0iMCIgaW5rc2NhcGU6cGFnZXNoYWRvdz0iMiIgaW5rc2NhcGU6d2luZG93LWhlaWdodD0iMTAxNyIgaW5rc2NhcGU6d2luZG93LW1heGltaXplZD0iMSIgaW5rc2NhcGU6d2luZG93LXdpZHRoPSIxOTIwIiBpbmtzY2FwZTp3aW5kb3cteD0iLTgiIGlua3NjYXBlOndpbmRvdy15PSItOCIgaW5rc2NhcGU6em9vbT0iMTMuODg5MzQ4IiBvYmplY3R0b2xlcmFuY2U9IjEwIiBwYWdlY29sb3I9IiNmZmZmZmYiIHNob3dncmlkPSJmYWxzZSI+JiN4YTsJPC9zb2RpcG9kaTpuYW1lZHZpZXc+JiN4YTs8ZyBpZD0iZzkzMTk5IiB0cmFuc2Zvcm09InRyYW5zbGF0ZSgtMC43NDY3NjM4LC0wLjc1MTYyNSkiPiYjeGE7CTx0aXRsZSBpZD0idGl0bGU5MzExNSI+UGFnZS0xPC90aXRsZT4mI3hhOwk8ZyBpZD0iZ3JvdXA0OTc3LTEiIHRyYW5zZm9ybT0idHJhbnNsYXRlKDAuNDA3MjksLTAuNjA5Mzc1KSI+JiN4YTsJCTx0aXRsZSBpZD0idGl0bGU5MzExNyI+UmVkaXMgQ2FjaGUgIzE8L3RpdGxlPiYjeGE7CQk8ZyBpZD0iZ3JvdXA0OTc4LTIiPiYjeGE7CQkJPHRpdGxlIGlkPSJ0aXRsZTkzMTE5Ij5TaGVldC40OTc4PC90aXRsZT4mI3hhOwkJCTxnIGlkPSJzaGFwZTQ5NzktMyIgdHJhbnNmb3JtPSJ0cmFuc2xhdGUoMC4yMzcpIj4mI3hhOwkJCQk8dGl0bGUgaWQ9InRpdGxlOTMxMjEiPlNoZWV0LjQ5Nzk8L3RpdGxlPiYjeGE7CQkJCTxwYXRoIGlkPSJwYXRoOTMxMjMiIGlua3NjYXBlOmNvbm5lY3Rvci1jdXJ2YXR1cmU9IjAiIHN0eWxlPSJmaWxsOiNCQTE0MUE7IiBkPSJNMC4xMSwyNS4xOWMtMC4wNiwwLjQsMC4yOCwwLjgsMS4wMiwxLjExICAgICAgbDE1LjI0LDYuMjRjMS4zNywwLjU2LDMuNiwwLjU2LDQuOTcsMGwxNS4yNC02LjI0YzAuNzQtMC4zMSwxLjA4LTAuNzEsMS4wMi0xLjExdi0zLjU4YzAuMDUsMC4zOS0wLjI5LDAuNzktMS4wMiwxLjA5ICAgICAgbC0xNS4yNCw2LjI0Yy0xLjM3LDAuNTYtMy42LDAuNTYtNC45NywwTDEuMTMsMjIuN2MtMC44LTAuMzMtMS4xMy0wLjc4LTEtMS4yTDAuMTEsMjUuMTl6Ii8+JiN4YTsJCQk8L2c+JiN4YTsJCQk8ZyBpZD0ic2hhcGU0OTgwLTUiIHRyYW5zZm9ybT0idHJhbnNsYXRlKDAsLTMuNikiPiYjeGE7CQkJCTx0aXRsZSBpZD0idGl0bGU5MzEyNiI+U2hlZXQuNDk4MDwvdGl0bGU+JiN4YTsJCQkJPHBhdGggaWQ9InBhdGg5MzEyOCIgaW5rc2NhcGU6Y29ubmVjdG9yLWN1cnZhdHVyZT0iMCIgc3R5bGU9ImZpbGw6I0JBMTQxQTsiIGQ9Ik0zNi44MSwyNC4yNmMxLjM4LDAuNTcsMS4zOCwxLjQ4LDAsMi4wNCAgICAgIGwtMTUuMjMsNi4yNGMtMS4zNywwLjU2LTMuNiwwLjU2LTQuOTcsMEwxLjM3LDI2LjNDMCwyNS43NCwwLDI0LjgyLDEuMzcsMjQuMjZsMTUuMjQtNi4yNGMxLjM3LTAuNTYsMy42LTAuNTYsNC45NywwICAgICAgTDM2LjgxLDI0LjI2eiIvPiYjeGE7CQkJPC9nPiYjeGE7CQk8L2c+JiN4YTsJCTxnIGlkPSJncm91cDQ5ODEtNyIgdHJhbnNmb3JtPSJ0cmFuc2xhdGUoMCwtNi4zMTk1KSI+JiN4YTsJCQk8dGl0bGUgaWQ9InRpdGxlOTMxMzIiPlNoZWV0LjQ5ODE8L3RpdGxlPiYjeGE7CQkJPGcgaWQ9InNoYXBlNDk4Mi04IiB0cmFuc2Zvcm09InRyYW5zbGF0ZSgwLjIzNykiPiYjeGE7CQkJCTx0aXRsZSBpZD0idGl0bGU5MzEzNCI+U2hlZXQuNDk4MjwvdGl0bGU+JiN4YTsJCQkJPHBhdGggaWQ9InBhdGg5MzEzNiIgaW5rc2NhcGU6Y29ubmVjdG9yLWN1cnZhdHVyZT0iMCIgc3R5bGU9ImZpbGw6I0JBMTQxQTsiIGQ9Ik0wLjExLDI1LjE5Yy0wLjA2LDAuNCwwLjI4LDAuOCwxLjAyLDEuMTEgICAgICBsMTUuMjQsNi4yNGMxLjM3LDAuNTYsMy42LDAuNTYsNC45NywwbDE1LjI0LTYuMjRjMC43NC0wLjMxLDEuMDgtMC43MSwxLjAyLTEuMTF2LTMuNThjMC4wNSwwLjM5LTAuMjksMC43OS0xLjAyLDEuMDkgICAgICBsLTE1LjI0LDYuMjRjLTEuMzcsMC41Ni0zLjYsMC41Ni00Ljk3LDBMMS4xMywyMi43Yy0wLjgtMC4zMy0xLjEzLTAuNzgtMS0xLjJMMC4xMSwyNS4xOXoiLz4mI3hhOwkJCTwvZz4mI3hhOwkJCTxnIGlkPSJzaGFwZTQ5ODMtMTAiIHRyYW5zZm9ybT0idHJhbnNsYXRlKDAsLTMuNikiPiYjeGE7CQkJCTx0aXRsZSBpZD0idGl0bGU5MzEzOSI+U2hlZXQuNDk4MzwvdGl0bGU+JiN4YTsJCQkJPHBhdGggaWQ9InBhdGg5MzE0MSIgaW5rc2NhcGU6Y29ubmVjdG9yLWN1cnZhdHVyZT0iMCIgc3R5bGU9ImZpbGw6I0JBMTQxQTsiIGQ9Ik0zNi44MSwyNC4yNmMxLjM4LDAuNTcsMS4zOCwxLjQ4LDAsMi4wNCAgICAgIGwtMTUuMjMsNi4yNGMtMS4zNywwLjU2LTMuNiwwLjU2LTQuOTcsMEwxLjM3LDI2LjNDMCwyNS43NCwwLDI0LjgyLDEuMzcsMjQuMjZsMTUuMjQtNi4yNGMxLjM3LTAuNTYsMy42LTAuNTYsNC45NywwICAgICAgTDM2LjgxLDI0LjI2eiIvPiYjeGE7CQkJPC9nPiYjeGE7CQk8L2c+JiN4YTsJCTxnIGlkPSJncm91cDQ5ODQtMTIiPiYjeGE7CQkJPHRpdGxlIGlkPSJ0aXRsZTkzMTQ1Ij5TaGVldC40OTg0PC90aXRsZT4mI3hhOwkJCTxnIGlkPSJzaGFwZTQ5ODUtMTMiIHRyYW5zZm9ybT0idHJhbnNsYXRlKDAuMjM3LC0xMi42MzkpIj4mI3hhOwkJCQk8dGl0bGUgaWQ9InRpdGxlOTMxNDciPlNoZWV0LjQ5ODU8L3RpdGxlPiYjeGE7CQkJCTxwYXRoIGlkPSJwYXRoOTMxNDkiIGlua3NjYXBlOmNvbm5lY3Rvci1jdXJ2YXR1cmU9IjAiIHN0eWxlPSJmaWxsOiNCQTE0MUE7IiBkPSJNMC4xMSwyNS4xOWMtMC4wNiwwLjQsMC4yOCwwLjgsMS4wMiwxLjExICAgICAgbDE1LjI0LDYuMjRjMS4zNywwLjU2LDMuNiwwLjU2LDQuOTcsMGwxNS4yNC02LjI0YzAuNzQtMC4zMSwxLjA4LTAuNzEsMS4wMi0xLjExdi0zLjU4YzAuMDUsMC4zOS0wLjI5LDAuNzktMS4wMiwxLjA5ICAgICAgbC0xNS4yNCw2LjI0Yy0xLjM3LDAuNTYtMy42LDAuNTYtNC45NywwTDEuMTMsMjIuN2MtMC44LTAuMzMtMS4xMy0wLjc4LTEtMS4yTDAuMTEsMjUuMTl6Ii8+JiN4YTsJCQk8L2c+JiN4YTsJCQk8ZyBpZD0ic2hhcGU0OTg2LTE1IiB0cmFuc2Zvcm09InRyYW5zbGF0ZSgwLjIzNykiPiYjeGE7CQkJCTx0aXRsZSBpZD0idGl0bGU5MzE1MiI+U2hlZXQuNDk4NjwvdGl0bGU+JiN4YTsJCQkJPHBhdGggaWQ9InBhdGg5MzE1NCIgaW5rc2NhcGU6Y29ubmVjdG9yLWN1cnZhdHVyZT0iMCIgc3R5bGU9ImZpbGw6IzFFMUUxRTtmaWxsLW9wYWNpdHk6MC4yNTsiIGQ9Ik0wLjExLDI1LjE5ICAgICAgYy0wLjA2LDAuNCwwLjI4LDAuOCwxLjAyLDEuMTFsMTUuMjQsNi4yNGMxLjM3LDAuNTYsMy42LDAuNTYsNC45NywwbDE1LjI0LTYuMjRjMC43NC0wLjMxLDEuMDgtMC43MSwxLjAyLTEuMTF2LTMuNTggICAgICBjMC4wNSwwLjM5LTAuMjksMC43OS0xLjAyLDEuMDlsLTE1LjI0LDYuMjRjLTEuMzcsMC41Ni0zLjYsMC41Ni00Ljk3LDBMMS4xMywyMi43Yy0wLjgtMC4zMy0xLjEzLTAuNzgtMS0xLjJMMC4xMSwyNS4xOXoiLz4mI3hhOwkJCTwvZz4mI3hhOwkJCTxnIGlkPSJzaGFwZTQ5ODctMTciIHRyYW5zZm9ybT0idHJhbnNsYXRlKDAuMjM3LC02LjMxOTUpIj4mI3hhOwkJCQk8dGl0bGUgaWQ9InRpdGxlOTMxNTciPlNoZWV0LjQ5ODc8L3RpdGxlPiYjeGE7CQkJCTxwYXRoIGlkPSJwYXRoOTMxNTkiIGlua3NjYXBlOmNvbm5lY3Rvci1jdXJ2YXR1cmU9IjAiIHN0eWxlPSJmaWxsOiMxRTFFMUU7ZmlsbC1vcGFjaXR5OjAuMjU7IiBkPSJNMC4xMSwyNS4xOSAgICAgIGMtMC4wNiwwLjQsMC4yOCwwLjgsMS4wMiwxLjExbDE1LjI0LDYuMjRjMS4zNywwLjU2LDMuNiwwLjU2LDQuOTcsMGwxNS4yNC02LjI0YzAuNzQtMC4zMSwxLjA4LTAuNzEsMS4wMi0xLjExdi0zLjU4ICAgICAgYzAuMDUsMC4zOS0wLjI5LDAuNzktMS4wMiwxLjA5bC0xNS4yNCw2LjI0Yy0xLjM3LDAuNTYtMy42LDAuNTYtNC45NywwTDEuMTMsMjIuN2MtMC44LTAuMzMtMS4xMy0wLjc4LTEtMS4yTDAuMTEsMjUuMTl6Ii8+JiN4YTsJCQk8L2c+JiN4YTsJCQk8ZyBpZD0ic2hhcGU0OTg4LTE5IiB0cmFuc2Zvcm09InRyYW5zbGF0ZSgwLjIzNywtMTIuNjM5KSI+JiN4YTsJCQkJPHRpdGxlIGlkPSJ0aXRsZTkzMTYyIj5TaGVldC40OTg4PC90aXRsZT4mI3hhOwkJCQk8cGF0aCBpZD0icGF0aDkzMTY0IiBpbmtzY2FwZTpjb25uZWN0b3ItY3VydmF0dXJlPSIwIiBzdHlsZT0iZmlsbDojMUUxRTFFO2ZpbGwtb3BhY2l0eTowLjI1OyIgZD0iTTAuMTEsMjUuMTkgICAgICBjLTAuMDYsMC40LDAuMjgsMC44LDEuMDIsMS4xMWwxNS4yNCw2LjI0YzEuMzcsMC41NiwzLjYsMC41Niw0Ljk3LDBsMTUuMjQtNi4yNGMwLjc0LTAuMzEsMS4wOC0wLjcxLDEuMDItMS4xMXYtMy41OCAgICAgIGMwLjA1LDAuMzktMC4yOSwwLjc5LTEuMDIsMS4wOWwtMTUuMjQsNi4yNGMtMS4zNywwLjU2LTMuNiwwLjU2LTQuOTcsMEwxLjEzLDIyLjdjLTAuOC0wLjMzLTEuMTMtMC43OC0xLTEuMkwwLjExLDI1LjE5eiIvPiYjeGE7CQkJPC9nPiYjeGE7CQkJPGcgaWQ9InNoYXBlNDk4OS0yMSIgdHJhbnNmb3JtPSJ0cmFuc2xhdGUoMCwtMTYuMjM5KSI+JiN4YTsJCQkJPHRpdGxlIGlkPSJ0aXRsZTkzMTY3Ij5TaGVldC40OTg5PC90aXRsZT4mI3hhOwkJCQk8cGF0aCBpZD0icGF0aDkzMTY5IiBpbmtzY2FwZTpjb25uZWN0b3ItY3VydmF0dXJlPSIwIiBzdHlsZT0iZmlsbDojQkExNDFBOyIgZD0iTTM2LjgxLDI0LjI2YzEuMzgsMC41NywxLjM4LDEuNDgsMCwyLjA0ICAgICAgbC0xNS4yMyw2LjI0Yy0xLjM3LDAuNTYtMy42LDAuNTYtNC45NywwTDEuMzcsMjYuM0MwLDI1Ljc0LDAsMjQuODIsMS4zNywyNC4yNmwxNS4yNC02LjI0YzEuMzctMC41NiwzLjYtMC41Niw0Ljk3LDAgICAgICBMMzYuODEsMjQuMjZ6Ii8+JiN4YTsJCQk8L2c+JiN4YTsJCTwvZz4mI3hhOwkJPGcgaWQ9InNoYXBlNDk5MC0yMyIgdHJhbnNmb3JtPSJ0cmFuc2xhdGUoNi4zNjE1LC0yMi4xMTIzKSI+JiN4YTsJCQk8dGl0bGUgaWQ9InRpdGxlOTMxNzMiPlNoZWV0LjQ5OTA8L3RpdGxlPiYjeGE7CQkJPHBhdGggaWQ9InBhdGg5MzE3NSIgaW5rc2NhcGU6Y29ubmVjdG9yLWN1cnZhdHVyZT0iMCIgc3R5bGU9ImZpbGw6I0ZGRkZGRjsiIGQ9Ik04LjA0LDMyLjMzYy0xLjc0LDAuNzctNC41NiwwLjc3LTYuMywwICAgICBDMCwzMS41NiwwLDMwLjMsMS43NCwyOS41M2MxLjc0LTAuNzcsNC41Ni0wLjc3LDYuMywwQzkuNzcsMzAuMyw5Ljc4LDMxLjU2LDguMDQsMzIuMzN6Ii8+JiN4YTsJCTwvZz4mI3hhOwkJPGcgaWQ9InNoYXBlNDk5MS0yNSIgdHJhbnNmb3JtPSJ0cmFuc2xhdGUoMTMuMjE4LC0xNy45ODgpIj4mI3hhOwkJCTx0aXRsZSBpZD0idGl0bGU5MzE3OCI+U2hlZXQuNDk5MTwvdGl0bGU+JiN4YTsJCQk8cGF0aCBpZD0icGF0aDkzMTgwIiBpbmtzY2FwZTpjb25uZWN0b3ItY3VydmF0dXJlPSIwIiBzdHlsZT0iZmlsbDojRkZGRkZGOyIgZD0iTTAsMzAuMmw4LjkyLTEuMDZMNi41MywzMy4xTDAsMzAuMnoiLz4mI3hhOwkJPC9nPiYjeGE7CQk8ZyBpZD0ic2hhcGU0OTkyLTI3IiB0cmFuc2Zvcm09InRyYW5zbGF0ZSgyMS44NjQsLTIxLjg5MSkiPiYjeGE7CQkJPHRpdGxlIGlkPSJ0aXRsZTkzMTgzIj5TaGVldC40OTkyPC90aXRsZT4mI3hhOwkJCTxwYXRoIGlkPSJwYXRoOTMxODUiIGlua3NjYXBlOmNvbm5lY3Rvci1jdXJ2YXR1cmU9IjAiIHN0eWxlPSJmaWxsOiMxRTFFMUU7ZmlsbC1vcGFjaXR5OjAuMjU7IiBkPSJNNS4zNCwzMy4xTDAsMzAuNzNsNS4zNC0yLjM3ICAgICBsNS4zMywyLjM3TDUuMzQsMzMuMXoiLz4mI3hhOwkJPC9nPiYjeGE7CQk8ZyBpZD0ic2hhcGU0OTkzLTI5IiB0cmFuc2Zvcm09InRyYW5zbGF0ZSgyMS44NjQsLTIxLjg5MSkiPiYjeGE7CQkJPHRpdGxlIGlkPSJ0aXRsZTkzMTg4Ij5TaGVldC40OTkzPC90aXRsZT4mI3hhOwkJCTxwYXRoIGlkPSJwYXRoOTMxOTAiIGlua3NjYXBlOmNvbm5lY3Rvci1jdXJ2YXR1cmU9IjAiIHN0eWxlPSJmaWxsOiMxRTFFMUU7ZmlsbC1vcGFjaXR5OjAuMjU7IiBkPSJNNS4zNCwzMy4xTDAsMzAuNzNsNS4zNC0yLjM3ICAgICBWMzMuMXoiLz4mI3hhOwkJPC9nPiYjeGE7CQk8ZyBpZD0ic2hhcGU0OTk0LTMxIiB0cmFuc2Zvcm09InRyYW5zbGF0ZSgxMy44OTY3LC0yNS42MTU1KSI+JiN4YTsJCQk8dGl0bGUgaWQ9InRpdGxlOTMxOTMiPlNoZWV0LjQ5OTQ8L3RpdGxlPiYjeGE7CQkJPHBhdGggaWQ9InBhdGg5MzE5NSIgaW5rc2NhcGU6Y29ubmVjdG9yLWN1cnZhdHVyZT0iMCIgc3R5bGU9ImZpbGw6I0ZGRkZGRjsiIGQ9Ik0zLjQ4LDMxLjU1TDAsMzEuMjRsMy4wOS0wLjc4bC0wLjQtMS41NyAgICAgbDIuNjIsMS4wN2wzLjI0LTAuNjZsLTEuNDgsMS40NGwyLjQxLDEuMTdsLTMuNTQtMC4xOEw0LjE5LDMzLjFMMy40OCwzMS41NXoiLz4mI3hhOwkJPC9nPiYjeGE7CTwvZz4mI3hhOzwvZz4mI3hhOzwvc3ZnPg==;" vertex="1" parent="BhFgCoEos3Yp7x98W-Is-1">
          <mxGeometry x="463" y="130" width="38" height="32" as="geometry" />
        </mxCell>
        <mxCell id="BhFgCoEos3Yp7x98W-Is-35" value="" style="shape=image;verticalLabelPosition=bottom;labelBackgroundColor=#ffffff;verticalAlign=top;aspect=fixed;imageAspect=0;image=data:image/svg+xml,PHN2ZyB4bWxuczpkYz0iaHR0cDovL3B1cmwub3JnL2RjL2VsZW1lbnRzLzEuMS8iIHhtbG5zOmNjPSJodHRwOi8vY3JlYXRpdmVjb21tb25zLm9yZy9ucyMiIHhtbG5zOnJkZj0iaHR0cDovL3d3dy53My5vcmcvMTk5OS8wMi8yMi1yZGYtc3ludGF4LW5zIyIgeG1sbnM6c3ZnPSJodHRwOi8vd3d3LnczLm9yZy8yMDAwL3N2ZyIgeG1sbnM9Imh0dHA6Ly93d3cudzMub3JnLzIwMDAvc3ZnIiB4bWxuczpzb2RpcG9kaT0iaHR0cDovL3NvZGlwb2RpLnNvdXJjZWZvcmdlLm5ldC9EVEQvc29kaXBvZGktMC5kdGQiIHhtbG5zOmlua3NjYXBlPSJodHRwOi8vd3d3Lmlua3NjYXBlLm9yZy9uYW1lc3BhY2VzL2lua3NjYXBlIiB2ZXJzaW9uPSIxLjEiIGlkPSJzdmc5OTUzMSIgaW5rc2NhcGU6dmVyc2lvbj0iMC45Mi4zICgyNDA1NTQ2LCAyMDE4LTAzLTExKSIgc29kaXBvZGk6ZG9jbmFtZT0idHJhZmZpY19tYW5hZ2VyLnN2ZyIgeD0iMHB4IiB5PSIwcHgiIHZpZXdCb3g9IjAgMCAxMDAuMTEgMTAwLjExIiB4bWw6c3BhY2U9InByZXNlcnZlIiB3aWR0aD0iMTAwLjExIiBoZWlnaHQ9IjEwMC4xMSI+PG1ldGFkYXRhIGlkPSJtZXRhZGF0YTMxOTUiPjxyZGY6UkRGPjxjYzpXb3JrIHJkZjphYm91dD0iIj48ZGM6Zm9ybWF0PmltYWdlL3N2Zyt4bWw8L2RjOmZvcm1hdD48ZGM6dHlwZSByZGY6cmVzb3VyY2U9Imh0dHA6Ly9wdXJsLm9yZy9kYy9kY21pdHlwZS9TdGlsbEltYWdlIi8+PGRjOnRpdGxlLz48L2NjOldvcms+PC9yZGY6UkRGPjwvbWV0YWRhdGE+PGRlZnMgaWQ9ImRlZnMzMTkzIi8+JiN4YTs8ZmlsdGVyIGlkPSJmaWx0ZXJfMiI+JiN4YTsJPGZlR2F1c3NpYW5CbHVyIGlkPSJmZUdhdXNzaWFuQmx1cjk5NDk2IiBzdGREZXZpYXRpb249IjIiLz4mI3hhOzwvZmlsdGVyPiYjeGE7PHNvZGlwb2RpOm5hbWVkdmlldyBib3JkZXJjb2xvcj0iIzY2NjY2NiIgYm9yZGVyb3BhY2l0eT0iMSIgZml0LW1hcmdpbi1ib3R0b209IjAiIGZpdC1tYXJnaW4tbGVmdD0iMCIgZml0LW1hcmdpbi1yaWdodD0iMCIgZml0LW1hcmdpbi10b3A9IjAiIGdyaWR0b2xlcmFuY2U9IjEwIiBndWlkZXRvbGVyYW5jZT0iMTAiIGlkPSJuYW1lZHZpZXc5OTUzMyIgaW5rc2NhcGU6Y3VycmVudC1sYXllcj0ic3ZnOTk1MzEiIGlua3NjYXBlOmN4PSItNjQuMDE2NzIyIiBpbmtzY2FwZTpjeT0iNTAuNjcyNzE2IiBpbmtzY2FwZTpwYWdlb3BhY2l0eT0iMCIgaW5rc2NhcGU6cGFnZXNoYWRvdz0iMiIgaW5rc2NhcGU6d2luZG93LWhlaWdodD0iMTAxNyIgaW5rc2NhcGU6d2luZG93LW1heGltaXplZD0iMSIgaW5rc2NhcGU6d2luZG93LXdpZHRoPSIxOTIwIiBpbmtzY2FwZTp3aW5kb3cteD0iLTgiIGlua3NjYXBlOndpbmRvdy15PSItOCIgaW5rc2NhcGU6em9vbT0iMy42OTA2MTY0IiBvYmplY3R0b2xlcmFuY2U9IjEwIiBwYWdlY29sb3I9IiNmZmZmZmYiIHNob3dncmlkPSJmYWxzZSI+JiN4YTsJPC9zb2RpcG9kaTpuYW1lZHZpZXc+JiN4YTsmI3hhOzxwYXRoIGlkPSJwYXRoOTk1MDkiIGlua3NjYXBlOmNvbm5lY3Rvci1jdXJ2YXR1cmU9IjAiIHN0eWxlPSJmaWxsOiM4MDQ5OTgiIGQ9Ik0gMTAwLjExLDcxLjA3IFYgMjkuMjEgTCA3MC44MSwwIEggMjkuMzUgTCAwLDMwLjA5IHYgNDAuODQgbCAyOS4yOSwyOS4xOCBoIDQxLjUyIHoiLz4mI3hhOyYjeGE7PHBhdGggaWQ9InBhdGg5OTUxNyIgaW5rc2NhcGU6Y29ubmVjdG9yLWN1cnZhdHVyZT0iMCIgc3R5bGU9ImZpbGw6I2ZmZmZmZjtmaWxsLW9wYWNpdHk6MC44IiBkPSJNIDY5LjE0LDQuMDEgSCAzMSBMIDQsMzEuNjkgdiAzNy41NyBsIDI2Ljk1LDI2Ljg1IGggMzguMiBMIDk2LjEsNjkuNCBWIDMwLjg4IFogbSAtMi4yNyw4Ni41NyBoIC0wLjMgTCA0My45OCw2Ny42NiA0OC43NSw2Mi4zMyBIIDMyLjM4IFYgNzkuMTIgTCAzNy43NCw3My4zNSA1NS41LDkwLjU4IEggMzMuMjMgTCA5LjUzLDY2Ljk3IFYgMzMuOTQgTCAxNi4xOCwyNy4xMiAzMy44NSw0My4wNSAyMy43OCw1My41IEggNTUuOTQgViAyMS41NiBMIDQ1LjQzLDMyLjA0IDI3LjY0LDE1LjM3IDMzLjMzLDkuNTMgSCA2Ni44NiBMIDkwLjU3LDMzLjE3IFYgNjIuNjkgTCA3OS4zMiw1Mi4wOSA4Ny41Niw0NC42NyBIIDY0Ljc3IHYgMjEuNTIgbCA3LjQ1LC03LjM5IDEyLjc1LDEzLjg0IHoiLz4mI3hhOyYjeGE7PHBhdGggaWQ9InBhdGg5OTUyNSIgaW5rc2NhcGU6Y29ubmVjdG9yLWN1cnZhdHVyZT0iMCIgc3R5bGU9ImZpbGw6I2ZmZmZmZjtmaWxsLW9wYWNpdHk6MC4yIiBkPSJNIDg1Ljg4LDE1LjAyIDcwLjgxLDAgSCAyOS4zNSBMIDAsMzAuMDkgdiA0MC44NCBsIDE1LjAyLDE0Ljk2IHoiLz4mI3hhOzwvc3ZnPg==;" vertex="1" parent="BhFgCoEos3Yp7x98W-Is-1">
          <mxGeometry x="97.5" y="533.3" width="30" height="30" as="geometry" />
        </mxCell>
        <mxCell id="BhFgCoEos3Yp7x98W-Is-36" value="" style="aspect=fixed;perimeter=ellipsePerimeter;html=1;align=center;shadow=0;dashed=0;spacingTop=3;image;image=img/lib/active_directory/internet_cloud.svg;fontSize=10;fillColor=none;" vertex="1" parent="BhFgCoEos3Yp7x98W-Is-1">
          <mxGeometry x="-82.98" y="511" width="122.06" height="76.9" as="geometry" />
        </mxCell>
        <mxCell id="BhFgCoEos3Yp7x98W-Is-42" style="edgeStyle=orthogonalEdgeStyle;rounded=0;orthogonalLoop=1;jettySize=auto;html=1;dashed=1;" edge="1" parent="BhFgCoEos3Yp7x98W-Is-1" source="BhFgCoEos3Yp7x98W-Is-37" target="BhFgCoEos3Yp7x98W-Is-40">
          <mxGeometry relative="1" as="geometry" />
        </mxCell>
        <mxCell id="BhFgCoEos3Yp7x98W-Is-38" value="Client" style="text;html=1;resizable=0;autosize=1;align=center;verticalAlign=middle;points=[];fillColor=none;strokeColor=none;rounded=0;dashed=1;" vertex="1" parent="BhFgCoEos3Yp7x98W-Is-1">
          <mxGeometry x="-32.980000000000004" y="561.3" width="50" height="20" as="geometry" />
        </mxCell>
        <mxCell id="BhFgCoEos3Yp7x98W-Is-39" value="Internet" style="text;html=1;resizable=0;autosize=1;align=center;verticalAlign=middle;points=[];fillColor=none;strokeColor=none;rounded=0;dashed=1;" vertex="1" parent="BhFgCoEos3Yp7x98W-Is-1">
          <mxGeometry x="-77.98" y="500" width="60" height="20" as="geometry" />
        </mxCell>
        <mxCell id="BhFgCoEos3Yp7x98W-Is-40" value="" style="shape=image;verticalLabelPosition=bottom;labelBackgroundColor=#ffffff;verticalAlign=top;aspect=fixed;imageAspect=0;image=data:image/svg+xml,PHN2ZyB4bWxuczpkYz0iaHR0cDovL3B1cmwub3JnL2RjL2VsZW1lbnRzLzEuMS8iIHhtbG5zOmNjPSJodHRwOi8vY3JlYXRpdmVjb21tb25zLm9yZy9ucyMiIHhtbG5zOnJkZj0iaHR0cDovL3d3dy53My5vcmcvMTk5OS8wMi8yMi1yZGYtc3ludGF4LW5zIyIgeG1sbnM6c3ZnPSJodHRwOi8vd3d3LnczLm9yZy8yMDAwL3N2ZyIgeG1sbnM9Imh0dHA6Ly93d3cudzMub3JnLzIwMDAvc3ZnIiB4bWxuczpzb2RpcG9kaT0iaHR0cDovL3NvZGlwb2RpLnNvdXJjZWZvcmdlLm5ldC9EVEQvc29kaXBvZGktMC5kdGQiIHhtbG5zOmlua3NjYXBlPSJodHRwOi8vd3d3Lmlua3NjYXBlLm9yZy9uYW1lc3BhY2VzL2lua3NjYXBlIiB2ZXJzaW9uPSIxLjEiIGlkPSJzdmc3ODgzMiIgaW5rc2NhcGU6dmVyc2lvbj0iMC45Mi4zICgyNDA1NTQ2LCAyMDE4LTAzLTExKSIgc29kaXBvZGk6ZG9jbmFtZT0iZG5zLnN2ZyIgeD0iMHB4IiB5PSIwcHgiIHZpZXdCb3g9IjAgMCA3Mi4wMDQ5OTUgNzEuOTk5OTk4IiB4bWw6c3BhY2U9InByZXNlcnZlIiB3aWR0aD0iNzIuMDA0OTk3IiBoZWlnaHQ9IjcyIj48bWV0YWRhdGEgaWQ9Im1ldGFkYXRhNjUwIj48cmRmOlJERj48Y2M6V29yayByZGY6YWJvdXQ9IiI+PGRjOmZvcm1hdD5pbWFnZS9zdmcreG1sPC9kYzpmb3JtYXQ+PGRjOnR5cGUgcmRmOnJlc291cmNlPSJodHRwOi8vcHVybC5vcmcvZGMvZGNtaXR5cGUvU3RpbGxJbWFnZSIvPjxkYzp0aXRsZS8+PC9jYzpXb3JrPjwvcmRmOlJERj48L21ldGFkYXRhPjxkZWZzIGlkPSJkZWZzNjQ4Ij4mI3hhOwkmI3hhOyYjeGE7CSYjeGE7JiN4YTsJJiN4YTsmI3hhOwkmI3hhOyYjeGE7CSYjeGE7JiN4YTsJJiN4YTsmI3hhOwkJJiN4YTsJJiN4YTsJCSYjeGE7CSYjeGE7CQkmI3hhOwkmI3hhOwkJJiN4YTsJPC9kZWZzPiYjeGE7PGZpbHRlciBpZD0iZmlsdGVyXzIiPiYjeGE7CTxmZUdhdXNzaWFuQmx1ciBpZD0iZmVHYXVzc2lhbkJsdXI3ODc3MyIgc3RkRGV2aWF0aW9uPSIyIi8+JiN4YTs8L2ZpbHRlcj4mI3hhOzxzb2RpcG9kaTpuYW1lZHZpZXcgYm9yZGVyY29sb3I9IiM2NjY2NjYiIGJvcmRlcm9wYWNpdHk9IjEiIGZpdC1tYXJnaW4tYm90dG9tPSIwIiBmaXQtbWFyZ2luLWxlZnQ9IjAiIGZpdC1tYXJnaW4tcmlnaHQ9IjAiIGZpdC1tYXJnaW4tdG9wPSIwIiBncmlkdG9sZXJhbmNlPSIxMCIgZ3VpZGV0b2xlcmFuY2U9IjEwIiBpZD0ibmFtZWR2aWV3Nzg4MzQiIGlua3NjYXBlOmN1cnJlbnQtbGF5ZXI9InN2Zzc4ODMyIiBpbmtzY2FwZTpjeD0iLTkuNTU1NDkxIiBpbmtzY2FwZTpjeT0iNDEuNDU4NDQ4IiBpbmtzY2FwZTpwYWdlb3BhY2l0eT0iMCIgaW5rc2NhcGU6cGFnZXNoYWRvdz0iMiIgaW5rc2NhcGU6d2luZG93LWhlaWdodD0iMTAxNyIgaW5rc2NhcGU6d2luZG93LW1heGltaXplZD0iMSIgaW5rc2NhcGU6d2luZG93LXdpZHRoPSIxOTIwIiBpbmtzY2FwZTp3aW5kb3cteD0iLTgiIGlua3NjYXBlOndpbmRvdy15PSItOCIgaW5rc2NhcGU6em9vbT0iNS43MTIyNDIyIiBvYmplY3R0b2xlcmFuY2U9IjEwIiBwYWdlY29sb3I9IiNmZmZmZmYiIHNob3dncmlkPSJmYWxzZSI+JiN4YTsJPC9zb2RpcG9kaTpuYW1lZHZpZXc+JiN4YTsmI3hhOzxjaXJjbGUgaWQ9ImVsbGlwc2U3ODc4NiIgc3R5bGU9ImZpbGw6IzAwNzJjNiIgY3g9IjM2LjAwNTAwMSIgY3k9IjM2IiByPSIzNiIvPiYjeGE7JiN4YTs8cGF0aCBpZD0icGF0aDc4Nzk0IiBpbmtzY2FwZTpjb25uZWN0b3ItY3VydmF0dXJlPSIwIiBzdHlsZT0iZmlsbDojZmZmZmZmO2ZpbGwtb3BhY2l0eTowLjIiIGQ9Im0gMTAuNTQ1LDYxLjQ2IGMgLTE0LjA2LC0xNC4wNiAtMTQuMDYsLTM2Ljg1IDAsLTUwLjkxIDE0LjA2LC0xNC4wNiAzNi44NiwtMTQuMDYgNTAuOTIsMCB6Ii8+JiN4YTsmI3hhOzxwYXRoIGlkPSJwYXRoNzg4MDIiIGlua3NjYXBlOmNvbm5lY3Rvci1jdXJ2YXR1cmU9IjAiIHN0eWxlPSJmaWxsOiNmZmZmZmY7ZmlsbC1vcGFjaXR5OjAuOCIgZD0ibSA2OS4xMzUsMzUuOTkgYyAwLC03LjQyIC0yLjUyLC0xNC41NyAtNy4xNiwtMjAuNCBsIC0wLjI2LC0wLjI3IGMgLTAuMTQsLTAuMTMgLTAuMTQsLTAuMjYgLTAuMjcsLTAuMzkgbCAtMi4xMiwtMi4yNiBjIC02LjIzLC02LjM2IC0xNC40NCwtOS44IC0yMy4zMiwtOS44IDAsMCAwLDAgLTAuMTMsMCBoIC0wLjEzIEMgMjYuOTk1LDMgMTguOTE1LDYuMzEgMTIuNjg1LDEyLjU0IGwgLTIuMjUsMi4zOSBjIC0wLjEzLDAuMTMgLTAuMTMsMC4yNiAtMC4yNiwwLjM5IGwgLTAuMjcsMC4xNCBjIC00LjUsNS44MyAtNy4wMiwxMy4xMSAtNy4wMiwyMC41MyAwLDcuNDIgMi41MiwxNC41OCA3LjE1LDIwLjQxIGwgMC4yNywwLjI2IGMgMC4xMywwLjEzIDAuMTMsMC4yNyAwLjI2LDAuNCBsIDIuMTIsMi4yNSBjIDYuMjMsNi4yMyAxNC4zMSw5LjY3IDIzLjA2LDkuNjcgaCAwLjEzIGMgMCwwIDAsMCAwLjEzLDAgOC43NSwwIDE3LjA5LC0zLjQ0IDIzLjMyLC05LjY3IGwgMi4xMiwtMi4zOCBjIDAuMTMsLTAuMTQgMC4xMywtMC4yNyAwLjI3LC0wLjQgbCAwLjI2LC0wLjI3IGMgNC42NCwtNS41NiA3LjE2LC0xMi44NSA3LjE2LC0yMC4yNyB6IE0gNTUuNzQ1LDE0LjQgYyAtMC4xMywwIC0wLjI2LDAuMTMgLTAuMzksMC4xMyAtMC4yNywwLjEzIC0wLjUzLDAuMjYgLTAuNjcsMC4yNiAtMC41MywwLjI3IC0xLjE5LDAuNCAtMS44NSwwLjY3IC0wLjEzLDAgLTAuMjcsMC4xMyAtMC40LDAuMTMgLTAuNzksMC4yNiAtMS40NiwwLjQgLTIuMjUsMC42NiAtMC4xMywwIC0wLjQsMC4xMyAtMC41MywwLjEzIC0xLjE5LC0zLjE4IC0yLjY1LC01Ljk2IC00LjM3LC04LjA4IDMuODQsMS4xOSA3LjQyLDMuMzEgMTAuNDYsNi4xIHogbSAtMjAsLTcuNjkgaCAwLjEzIGMgMy41OCwwIDcuMjksMy44NCA5Ljk0LDEwLjQ3IC0zLjA1LDAuNTMgLTYuMzYsMC43OSAtOS44MSwwLjc5IC0zLjQ0LDAgLTYuODksLTAuMjYgLTEwLjA3LC0wLjc5IDIuNTIsLTYuNDkgNi4yMywtMTAuMzQgOS44MSwtMTAuNDcgeiBtIC05LjQxLDEuNzIgYyAtMS41OSwyLjEyIC0zLjA1LDQuNzcgLTQuMjQsNy45NSAtMC4xMywwIC0wLjEzLDAgLTAuMjYsMCAtMC44LC0wLjI2IC0xLjU5LC0wLjM5IC0yLjI2LC0wLjY2IC0wLjEzLDAgLTAuMjYsLTAuMTMgLTAuMzksLTAuMTMgLTAuNTMsLTAuMjcgLTEuMiwtMC41MyAtMS43MywtMC44IC0wLjI2LC0wLjEzIC0wLjM5LC0wLjEzIC0wLjY2LC0wLjI2IC0wLjEzLC0wLjEzIC0wLjI2LC0wLjEzIC0wLjUzLC0wLjI3IDMuMDUsLTIuNTEgNi4zNiwtNC42MyAxMC4wNywtNS44MyB6IG0gLTEwLjA3LDQ5LjE2IGMgMC4xMywwIDAuMjcsLTAuMTMgMC40LC0wLjEzIDAuMjYsLTAuMTQgMC40LC0wLjE0IDAuNjYsLTAuMjcgMC41MywtMC4yNiAxLjE5LC0wLjQgMS44NiwtMC42NiAwLjEzLDAgMC4yNiwtMC4xMyAwLjM5LC0wLjEzIDAuOCwtMC4yNyAxLjQ2LC0wLjQgMi4yNiwtMC42NyAwLjEzLDAgMC4xMywwIDAuMjYsMCAxLjE5LDMuMDUgMi42NSw1LjgzIDQuMjQsNy45NSAtMy43MSwtMS4zMiAtNy4xNSwtMy40NCAtMTAuMDcsLTYuMDkgeiBtIDE5LjYxLDcuNjggaCAtMC4xMyBjIC0zLjU4LC0wLjEzIC03LjI5LC0zLjg0IC05LjgxLC0xMC4zMyAzLjE4LC0wLjUzIDYuNjMsLTAuOCAxMC4wNywtMC44IDMuNDUsMCA2LjYzLDAuMjcgOS44MSwwLjggLTIuNTIsNi40OSAtNi4zNiwxMC4zMyAtOS45NCwxMC4zMyB6IG0gOS40MSwtMS41OSBjIDEuNzIsLTIuMTIgMy4xOCwtNC45IDQuMzcsLTguMDggMC4xMywwIDAuNCwwLjEzIDAuNTMsMC4xMyAwLjc5LDAuMjcgMS41OSwwLjQgMi4yNSwwLjY3IDAuMTMsMCAwLjI3LDAuMTMgMC40LDAuMTMgMC42NiwwLjI2IDEuMTksMC40IDEuODUsMC42NiAwLjI3LDAuMTMgMC40LDAuMTMgMC42NywwLjI3IDAuMTMsMCAwLjI2LDAuMTMgMC41MywwLjI2IC0zLjE4LDIuNjUgLTYuNzYsNC43NyAtMTAuNiw1Ljk2IHogbSAxMy4zOCwtOS4xNCBjIC0wLjQsMCAtMC42NiwtMC4xMyAtMS4wNiwtMC4yNiAtMC40LC0wLjE0IC0wLjkzLC0wLjQgLTEuMzMsLTAuNTMgLTAuMTMsMCAtMC4yNiwtMC4xNCAtMC4zOSwtMC4xNCAtMS41OSwtMC42NiAtMy4zMiwtMS4wNiAtNS4wNCwtMS41OSAwLjQsLTEuNTkgMC44LC0zLjE4IDEuMDYsLTQuNzcgaCAtMy45NyBjIC0wLjI3LDEuNDYgLTAuNTMsMi43OSAtMC45MywzLjk4IC0zLjQ0LC0wLjY2IC03LjE1LC0wLjkzIC0xMSwtMC45MyAtMy45NywwIC03LjY4LDAuNCAtMTEuMjYsMS4wNiAtMC40LC0xLjMyIC0wLjY2LC0yLjY1IC0wLjkzLC00LjExIGggLTMuOTcgYyAwLjI2LDEuNzMgMC42NiwzLjMyIDEuMDYsNC45MSAtMS41OSwwLjM5IC0zLjE4LDAuOTIgLTQuNjQsMS40NSAtMC4xMywwLjE0IC0wLjQsMC4xNCAtMC41MywwLjI3IC0wLjQsMC4xMyAtMC45MywwLjQgLTEuMzIsMC41MyAtMC4yNywwIC0wLjY3LDAuMTMgLTAuOTMsMC4yNiBDIDkuNTA1LDQ5LjkgNy4yNTUsNDMuOTQgNi44NTUsMzcuODUgaCAzLjMyIHYgLTMuODQgaCAtMy4zMiBjIDAuNCwtNi4xIDIuNjUsLTExLjkzIDYuNSwtMTYuNTcgbCAwLjEzLC0wLjEzIGMgMC4yNiwwLjEzIDAuNjYsMC4yNyAwLjkzLDAuNCAwLjUzLDAuMjYgMC45MiwwLjQgMS40NSwwLjY2IDAuMTQsMCAwLjI3LDAuMTMgMC40LDAuMTMgMS40NiwwLjUzIDMuMDUsMS4wNiA0Ljc3LDEuNDYgLTAuNCwxLjQ2IC0wLjY2LDIuOTIgLTAuOTMsNC4zNyBoIDMuOTggYyAwLjI2LC0xLjE5IDAuNTMsLTIuNTEgMC43OSwtMy41NyAzLjU4LDAuNjYgNy40MiwxLjA2IDExLjI3LDEuMDYgMy44NCwwIDcuNTUsLTAuNCAxMC45OSwtMC45MyAwLjI3LDEuMDYgMC41MywyLjI1IDAuOCwzLjU4IGggMy45NyBjIC0wLjI2LC0xLjQ2IC0wLjUzLC0yLjkyIC0wLjkzLC00LjM4IDEuNzMsLTAuMzkgMy4zMiwtMC45MiA0LjkxLC0xLjU5IDAuMTMsMCAwLjM5LC0wLjEzIDAuNTMsLTAuMTMgMC41MywtMC4xMyAwLjkyLC0wLjQgMS40NSwtMC41MyAwLjI3LC0wLjEzIDAuNjcsLTAuMjYgMC45MywtMC40IDMuODQsNC43NyA2LjIzLDEwLjYgNi42MywxNi43IGggLTMuOTggdiAzLjg0IGggMy45OCBjIC0wLjY3LDUuOTYgLTIuOTIsMTEuOTIgLTYuNzYsMTYuNTYgeiIvPiYjeGE7JiN4YTs8cGF0aCBpZD0icGF0aDc4ODEwIiBpbmtzY2FwZTpjb25uZWN0b3ItY3VydmF0dXJlPSIwIiBzdHlsZT0iZmlsbDojZmZmZmZmIiBkPSJtIDI3LjY4NSwzNS44IGMgMCwxLjU3IC0wLjIxLDIuOTEgLTAuNjIsNC4wMiAtMC40MSwxLjEyIC0xLDIuMDMgLTEuNzYsMi43MyAtMC43NywwLjcxIC0xLjcsMS4yMyAtMi44LDEuNTYgLTEuMSwwLjMzIC0yLjQxLDAuNDkgLTMuOTIsMC40OSBoIC00LjA5IGMgLTAuMjksMCAtMC41NCwtMC4wOCAtMC43MywtMC4yNSAtMC4yLC0wLjE4IC0wLjMsLTAuNDYgLTAuMywtMC44NCBWIDI4LjU5IGMgMCwtMC4zOSAwLjEsLTAuNjcgMC4zLC0wLjg0IDAuMiwtMC4xNyAwLjQ0LC0wLjI2IDAuNzMsLTAuMjYgaCA0LjM5IGMgMS41MywwIDIuODIsMC4xOCAzLjg4LDAuNTQgMS4wNywwLjM1IDEuOTYsMC44OCAyLjY5LDEuNTggMC43MywwLjcxIDEuMjgsMS41NyAxLjY2LDIuNiAwLjM4LDEuMDMgMC41NywyLjIzIDAuNTcsMy41OSB6IG0gLTMuNiwwLjEyIGMgMCwtMC44MiAtMC4wOSwtMS41NyAtMC4yOCwtMi4yNyAtMC4xOSwtMC42OSAtMC41LC0xLjMgLTAuOTIsLTEuODEgLTAuNDIsLTAuNTEgLTAuOTUsLTAuOTEgLTEuNjEsLTEuMiAtMC42NiwtMC4yOCAtMS41MiwtMC40MyAtMi41OSwtMC40MyBoIC0xLjc2IHYgMTEuNjQgaCAxLjgyIGMgMC45NSwwIDEuNzUsLTAuMTIgMi40LC0wLjM3IDAuNjYsLTAuMjUgMS4yLC0wLjYyIDEuNjQsLTEuMTEgMC40MywtMC41IDAuNzYsLTEuMTIgMC45OCwtMS44NiAwLjIxLC0wLjc0IDAuMzIsLTEuNjEgMC4zMiwtMi41OSB6Ii8+JiN4YTsmI3hhOzxwYXRoIGlkPSJwYXRoNzg4MTgiIGlua3NjYXBlOmNvbm5lY3Rvci1jdXJ2YXR1cmU9IjAiIHN0eWxlPSJmaWxsOiNmZmZmZmYiIGQ9Im0gNDQuNjU1LDQzLjM5IGMgMCwwLjIgLTAuMDMsMC4zOCAtMC4xLDAuNTQgLTAuMDcsMC4xNiAtMC4xNywwLjI5IC0wLjI5LDAuNCAtMC4xMSwwLjExIC0wLjI2LDAuMTggLTAuNDIsMC4yMyAtMC4xNiwwLjA1IC0wLjMzLDAuMDcgLTAuNSwwLjA3IGggLTEuNDggYyAtMC4zMSwwIC0wLjU3LC0wLjAzIC0wLjgsLTAuMDkgLTAuMjIsLTAuMDYgLTAuNDMsLTAuMTcgLTAuNjIsLTAuMzQgLTAuMTksLTAuMTYgLTAuMzcsLTAuMzggLTAuNTUsLTAuNjYgLTAuMTcsLTAuMjggLTAuMzcsLTAuNjQgLTAuNTksLTEuMDggbCAtNC4yNiwtOCBjIC0wLjI1LC0wLjQ3IC0wLjUsLTAuOTkgLTAuNzUsLTEuNTQgLTAuMjYsLTAuNTUgLTAuNDksLTEuMDkgLTAuNjksLTEuNjEgaCAtMC4wMyBjIDAuMDQsMC42NCAwLjA2LDEuMjcgMC4wOCwxLjkgMC4wMiwwLjYzIDAuMDMsMS4yOCAwLjAzLDEuOTUgdiA4Ljk1IGMgMCwwLjA5IC0wLjAzLDAuMTcgLTAuMDgsMC4yNCAtMC4wNSwwLjA3IC0wLjEzLDAuMTMgLTAuMjUsMC4xOCAtMC4xMiwwLjA1IC0wLjI4LDAuMDkgLTAuNDgsMC4xMSAtMC4yLDAuMDMgLTAuNDcsMC4wNCAtMC43OCwwLjA0IC0wLjMxLDAgLTAuNTcsLTAuMDEgLTAuNzcsLTAuMDQgLTAuMiwtMC4wMiAtMC4zNiwtMC4wNiAtMC40NywtMC4xMSAtMC4xMiwtMC4wNSAtMC4yLC0wLjExIC0wLjI0LC0wLjE4IC0wLjA1LC0wLjA3IC0wLjA3LC0wLjE1IC0wLjA3LC0wLjI0IFYgMjguNzMgYyAwLC0wLjQxIDAuMTIsLTAuNzIgMC4zNiwtMC45MyAwLjI0LC0wLjIxIDAuNTQsLTAuMzEgMC45LC0wLjMxIGggMS44NiBjIDAuMzMsMCAwLjYyLDAuMDMgMC44NSwwLjA4IDAuMjMsMC4wNiAwLjQzLDAuMTYgMC42MSwwLjI5IDAuMTgsMC4xMyAwLjM1LDAuMzIgMC41MSwwLjU1IDAuMTYsMC4yMyAwLjMyLDAuNTIgMC40OSwwLjg3IGwgMy4zMyw2LjI1IGMgMC4xOSwwLjM4IDAuMzksMC43NSAwLjU4LDEuMTIgMC4xOSwwLjM2IDAuMzcsMC43MyAwLjU1LDEuMSAwLjE3LDAuMzYgMC4zNCwwLjcyIDAuNTEsMS4wOCAwLjE3LDAuMzUgMC4zMywwLjcgMC40OSwxLjA1IGggMC4wMSBjIC0wLjAyLC0wLjYxIC0wLjA0LC0xLjI2IC0wLjA2LC0xLjkzIC0wLjAxLC0wLjY3IC0wLjAxLC0xLjMxIC0wLjAxLC0xLjkxIHYgLTguMDMgYyAwLC0wLjA5IDAuMDIsLTAuMTcgMC4wNywtMC4yNCAwLjA1LC0wLjA3IDAuMTQsLTAuMTMgMC4yNywtMC4xOSAwLjEyLC0wLjA1IDAuMjgsLTAuMDkgMC40OSwtMC4xMSAwLjIsLTAuMDIgMC40NiwtMC4wMyAwLjc4LC0wLjAzIDAuMywwIDAuNTUsMC4wMSAwLjc1LDAuMDMgMC4yLDAuMDIgMC4zNiwwLjA2IDAuNDcsMC4xMSAwLjExLDAuMDYgMC4xOSwwLjEyIDAuMjMsMC4xOSAwLjA1LDAuMDcgMC4wNywwLjE1IDAuMDcsMC4yNCB6Ii8+JiN4YTsmI3hhOzxwYXRoIGlkPSJwYXRoNzg4MjYiIGlua3NjYXBlOmNvbm5lY3Rvci1jdXJ2YXR1cmU9IjAiIHN0eWxlPSJmaWxsOiNmZmZmZmYiIGQ9Im0gNTguNTM1LDM5LjQ3IGMgMCwwLjkgLTAuMTcsMS42OSAtMC41LDIuMzcgLTAuMzQsMC42OCAtMC43OSwxLjI0IC0xLjM3LDEuNyAtMC41NywwLjQ1IC0xLjI0LDAuNzkgLTIuMDEsMS4wMiAtMC43NiwwLjIzIC0xLjU5LDAuMzQgLTIuNDYsMC4zNCAtMC41OSwwIC0xLjE0LC0wLjA1IC0xLjY0LC0wLjE0IC0wLjUxLC0wLjEgLTAuOTYsLTAuMjIgLTEuMzUsLTAuMzUgLTAuMzksLTAuMTQgLTAuNzEsLTAuMjggLTAuOTcsLTAuNDMgLTAuMjYsLTAuMTUgLTAuNDUsLTAuMjggLTAuNTYsLTAuNCAtMC4xMiwtMC4xMSAtMC4yLC0wLjI4IC0wLjI1LC0wLjUgLTAuMDQsLTAuMjEgLTAuMDcsLTAuNTIgLTAuMDcsLTAuOTMgMCwtMC4yNyAwLjAxLC0wLjUgMC4wMywtMC42OSAwLjAxLC0wLjE4IDAuMDQsLTAuMzMgMC4wOCwtMC40NSAwLjA0LC0wLjExIDAuMSwtMC4xOSAwLjE2LC0wLjI0IDAuMDcsLTAuMDUgMC4xNCwtMC4wNyAwLjIzLC0wLjA3IDAuMTMsMCAwLjMsMC4wNyAwLjUzLDAuMjEgMC4yMiwwLjE1IDAuNTEsMC4zMSAwLjg2LDAuNDkgMC4zNiwwLjE3IDAuNzgsMC4zMyAxLjI3LDAuNDggMC40OCwwLjE0IDEuMDUsMC4yMiAxLjY5LDAuMjIgMC40MywwIDAuODEsLTAuMDUgMS4xNCwtMC4xNSAwLjM0LC0wLjExIDAuNjIsLTAuMjUgMC44NSwtMC40NCAwLjI0LC0wLjE4IDAuNDEsLTAuNDEgMC41NCwtMC42OCAwLjEyLC0wLjI4IDAuMTksLTAuNTggMC4xOSwtMC45MiAwLC0wLjM4IC0wLjExLC0wLjcyIC0wLjMyLC0wLjk5IC0wLjIxLC0wLjI4IC0wLjQ5LC0wLjUzIC0wLjgzLC0wLjc0IC0wLjM0LC0wLjIyIC0wLjczLC0wLjQyIC0xLjE2LC0wLjYxIC0wLjQzLC0wLjE5IC0wLjg4LC0wLjM5IC0xLjMzLC0wLjYxIC0wLjQ2LC0wLjIxIC0wLjkxLC0wLjQ1IC0xLjM0LC0wLjcyIC0wLjQzLC0wLjI3IC0wLjgyLC0wLjU5IC0xLjE1LC0wLjk2IC0wLjM0LC0wLjM4IC0wLjYyLC0wLjgyIC0wLjgzLC0xLjMzIC0wLjIyLC0wLjUxIC0wLjMyLC0xLjEzIC0wLjMyLC0xLjg0IDAsLTAuODIgMC4xNSwtMS41NCAwLjQ2LC0yLjE3IDAuMywtMC42MiAwLjcxLC0xLjEzIDEuMjMsLTEuNTQgMC41MSwtMC40MSAxLjEyLC0wLjcyIDEuODIsLTAuOTIgMC43LC0wLjIgMS40NSwtMC4zMSAyLjIzLC0wLjMxIDAuNDEsMCAwLjgxLDAuMDMgMS4yMiwwLjEgMC40LDAuMDYgMC43OCwwLjE0IDEuMTMsMC4yNSAwLjM1LDAuMSAwLjY3LDAuMjIgMC45NCwwLjM2IDAuMjgsMC4xMyAwLjQ2LDAuMjQgMC41NCwwLjMzIDAuMDksMC4wOCAwLjE1LDAuMTYgMC4xOCwwLjIyIDAuMDMsMC4wNiAwLjA2LDAuMTUgMC4wOCwwLjI1IDAuMDIsMC4xIDAuMDQsMC4yMyAwLjA1LDAuMzggMCwwLjE1IDAuMDEsMC4zNSAwLjAxLDAuNTggMCwwLjI1IC0wLjAxLDAuNDcgLTAuMDIsMC42NCAtMC4wMSwwLjE4IC0wLjA0LDAuMzMgLTAuMDcsMC40NCAtMC4wMywwLjExIC0wLjA3LDAuMiAtMC4xMywwLjI1IC0wLjA2LDAuMDYgLTAuMTMsMC4wOCAtMC4yMywwLjA4IC0wLjEsMCAtMC4yNSwtMC4wNiAtMC40NiwtMC4xOCAtMC4yMiwtMC4xMyAtMC40OCwtMC4yNiAtMC43OCwtMC40MSAtMC4zMSwtMC4xNCAtMC42NywtMC4yNyAtMS4wNywtMC4zOSAtMC40MSwtMC4xMiAtMC44NiwtMC4xOCAtMS4zNCwtMC4xOCAtMC4zOCwwIC0wLjcxLDAuMDQgLTAuOTksMC4xNCAtMC4yOCwwLjA5IC0wLjUyLDAuMjIgLTAuNzEsMC4zOCAtMC4xOSwwLjE2IC0wLjMzLDAuMzYgLTAuNDIsMC41OSAtMC4wOSwwLjIzIC0wLjE0LDAuNDcgLTAuMTQsMC43MyAwLDAuMzcgMC4xLDAuNyAwLjMxLDAuOTggMC4yMSwwLjI4IDAuNDksMC41MyAwLjgzLDAuNzQgMC4zNSwwLjIyIDAuNzUsMC40MiAxLjE5LDAuNjEgMC40NCwwLjE5IDAuODksMC4zOSAxLjM1LDAuNiAwLjQ2LDAuMjIgMC45MSwwLjQ2IDEuMzUsMC43MiAwLjQ0LDAuMjcgMC44MywwLjU5IDEuMTgsMC45NyAwLjM0LDAuMzcgMC42MiwwLjgyIDAuODMsMS4zMiAwLjIxLDAuNTIgMC4zMiwxLjExIDAuMzIsMS44IHoiLz4mI3hhOzwvc3ZnPg==;" vertex="1" parent="BhFgCoEos3Yp7x98W-Is-1">
          <mxGeometry x="-45.21" y="640" width="40" height="40" as="geometry" />
        </mxCell>
        <mxCell id="BhFgCoEos3Yp7x98W-Is-44" style="edgeStyle=orthogonalEdgeStyle;rounded=0;orthogonalLoop=1;jettySize=auto;html=1;entryX=0;entryY=0.5;entryDx=0;entryDy=0;fillColor=#dae8fc;strokeColor=#6c8ebf;" edge="1" parent="BhFgCoEos3Yp7x98W-Is-1" source="BhFgCoEos3Yp7x98W-Is-37" target="BhFgCoEos3Yp7x98W-Is-35">
          <mxGeometry relative="1" as="geometry" />
        </mxCell>
        <mxCell id="BhFgCoEos3Yp7x98W-Is-37" value="" style="shape=image;verticalLabelPosition=bottom;labelBackgroundColor=#ffffff;verticalAlign=top;aspect=fixed;imageAspect=0;image=data:image/svg+xml,PHN2ZyB4bWxuczpjYz0iaHR0cDovL2NyZWF0aXZlY29tbW9ucy5vcmcvbnMjIiB4bWxuczpkYz0iaHR0cDovL3B1cmwub3JnL2RjL2VsZW1lbnRzLzEuMS8iIHhtbG5zOmlua3NjYXBlPSJodHRwOi8vd3d3Lmlua3NjYXBlLm9yZy9uYW1lc3BhY2VzL2lua3NjYXBlIiB4bWxuczpyZGY9Imh0dHA6Ly93d3cudzMub3JnLzE5OTkvMDIvMjItcmRmLXN5bnRheC1ucyMiIHhtbG5zOnNvZGlwb2RpPSJodHRwOi8vc29kaXBvZGkuc291cmNlZm9yZ2UubmV0L0RURC9zb2RpcG9kaS0wLmR0ZCIgeG1sbnM6c3ZnPSJodHRwOi8vd3d3LnczLm9yZy8yMDAwL3N2ZyIgeG1sbnM9Imh0dHA6Ly93d3cudzMub3JnLzIwMDAvc3ZnIiB4bWxuczp4bGluaz0iaHR0cDovL3d3dy53My5vcmcvMTk5OS94bGluayIgdmVyc2lvbj0iMS4xIiBpZD0ic3ZnMjMwMzIiIHg9IjBweCIgeT0iMHB4IiB2aWV3Qm94PSIwIDAgMzkuNjIgMjciIHN0eWxlPSJlbmFibGUtYmFja2dyb3VuZDpuZXcgMCAwIDM5LjYyIDI3OyIgeG1sOnNwYWNlPSJwcmVzZXJ2ZSI+JiN4YTs8c29kaXBvZGk6bmFtZWR2aWV3IGJvcmRlcmNvbG9yPSIjNjY2NjY2IiBib3JkZXJvcGFjaXR5PSIxIiBmaXQtbWFyZ2luLWJvdHRvbT0iMCIgZml0LW1hcmdpbi1sZWZ0PSIwIiBmaXQtbWFyZ2luLXJpZ2h0PSIwIiBmaXQtbWFyZ2luLXRvcD0iMCIgZ3JpZHRvbGVyYW5jZT0iMTAiIGd1aWRldG9sZXJhbmNlPSIxMCIgaWQ9Im5hbWVkdmlldzIzMDM0IiBpbmtzY2FwZTpjdXJyZW50LWxheWVyPSJzdmcyMzAzMiIgaW5rc2NhcGU6Y3g9IjIyLjcyMjYzOSIgaW5rc2NhcGU6Y3k9IjE0LjMyNzAwNiIgaW5rc2NhcGU6cGFnZW9wYWNpdHk9IjAiIGlua3NjYXBlOnBhZ2VzaGFkb3c9IjIiIGlua3NjYXBlOndpbmRvdy1oZWlnaHQ9IjEwMTciIGlua3NjYXBlOndpbmRvdy1tYXhpbWl6ZWQ9IjEiIGlua3NjYXBlOndpbmRvdy13aWR0aD0iMTkyMCIgaW5rc2NhcGU6d2luZG93LXg9Ii04IiBpbmtzY2FwZTp3aW5kb3cteT0iLTgiIGlua3NjYXBlOnpvb209IjE2LjEzMzIxNCIgb2JqZWN0dG9sZXJhbmNlPSIxMCIgcGFnZWNvbG9yPSIjZmZmZmZmIiBzaG93Z3JpZD0iZmFsc2UiPiYjeGE7CTwvc29kaXBvZGk6bmFtZWR2aWV3PiYjeGE7PGcgaWQ9ImcyMzAzMCIgdHJhbnNmb3JtPSJ0cmFuc2xhdGUoMC4zMTA2MzExMSwtMC43NSkiPiYjeGE7CTx0aXRsZSBpZD0idGl0bGUyMjk5NyI+UGFnZS0xPC90aXRsZT4mI3hhOwk8ZyBpZD0iZ3JvdXAxODEyLTEiIHRyYW5zZm9ybT0idHJhbnNsYXRlKDEuNSwtMS41KSI+JiN4YTsJCTx0aXRsZSBpZD0idGl0bGUyMjk5OSI+QXBwbGljYXRpb248L3RpdGxlPiYjeGE7CQk8ZyBpZD0ic2hhcGUxODEzLTIiIHRyYW5zZm9ybT0idHJhbnNsYXRlKDIuMjUsLTIuMjUpIj4mI3hhOwkJCTx0aXRsZSBpZD0idGl0bGUyMzAwMSI+cGF0aDM4MjIuMjc1OTY8L3RpdGxlPiYjeGE7CQkJJiN4YTsJCQkJPHBhdGggaWQ9InBhdGgyMzAwMyIgaW5rc2NhcGU6Y29ubmVjdG9yLWN1cnZhdHVyZT0iMCIgc3R5bGU9ImZpbGwtcnVsZTpldmVub2RkO2NsaXAtcnVsZTpldmVub2RkO2ZpbGw6I0ZGRkZGRjtzdHJva2U6IzY3NzQ4NztzdHJva2Utd2lkdGg6MS41O3N0cm9rZS1taXRlcmxpbWl0OjM7IiBkPSIgICAgIE0zMCw1LjI1SDEuNUMwLjY3LDUuMjUsMCw1LjkyLDAsNi43NVYyOC41aDMxLjVWNi43NUMzMS41LDUuOTIsMzAuODMsNS4yNSwzMCw1LjI1eiIvPiYjeGE7CQk8L2c+JiN4YTsJCTxnIGlkPSJzaGFwZTE4MTQtNCI+JiN4YTsJCQk8dGl0bGUgaWQ9InRpdGxlMjMwMDYiPnBvbHlnb24zODI0LjI3NTk3PC90aXRsZT4mI3hhOwkJCSYjeGE7CQkJCTxwYXRoIGlkPSJwYXRoMjMwMDgiIGlua3NjYXBlOmNvbm5lY3Rvci1jdXJ2YXR1cmU9IjAiIHN0eWxlPSJmaWxsLXJ1bGU6ZXZlbm9kZDtjbGlwLXJ1bGU6ZXZlbm9kZDtmaWxsOiNGRkZGRkY7c3Ryb2tlOiM2Nzc0ODc7c3Ryb2tlLXdpZHRoOjEuNTtzdHJva2UtbWl0ZXJsaW1pdDozOyIgZD0iICAgICBNMzMsMjUuNWwzLDNIMGwzLTNIMzN6Ii8+JiN4YTsJCTwvZz4mI3hhOwkJPGcgaWQ9Imdyb3VwMTgxNS02IiB0cmFuc2Zvcm09InRyYW5zbGF0ZSgxMC4zOTksLTUuMjUpIj4mI3hhOwkJCTx0aXRsZSBpZD0idGl0bGUyMzAxMSI+ZzM4MzIuMjc1OTg8L3RpdGxlPiYjeGE7CQkJPGcgaWQ9InNoYXBlMTgxNi03IiB0cmFuc2Zvcm09InRyYW5zbGF0ZSgwLC04Ljk5MjUpIj4mI3hhOwkJCQk8dGl0bGUgaWQ9InRpdGxlMjMwMTMiPnBvbHlnb24zODI2PC90aXRsZT4mI3hhOwkJCQk8cGF0aCBpZD0icGF0aDIzMDE1IiBpbmtzY2FwZTpjb25uZWN0b3ItY3VydmF0dXJlPSIwIiBzdHlsZT0iZmlsbC1ydWxlOmV2ZW5vZGQ7Y2xpcC1ydWxlOmV2ZW5vZGQ7ZmlsbDojMkJDN0Y0OyIgZD0iICAgICAgTTcuMTIsMjEuMzZMMCwyNC43NGw3LjEyLDMuNzZsNy4xMy0zLjc2TDcuMTIsMjEuMzZ6Ii8+JiN4YTsJCQk8L2c+JiN4YTsJCQk8ZyBpZD0ic2hhcGUxODE3LTkiPiYjeGE7CQkJCTx0aXRsZSBpZD0idGl0bGUyMzAxOCI+cG9seWdvbjM4Mjg8L3RpdGxlPiYjeGE7CQkJCTxwYXRoIGlkPSJwYXRoMjMwMjAiIGlua3NjYXBlOmNvbm5lY3Rvci1jdXJ2YXR1cmU9IjAiIHN0eWxlPSJmaWxsLXJ1bGU6ZXZlbm9kZDtjbGlwLXJ1bGU6ZXZlbm9kZDtmaWxsOiMyQkM3RjQ7IiBkPSJNMCwyNC42NCAgICAgIGw2Ljc1LDMuODZ2LTguMjdMMCwxNi41NlYyNC42NHoiLz4mI3hhOwkJCTwvZz4mI3hhOwkJCTxnIGlkPSJzaGFwZTE4MTgtMTEiIHRyYW5zZm9ybT0idHJhbnNsYXRlKDcuNSkiPiYjeGE7CQkJCTx0aXRsZSBpZD0idGl0bGUyMzAyMyI+cG9seWdvbjM4MzA8L3RpdGxlPiYjeGE7CQkJCTxwYXRoIGlkPSJwYXRoMjMwMjUiIGlua3NjYXBlOmNvbm5lY3Rvci1jdXJ2YXR1cmU9IjAiIHN0eWxlPSJmaWxsLXJ1bGU6ZXZlbm9kZDtjbGlwLXJ1bGU6ZXZlbm9kZDtmaWxsOiMyQkM3RjQ7IiBkPSIgICAgICBNNi43NSwyNC42NEwwLDI4LjV2LTguMjdsNi43NS0zLjY3VjI0LjY0eiIvPiYjeGE7CQkJPC9nPiYjeGE7CQk8L2c+JiN4YTsJPC9nPiYjeGE7PC9nPiYjeGE7PC9zdmc+;" vertex="1" parent="BhFgCoEos3Yp7x98W-Is-1">
          <mxGeometry x="-47.43000000000001" y="533.3" width="44.45" height="30" as="geometry" />
        </mxCell>
        <mxCell id="BhFgCoEos3Yp7x98W-Is-46" value="" style="whiteSpace=wrap;html=1;fillColor=#99CCFF;rounded=1;" vertex="1" parent="BhFgCoEos3Yp7x98W-Is-1">
          <mxGeometry x="461.49" y="300" width="349" height="50" as="geometry" />
        </mxCell>
        <mxCell id="BhFgCoEos3Yp7x98W-Is-47" value="Zone 1" style="text;html=1;resizable=0;autosize=1;align=center;verticalAlign=middle;points=[];fillColor=none;strokeColor=none;rounded=0;dashed=1;" vertex="1" parent="BhFgCoEos3Yp7x98W-Is-1">
          <mxGeometry x="745" y="315" width="50" height="20" as="geometry" />
        </mxCell>
        <mxCell id="BhFgCoEos3Yp7x98W-Is-48" value="" style="whiteSpace=wrap;html=1;fillColor=#99CCFF;rounded=1;" vertex="1" parent="BhFgCoEos3Yp7x98W-Is-1">
          <mxGeometry x="461.49" y="370" width="349" height="50" as="geometry" />
        </mxCell>
        <mxCell id="BhFgCoEos3Yp7x98W-Is-49" value="Zone 1" style="text;html=1;resizable=0;autosize=1;align=center;verticalAlign=middle;points=[];fillColor=none;strokeColor=none;rounded=0;dashed=1;" vertex="1" parent="BhFgCoEos3Yp7x98W-Is-1">
          <mxGeometry x="745" y="385" width="50" height="20" as="geometry" />
        </mxCell>
        <mxCell id="BhFgCoEos3Yp7x98W-Is-45" value="" style="whiteSpace=wrap;html=1;fillColor=#E6E6E6;strokeColor=#E6E6E6;" vertex="1" parent="BhFgCoEos3Yp7x98W-Is-1">
          <mxGeometry x="530" y="260" width="210" height="200" as="geometry" />
        </mxCell>
        <mxCell id="BhFgCoEos3Yp7x98W-Is-50" value="" style="shape=image;verticalLabelPosition=bottom;labelBackgroundColor=#ffffff;verticalAlign=top;aspect=fixed;imageAspect=0;image=data:image/svg+xml,PHN2ZyB4bWxuczpjYz0iaHR0cDovL2NyZWF0aXZlY29tbW9ucy5vcmcvbnMjIiB4bWxuczpkYz0iaHR0cDovL3B1cmwub3JnL2RjL2VsZW1lbnRzLzEuMS8iIHhtbG5zOmlua3NjYXBlPSJodHRwOi8vd3d3Lmlua3NjYXBlLm9yZy9uYW1lc3BhY2VzL2lua3NjYXBlIiB4bWxuczpyZGY9Imh0dHA6Ly93d3cudzMub3JnLzE5OTkvMDIvMjItcmRmLXN5bnRheC1ucyMiIHhtbG5zOnNvZGlwb2RpPSJodHRwOi8vc29kaXBvZGkuc291cmNlZm9yZ2UubmV0L0RURC9zb2RpcG9kaS0wLmR0ZCIgeG1sbnM6c3ZnPSJodHRwOi8vd3d3LnczLm9yZy8yMDAwL3N2ZyIgeG1sbnM9Imh0dHA6Ly93d3cudzMub3JnLzIwMDAvc3ZnIiB4bWxuczp4bGluaz0iaHR0cDovL3d3dy53My5vcmcvMTk5OS94bGluayIgdmVyc2lvbj0iMS4xIiBpZD0ic3ZnODc3MDAiIGlua3NjYXBlOnZlcnNpb249IjAuOTIuMyAoMjQwNTU0NiwgMjAxOC0wMy0xMSkiIHNvZGlwb2RpOmRvY25hbWU9Im5ldHdvcmtfc2VjdXJpdHlfZ3JvdXAuc3ZnIiB4PSIwcHgiIHk9IjBweCIgdmlld0JveD0iMCAwIDIyLjgzIDMxLjEyIiBzdHlsZT0iZW5hYmxlLWJhY2tncm91bmQ6bmV3IDAgMCAyMi44MyAzMS4xMjsiIHhtbDpzcGFjZT0icHJlc2VydmUiPiYjeGE7PHNvZGlwb2RpOm5hbWVkdmlldyBib3JkZXJjb2xvcj0iIzY2NjY2NiIgYm9yZGVyb3BhY2l0eT0iMSIgZml0LW1hcmdpbi1ib3R0b209IjAiIGZpdC1tYXJnaW4tbGVmdD0iMCIgZml0LW1hcmdpbi1yaWdodD0iMCIgZml0LW1hcmdpbi10b3A9IjAiIGdyaWR0b2xlcmFuY2U9IjEwIiBndWlkZXRvbGVyYW5jZT0iMTAiIGlkPSJuYW1lZHZpZXc4NzcwMiIgaW5rc2NhcGU6Y3VycmVudC1sYXllcj0ic3ZnODc3MDAiIGlua3NjYXBlOmN4PSI3Ljc4MzU0ODIiIGlua3NjYXBlOmN5PSIxNi4yMjc2MjMiIGlua3NjYXBlOnBhZ2VvcGFjaXR5PSIwIiBpbmtzY2FwZTpwYWdlc2hhZG93PSIyIiBpbmtzY2FwZTp3aW5kb3ctaGVpZ2h0PSIxMDE3IiBpbmtzY2FwZTp3aW5kb3ctbWF4aW1pemVkPSIxIiBpbmtzY2FwZTp3aW5kb3ctd2lkdGg9IjE5MjAiIGlua3NjYXBlOndpbmRvdy14PSItOCIgaW5rc2NhcGU6d2luZG93LXk9Ii04IiBpbmtzY2FwZTp6b29tPSIxNC4wOTU3MzQiIG9iamVjdHRvbGVyYW5jZT0iMTAiIHBhZ2Vjb2xvcj0iI2ZmZmZmZiIgc2hvd2dyaWQ9ImZhbHNlIj4mI3hhOwk8L3NvZGlwb2RpOm5hbWVkdmlldz4mI3hhOzxnIGlkPSJnODc2OTgiIHRyYW5zZm9ybT0idHJhbnNsYXRlKC0wLjc1LC0wLjc1KSI+JiN4YTsJPHRpdGxlIGlkPSJ0aXRsZTg3NjQyIj5QYWdlLTE8L3RpdGxlPiYjeGE7CTxnIGlkPSJncm91cDU2NjktMSIgdHJhbnNmb3JtPSJ0cmFuc2xhdGUoMC43NSwtMC43NSkiPiYjeGE7CQk8dGl0bGUgaWQ9InRpdGxlODc2NDQiPk5ldHdvcmsgU2VjdXJpdHkgR3JvdXA8L3RpdGxlPiYjeGE7CQk8ZyBpZD0ic2hhcGU1NjcwLTIiPiYjeGE7CQkJPHRpdGxlIGlkPSJ0aXRsZTg3NjQ2Ij5TaGVldC41NjcwPC90aXRsZT4mI3hhOwkJCTxwYXRoIGlkPSJwYXRoODc2NDgiIGlua3NjYXBlOmNvbm5lY3Rvci1jdXJ2YXR1cmU9IjAiIHN0eWxlPSJmaWxsOiMzOTk5QzY7IiBkPSJNMTkuNDYsNS4yNEMxMi42LDQuNDksMTEuNDEsMS41LDExLjQxLDEuNSAgICAgUzkuODUsNS4zNywwLDUuMzd2MTUuOTZjMCwxLjkzLDEuMDYsMy43NCwyLjU2LDUuM2MzLjM2LDMuNTYsOC44NSw1Ljk5LDguODUsNS45OXMxMS40Mi00Ljk5LDExLjQyLTExLjI5VjUuMzcgICAgIEMyMS41OCw1LjM3LDIwLjQ2LDUuMywxOS40Niw1LjI0eiIvPiYjeGE7CQk8L2c+JiN4YTsJCTxnIGlkPSJzaGFwZTU2NzEtNCIgdHJhbnNmb3JtPSJ0cmFuc2xhdGUoMCwtNS45ODY5MikiPiYjeGE7CQkJPHRpdGxlIGlkPSJ0aXRsZTg3NjUxIj5TaGVldC41NjcxPC90aXRsZT4mI3hhOwkJCTxwYXRoIGlkPSJwYXRoODc2NTMiIGlua3NjYXBlOmNvbm5lY3Rvci1jdXJ2YXR1cmU9IjAiIHN0eWxlPSJmaWxsOiM1OUI0RDk7ZmlsbC1vcGFjaXR5OjAuNDsiIGQ9Ik0xNC4yOCwxNy43OGw1LjE4LTYuNTUgICAgIGMtNi44Ni0wLjc1LTguMDUtMy43NC04LjA1LTMuNzRTOS44NSwxMS4zNSwwLDExLjM1djE1Ljk3YzAsMS45MywxLjA2LDMuNzQsMi41Niw1LjNsMy44Ni00Ljg2TDE0LjI4LDE3Ljc4eiIvPiYjeGE7CQk8L2c+JiN4YTsJCTxnIGlkPSJncm91cDU2NzItNiIgdHJhbnNmb3JtPSJ0cmFuc2xhdGUoMi4zMDc0NiwtMy4xMTgxOSkiPiYjeGE7CQkJPHRpdGxlIGlkPSJ0aXRsZTg3NjU2Ij5TaGVldC41NjcyPC90aXRsZT4mI3hhOwkJCTxnIGlkPSJzaGFwZTU2NzMtNyIgdHJhbnNmb3JtPSJ0cmFuc2xhdGUoMC4wNjIzNjM3KSI+JiN4YTsJCQkJPHRpdGxlIGlkPSJ0aXRsZTg3NjU4Ij5TaGVldC41NjczPC90aXRsZT4mI3hhOwkJCQk8cGF0aCBpZD0icGF0aDg3NjYwIiBpbmtzY2FwZTpjb25uZWN0b3ItY3VydmF0dXJlPSIwIiBzdHlsZT0iZmlsbDojRkZGRkZGO2ZpbGwtb3BhY2l0eTowLjM7IiBkPSJNMCwxOS44M3YzLjgxICAgICAgYzAsMS41NiwwLjg3LDIuOTksMi4wNiw0LjI0YzIuNjgsMi44Nyw3LjA1LDQuNzQsNy4wNSw0Ljc0VjE5LjgzSDB6Ii8+JiN4YTsJCQk8L2c+JiN4YTsJCQk8ZyBpZD0ic2hhcGU1Njc0LTkiIHRyYW5zZm9ybT0idHJhbnNsYXRlKDkuMTA1MSkiPiYjeGE7CQkJCTx0aXRsZSBpZD0idGl0bGU4NzY2MyI+U2hlZXQuNTY3NDwvdGl0bGU+JiN4YTsJCQkJPHBhdGggaWQ9InBhdGg4NzY2NSIgaW5rc2NhcGU6Y29ubmVjdG9yLWN1cnZhdHVyZT0iMCIgc3R5bGU9ImZpbGw6I0ZGRkZGRjtmaWxsLW9wYWNpdHk6MC43OyIgZD0iTTAsMzIuNjIgICAgICBjMCwwLDkuMTEtMy45OSw5LjExLTguOTh2LTMuODFIMFYzMi42MnoiLz4mI3hhOwkJCTwvZz4mI3hhOwkJCTxnIGlkPSJzaGFwZTU2NzUtMTEiIHRyYW5zZm9ybT0idHJhbnNsYXRlKDAsLTEyLjc4NDYpIj4mI3hhOwkJCQk8dGl0bGUgaWQ9InRpdGxlODc2NjgiPlNoZWV0LjU2NzU8L3RpdGxlPiYjeGE7CQkJCTxwYXRoIGlkPSJwYXRoODc2NzAiIGlua3NjYXBlOmNvbm5lY3Rvci1jdXJ2YXR1cmU9IjAiIHN0eWxlPSJmaWxsOiNGRkZGRkY7ZmlsbC1vcGFjaXR5OjAuNzsiIGQ9Ik05LjExLDIwLjU4ICAgICAgYzAsMC0xLjI1LDMuMTItOS4xMSwzLjEydjguOTJoOS4xMVYyMC41OHoiLz4mI3hhOwkJCTwvZz4mI3hhOwkJCTxnIGlkPSJzaGFwZTU2NzYtMTMiIHRyYW5zZm9ybT0idHJhbnNsYXRlKDkuMTA1MSwtMTIuNzg0NikiPiYjeGE7CQkJCTx0aXRsZSBpZD0idGl0bGU4NzY3MyI+U2hlZXQuNTY3NjwvdGl0bGU+JiN4YTsJCQkJPHBhdGggaWQ9InBhdGg4NzY3NSIgaW5rc2NhcGU6Y29ubmVjdG9yLWN1cnZhdHVyZT0iMCIgc3R5bGU9ImZpbGw6I0ZGRkZGRjtmaWxsLW9wYWNpdHk6MC4zOyIgZD0iTTYuMzYsMjMuNTggICAgICBDMC45NCwyMi45NSwwLDIwLjY1LDAsMjAuNjV2MTEuOTdoOS4xMVYyMy43QzguMTEsMjMuNyw3LjE3LDIzLjY0LDYuMzYsMjMuNTh6Ii8+JiN4YTsJCQk8L2c+JiN4YTsJCTwvZz4mI3hhOwkJPGcgaWQ9Imdyb3VwNTY3Ny0xNSIgdHJhbnNmb3JtPSJ0cmFuc2xhdGUoMy4xMjQ0MiwtMTIuNzc0NikiPiYjeGE7CQkJPHRpdGxlIGlkPSJ0aXRsZTg3Njc5Ij5TaGVldC41Njc3PC90aXRsZT4mI3hhOwkJCTxnIGlkPSJzaGFwZTU2NzgtMTYiIHRyYW5zZm9ybT0idHJhbnNsYXRlKDAsLTAuMTAyOSkiPiYjeGE7CQkJCTx0aXRsZSBpZD0idGl0bGU4NzY4MSI+U2hlZXQuNTY3ODwvdGl0bGU+JiN4YTsJCQkJPHBhdGggaWQ9InBhdGg4NzY4MyIgaW5rc2NhcGU6Y29ubmVjdG9yLWN1cnZhdHVyZT0iMCIgc3R5bGU9ImZpbGw6IzNFM0UzRTsiIGQ9Ik01LjE4LDMyLjYyaC0xLjFsLTIuOTMtNC40OSAgICAgIGMtMC4wNy0wLjEyLTAuMTMtMC4yNC0wLjE4LTAuMzZIMC45NWMwLjAyLDAuMTMsMC4wMywwLjQxLDAuMDMsMC44NHY0LjAxSDB2LTYuMTFoMS4xOEw0LDMwLjg5YzAuMTIsMC4xOCwwLjIsMC4zMSwwLjIzLDAuMzggICAgICBoMC4wMmMtMC4wMy0wLjE2LTAuMDQtMC40NC0wLjA0LTAuODJ2LTMuOTRoMC45N0w1LjE4LDMyLjYyeiIvPiYjeGE7CQkJPC9nPiYjeGE7CQkJPGcgaWQ9InNoYXBlNTY3OS0xOCIgdHJhbnNmb3JtPSJ0cmFuc2xhdGUoNi40MTA5OSkiPiYjeGE7CQkJCTx0aXRsZSBpZD0idGl0bGU4NzY4NiI+U2hlZXQuNTY3OTwvdGl0bGU+JiN4YTsJCQkJPHBhdGggaWQ9InBhdGg4NzY4OCIgaW5rc2NhcGU6Y29ubmVjdG9yLWN1cnZhdHVyZT0iMCIgc3R5bGU9ImZpbGw6IzNFM0UzRTsiIGQ9Ik0wLDMyLjI3di0xLjA0YzAuMSwwLjA4LDAuMjEsMC4xNiwwLjM0LDAuMjMgICAgICBzMC4yNywwLjEyLDAuNDEsMC4xN2MwLjE1LDAuMDUsMC4yOSwwLjA4LDAuNDQsMC4xMWMwLjE0LDAuMDMsMC4yNywwLjA0LDAuNCwwLjA0YzAuNDIsMCwwLjc0LTAuMDcsMC45NS0wLjIyICAgICAgYzAuMjEtMC4xNCwwLjMxLTAuMzQsMC4zMS0wLjYxYzAtMC4xNS0wLjAzLTAuMjctMC4xLTAuMzhjLTAuMDctMC4xMS0wLjE3LTAuMi0wLjI5LTAuMjljLTAuMTMtMC4wOS0wLjI4LTAuMTgtMC40NS0wLjI2ICAgICAgYy0wLjE2LTAuMDgtMC4zNS0wLjE2LTAuNTQtMC4yNWMtMC4yMS0wLjExLTAuNC0wLjIyLTAuNTgtMC4zNGMtMC4xOC0wLjExLTAuMzMtMC4yNC0wLjQ3LTAuMzdjLTAuMTMtMC4xNC0wLjIzLTAuMy0wLjMxLTAuNDcgICAgICBDMC4wNCwyOC40MiwwLDI4LjIxLDAsMjcuOThjMC0wLjI5LDAuMDYtMC41NCwwLjE5LTAuNzVjMC4xMy0wLjIxLDAuMy0wLjM5LDAuNTItMC41MmMwLjIxLTAuMTQsMC40NS0wLjI0LDAuNzItMC4zMSAgICAgIHMwLjU0LTAuMSwwLjgzLTAuMWMwLjYzLDAsMS4xLDAuMDcsMS4zOSwwLjIydjFjLTAuMzQtMC4yNS0wLjc5LTAuMzgtMS4zNC0wLjM4Yy0wLjE1LDAtMC4zLDAuMDItMC40NCwwLjA1ICAgICAgYy0wLjE1LDAuMDItMC4yOSwwLjA3LTAuNDEsMC4xNGMtMC4xMSwwLjA2LTAuMjEsMC4xNS0wLjI4LDAuMjVjLTAuMDgsMC4xLTAuMTEsMC4yMy0wLjExLDAuMzdjMCwwLjE0LDAuMDIsMC4yNSwwLjA4LDAuMzUgICAgICBjMC4wNiwwLjEsMC4xNCwwLjE5LDAuMjUsMC4yOGMwLjExLDAuMDgsMC4yNCwwLjE2LDAuNCwwLjI0czAuMzQsMC4xNiwwLjU1LDAuMjVjMC4yMSwwLjExLDAuNDEsMC4yMywwLjYsMC4zNSAgICAgIGMwLjE5LDAuMTIsMC4zNiwwLjI2LDAuNSwwLjQxYzAuMTUsMC4xNCwwLjI2LDAuMzEsMC4zNCwwLjQ5YzAuMDksMC4xOCwwLjEzLDAuMzgsMC4xMywwLjYyYzAsMC4zLTAuMDYsMC41Ny0wLjE5LDAuNzggICAgICBjLTAuMTIsMC4yMS0wLjI5LDAuMzktMC41LDAuNTJjLTAuMjIsMC4xMy0wLjQ2LDAuMjMtMC43NCwwLjI5Yy0wLjI3LDAuMDYtMC41NiwwLjA5LTAuODcsMC4wOWMtMC4xLDAtMC4yMy0wLjAxLTAuMzgtMC4wMiAgICAgIGMtMC4xNS0wLjAyLTAuMy0wLjA0LTAuNDUtMC4wN2MtMC4xNi0wLjAzLTAuMzEtMC4wNy0wLjQ1LTAuMTFDMC4yLDMyLjM4LDAuMDksMzIuMzMsMCwzMi4yN3oiLz4mI3hhOwkJCTwvZz4mI3hhOwkJCTxnIGlkPSJzaGFwZTU2ODAtMjAiIHRyYW5zZm9ybT0idHJhbnNsYXRlKDExLjA1ODMsLTAuMDAxMjQ3MjcpIj4mI3hhOwkJCQk8dGl0bGUgaWQ9InRpdGxlODc2OTEiPlNoZWV0LjU2ODA8L3RpdGxlPiYjeGE7CQkJCTxwYXRoIGlkPSJwYXRoODc2OTMiIGlua3NjYXBlOmNvbm5lY3Rvci1jdXJ2YXR1cmU9IjAiIHN0eWxlPSJmaWxsOiMzRTNFM0U7IiBkPSJNNS4xNiwzMi4xYy0wLjYzLDAuMzUtMS4zNCwwLjUyLTIuMTIsMC41MiAgICAgIGMtMC45MSwwLTEuNjQtMC4yOC0yLjItMC44NEMwLjI4LDMxLjIxLDAsMzAuNDcsMCwyOS41NGMwLTAuOTUsMC4zMS0xLjcyLDAuOTItMi4zM2MwLjYxLTAuNjEsMS4zOS0wLjkxLDIuMzMtMC45MSAgICAgIGMwLjY4LDAsMS4yNSwwLjEsMS43MiwwLjN2MS4wNGMtMC40Ny0wLjMxLTEuMDMtMC40Ni0xLjY4LTAuNDZzLTEuMTgsMC4yMS0xLjYsMC42NHMtMC42MiwwLjk4LTAuNjIsMS42NyAgICAgIGMwLDAuNywwLjE3LDEuMjUsMC41MywxLjY1czAuODUsMC42MSwxLjQ2LDAuNjFjMC40MiwwLDAuNzktMC4wOSwxLjA5LTAuMjV2LTEuNDVIMi44NlYyOS4yaDIuM0M1LjE2LDI5LjIsNS4xNiwzMi4xLDUuMTYsMzIuMSAgICAgIHoiLz4mI3hhOwkJCTwvZz4mI3hhOwkJPC9nPiYjeGE7CTwvZz4mI3hhOzwvZz4mI3hhOzwvc3ZnPg==;rounded=1;strokeColor=#E6E6E6;fillColor=#E6E6E6;" vertex="1" parent="BhFgCoEos3Yp7x98W-Is-1">
          <mxGeometry x="539" y="269" width="23" height="31" as="geometry" />
        </mxCell>
        <mxCell id="BhFgCoEos3Yp7x98W-Is-51" value="Enterprise Tier subnet" style="text;html=1;resizable=0;autosize=1;align=center;verticalAlign=middle;points=[];fillColor=none;strokeColor=none;rounded=0;dashed=1;" vertex="1" parent="BhFgCoEos3Yp7x98W-Is-1">
          <mxGeometry x="559.16" y="240" width="130" height="20" as="geometry" />
        </mxCell>
        <mxCell id="BhFgCoEos3Yp7x98W-Is-52" value="" style="html=1;dashed=0;whitespace=wrap;fillColor=#2875E2;strokeColor=#ffffff;points=[[0.005,0.63,0],[0.1,0.2,0],[0.9,0.2,0],[0.5,0,0],[0.995,0.63,0],[0.72,0.99,0],[0.5,1,0],[0.28,0.99,0]];shape=mxgraph.kubernetes.icon;prIcon=api;rounded=1;" vertex="1" parent="BhFgCoEos3Yp7x98W-Is-1">
          <mxGeometry x="115" y="350" width="50" height="48" as="geometry" />
        </mxCell>
        <mxCell id="BhFgCoEos3Yp7x98W-Is-53" value="" style="html=1;dashed=0;whitespace=wrap;fillColor=#2875E2;strokeColor=#ffffff;points=[[0.005,0.63,0],[0.1,0.2,0],[0.9,0.2,0],[0.5,0,0],[0.995,0.63,0],[0.72,0.99,0],[0.5,1,0],[0.28,0.99,0]];shape=mxgraph.kubernetes.icon;prIcon=pod;rounded=1;" vertex="1" parent="BhFgCoEos3Yp7x98W-Is-1">
          <mxGeometry x="552.83" y="671.3" width="50" height="48" as="geometry" />
        </mxCell>
        <mxCell id="BhFgCoEos3Yp7x98W-Is-54" value="" style="html=1;dashed=0;whitespace=wrap;fillColor=#2875E2;strokeColor=#ffffff;points=[[0.005,0.63,0],[0.1,0.2,0],[0.9,0.2,0],[0.5,0,0],[0.995,0.63,0],[0.72,0.99,0],[0.5,1,0],[0.28,0.99,0]];shape=mxgraph.kubernetes.icon;prIcon=node;rounded=1;" vertex="1" parent="BhFgCoEos3Yp7x98W-Is-1">
          <mxGeometry x="-97" y="357" width="50" height="48" as="geometry" />
        </mxCell>
        <mxCell id="BhFgCoEos3Yp7x98W-Is-55" value="" style="html=1;dashed=0;whitespace=wrap;fillColor=#2875E2;strokeColor=#ffffff;points=[[0.005,0.63,0],[0.1,0.2,0],[0.9,0.2,0],[0.5,0,0],[0.995,0.63,0],[0.72,0.99,0],[0.5,1,0],[0.28,0.99,0]];shape=mxgraph.kubernetes.icon;prIcon=svc;rounded=1;" vertex="1" parent="BhFgCoEos3Yp7x98W-Is-1">
          <mxGeometry x="383.5" y="671.3" width="50" height="48" as="geometry" />
        </mxCell>
        <mxCell id="BhFgCoEos3Yp7x98W-Is-58" value="service az2" style="text;html=1;resizable=0;autosize=1;align=center;verticalAlign=middle;points=[];fillColor=none;strokeColor=none;rounded=0;dashed=1;" vertex="1" parent="BhFgCoEos3Yp7x98W-Is-1">
          <mxGeometry x="372.5" y="721.3" width="80" height="20" as="geometry" />
        </mxCell>
        <mxCell id="BhFgCoEos3Yp7x98W-Is-62" value="" style="aspect=fixed;html=1;points=[];align=center;image;fontSize=12;image=img/lib/azure2/compute/Kubernetes_Services.svg;rounded=1;strokeColor=#0000FF;fillColor=#E6E6E6;" vertex="1" parent="BhFgCoEos3Yp7x98W-Is-1">
          <mxGeometry x="360" y="511" width="45.33" height="40" as="geometry" />
        </mxCell>
        <mxCell id="BhFgCoEos3Yp7x98W-Is-63" value="" style="html=1;dashed=0;whitespace=wrap;fillColor=#2875E2;strokeColor=#ffffff;points=[[0.005,0.63,0],[0.1,0.2,0],[0.9,0.2,0],[0.5,0,0],[0.995,0.63,0],[0.72,0.99,0],[0.5,1,0],[0.28,0.99,0]];shape=mxgraph.kubernetes.icon;prIcon=pod;rounded=1;" vertex="1" parent="BhFgCoEos3Yp7x98W-Is-1">
          <mxGeometry x="499.5" y="671.3" width="50" height="48" as="geometry" />
        </mxCell>
        <mxCell id="BhFgCoEos3Yp7x98W-Is-64" value="" style="html=1;dashed=0;whitespace=wrap;fillColor=#2875E2;strokeColor=#ffffff;points=[[0.005,0.63,0],[0.1,0.2,0],[0.9,0.2,0],[0.5,0,0],[0.995,0.63,0],[0.72,0.99,0],[0.5,1,0],[0.28,0.99,0]];shape=mxgraph.kubernetes.icon;prIcon=pod;rounded=1;" vertex="1" parent="BhFgCoEos3Yp7x98W-Is-1">
          <mxGeometry x="603.66" y="671.3" width="50" height="48" as="geometry" />
        </mxCell>
        <mxCell id="BhFgCoEos3Yp7x98W-Is-65" value="node pool az2" style="text;html=1;resizable=0;autosize=1;align=center;verticalAlign=middle;points=[];fillColor=none;strokeColor=none;rounded=0;dashed=1;" vertex="1" parent="BhFgCoEos3Yp7x98W-Is-1">
          <mxGeometry x="471.5" y="721.3" width="90" height="20" as="geometry" />
        </mxCell>
        <mxCell id="BhFgCoEos3Yp7x98W-Is-66" value="" style="whiteSpace=wrap;html=1;dashed=1;fillColor=none;" vertex="1" parent="BhFgCoEos3Yp7x98W-Is-1">
          <mxGeometry x="482.5" y="561.3" width="180" height="60" as="geometry" />
        </mxCell>
        <mxCell id="BhFgCoEos3Yp7x98W-Is-67" value="" style="html=1;dashed=0;whitespace=wrap;fillColor=#2875E2;strokeColor=#ffffff;points=[[0.005,0.63,0],[0.1,0.2,0],[0.9,0.2,0],[0.5,0,0],[0.995,0.63,0],[0.72,0.99,0],[0.5,1,0],[0.28,0.99,0]];shape=mxgraph.kubernetes.icon;prIcon=pod;rounded=1;" vertex="1" parent="BhFgCoEos3Yp7x98W-Is-1">
          <mxGeometry x="550.83" y="567.3" width="50" height="48" as="geometry" />
        </mxCell>
        <mxCell id="BhFgCoEos3Yp7x98W-Is-68" value="" style="html=1;dashed=0;whitespace=wrap;fillColor=#2875E2;strokeColor=#ffffff;points=[[0.005,0.63,0],[0.1,0.2,0],[0.9,0.2,0],[0.5,0,0],[0.995,0.63,0],[0.72,0.99,0],[0.5,1,0],[0.28,0.99,0]];shape=mxgraph.kubernetes.icon;prIcon=svc;rounded=1;" vertex="1" parent="BhFgCoEos3Yp7x98W-Is-1">
          <mxGeometry x="381.5" y="567.3" width="50" height="48" as="geometry" />
        </mxCell>
        <mxCell id="BhFgCoEos3Yp7x98W-Is-69" value="service az1" style="text;html=1;resizable=0;autosize=1;align=center;verticalAlign=middle;points=[];fillColor=none;strokeColor=none;rounded=0;dashed=1;" vertex="1" parent="BhFgCoEos3Yp7x98W-Is-1">
          <mxGeometry x="370.5" y="617.3" width="80" height="20" as="geometry" />
        </mxCell>
        <mxCell id="BhFgCoEos3Yp7x98W-Is-70" value="" style="html=1;dashed=0;whitespace=wrap;fillColor=#2875E2;strokeColor=#ffffff;points=[[0.005,0.63,0],[0.1,0.2,0],[0.9,0.2,0],[0.5,0,0],[0.995,0.63,0],[0.72,0.99,0],[0.5,1,0],[0.28,0.99,0]];shape=mxgraph.kubernetes.icon;prIcon=pod;rounded=1;" vertex="1" parent="BhFgCoEos3Yp7x98W-Is-1">
          <mxGeometry x="497.5" y="567.3" width="50" height="48" as="geometry" />
        </mxCell>
        <mxCell id="BhFgCoEos3Yp7x98W-Is-71" value="" style="html=1;dashed=0;whitespace=wrap;fillColor=#2875E2;strokeColor=#ffffff;points=[[0.005,0.63,0],[0.1,0.2,0],[0.9,0.2,0],[0.5,0,0],[0.995,0.63,0],[0.72,0.99,0],[0.5,1,0],[0.28,0.99,0]];shape=mxgraph.kubernetes.icon;prIcon=pod;rounded=1;" vertex="1" parent="BhFgCoEos3Yp7x98W-Is-1">
          <mxGeometry x="601.66" y="567.3" width="50" height="48" as="geometry" />
        </mxCell>
        <mxCell id="BhFgCoEos3Yp7x98W-Is-72" value="node pool az1" style="text;html=1;resizable=0;autosize=1;align=center;verticalAlign=middle;points=[];fillColor=none;strokeColor=none;rounded=0;dashed=1;" vertex="1" parent="BhFgCoEos3Yp7x98W-Is-1">
          <mxGeometry x="469.5" y="617.3" width="90" height="20" as="geometry" />
        </mxCell>
      </root>
    </mxGraphModel>
  </diagram>
</mxfile>
